<?xml version="1.0" encoding="utf-8"?>
<!-- Generator: Adobe Illustrator 16.0.3, SVG Export Plug-In . SVG Version: 6.00 Build 0)  -->
<!DOCTYPE svg PUBLIC "-//W3C//DTD SVG 1.1//EN" "http://www.w3.org/Graphics/SVG/1.1/DTD/svg11.dtd">
<svg version="1.1" id="Layer_1" xmlns="http://www.w3.org/2000/svg" xmlns:xlink="http://www.w3.org/1999/xlink" x="0px" y="0px"
	 width="108.805px" height="93.646px" viewBox="72.833 9.812 108.805 93.646" enable-background="new 72.833 9.812 108.805 93.646"
	 xml:space="preserve">
<g>
	<path fill="none" stroke="#000000" stroke-width="4.413" stroke-miterlimit="10" d="M132.776,101.252H94.792
		c-1.927,0-3.515-1.7-4.082-4.195L75.177,19.049c-0.68-3.515,1.247-7.03,4.082-7.03h69.165c2.721,0,4.762,3.402,4.081,7.03
		L136.857,97.17C136.404,99.552,134.703,101.252,132.776,101.252z"/>
	<path stroke="#000000" stroke-width="2.8743" stroke-miterlimit="10" d="M126.88,94.449h-26.646c-1.36,0-2.494-1.021-2.834-2.494
		c0,0-10.885-47.168-10.885-47.281c-0.34-1.475,0.454-4.082,2.268-4.195c1.247-0.113,3.401,2.268,4.649,2.948
		c3.628,1.7,7.937,1.927,11.565,0.113c2.154-1.021,3.968-2.608,6.35-2.948c3.855-0.567,7.03,2.494,10.544,3.969
		c3.628,1.474,7.937,1.247,11.453-0.567c1.246-0.566,3.514-3.401,4.535-3.515c2.041-0.341,3.061,2.607,2.721,4.195l-10.885,47.281
		C129.375,93.428,128.24,94.449,126.88,94.449z"/>
	<path fill="none" stroke="#000000" stroke-width="3.144" stroke-miterlimit="10" d="M177.109,29.253h-25.285l-12.699,63.495h26.873
		c1.36,0,2.494-1.247,2.834-2.947l11.111-55.672C180.51,31.635,179.037,29.253,177.109,29.253z"/>
	<path stroke="#000000" stroke-width="1.7346" stroke-miterlimit="10" d="M169.966,52.497c-0.682,0.113-2.041,1.814-2.722,2.154
		c-2.154,1.021-4.649,1.247-6.917,0.34c-2.154-0.907-4.082-2.721-6.35-2.381c-1.02,0.113-1.813,0.681-2.721,1.134l-5.783,29.253
		c0.113,0.341,0.113,0.567,0.113,0.567c0.228,0.907,0.908,1.474,1.701,1.474h16.102c0.793,0,1.473-0.566,1.7-1.474l6.576-28.46
		C171.78,53.97,171.212,52.27,169.966,52.497z"/>
</g>
</svg>
