<?xml version="1.0" encoding="utf-8"?>
<!-- Generator: Adobe Illustrator 16.0.3, SVG Export Plug-In . SVG Version: 6.00 Build 0)  -->
<!DOCTYPE svg PUBLIC "-//W3C//DTD SVG 1.1//EN" "http://www.w3.org/Graphics/SVG/1.1/DTD/svg11.dtd">
<svg version="1.1" id="Layer_1" xmlns="http://www.w3.org/2000/svg" xmlns:xlink="http://www.w3.org/1999/xlink" x="0px" y="0px"
	 width="113.385px" height="103.269px" viewBox="70.868 5.058 113.385 103.269"
	 enable-background="new 70.868 5.058 113.385 103.269" xml:space="preserve">
<g>
	<path d="M99.918,17.404C84.805,6.657,71.985,7.198,71.985,7.198l0.095,0.077c-0.328-0.096-0.669-0.082-0.932,0.179
		c-0.374,0.376-0.374,0.983,0.005,1.364c0.033,0.036,0.082,0.022,0.124,0.053l-0.033,0.038l42.058,42.061
		c0.08,0.069,0.195,0.135,0.255,0.199l1.165,1.196l2.876,2.95l6.965-6.812C122.046,38.628,109.17,23.987,99.918,17.404z"/>
	<path d="M168.899,107.721c0.46,0.461,1.351,0.713,1.983,0.563l2.896-0.731c0.634-0.153,1.53-0.657,1.991-1.118l1.656-1.656
		c0.458-0.46,0.941-1.375,1.061-2.008l0.49-2.5c0.126-0.646-0.155-1.546-0.625-2l-37.604-33.992l-7.129,7.269L168.899,107.721z"/>
	<path d="M183.911,17.366l-0.079-0.077c-0.451-0.453-1.201-0.453-1.664,0.002l-22.005,22.013c-0.456,0.453-1.196,0.458-1.647,0.007
		c-0.449-0.449-0.456-1.198-0.007-1.663l21.54-22.478c0.445-0.47,0.441-1.223-0.011-1.678l-0.079-0.075
		c-0.459-0.458-1.209-0.46-1.675-0.012L155.16,35.72c-0.467,0.449-1.213,0.445-1.666-0.009c-0.451-0.449-0.455-1.196-0.006-1.666
		l22.221-23.214c0.445-0.468,0.443-1.223-0.014-1.681l-0.074-0.072c-0.456-0.458-1.209-0.463-1.679-0.016l-22.425,21.595
		c-0.465,0.444-1.216,0.438-1.666-0.014c-0.449-0.448-0.445-1.185,0.016-1.639l22.148-21.87c0.46-0.456,0.465-1.201,0.008-1.657
		l-0.076-0.074c-0.451-0.456-1.209-0.461-1.675-0.021l-22.511,21.52c-0.468,0.442-1.163,1.23-1.551,1.751l-5.021,10.34
		c-0.219,0.602-0.778,1.471-1.235,1.917l-11.619,11.367l-6.96,6.808L85.096,94.581c-0.458,0.458-0.713,1.333-0.551,1.955
		l0.715,2.849c0.153,0.634,0.651,1.517,1.108,1.975l1.631,1.635c0.458,0.458,1.351,0.927,1.982,1.045l2.469,0.483
		c0.631,0.121,1.52-0.148,1.971-0.616l35.422-36.13l7.129-7.272l11.396-11.624c0.451-0.46,1.317-1.01,1.926-1.222l10.116-4.806
		c0.521-0.39,1.313-1.076,1.766-1.536l21.74-22.278C184.368,18.576,184.363,17.818,183.911,17.366z"/>
</g>
</svg>
