<?xml version="1.0" encoding="utf-8"?>
<!-- Generator: Adobe Illustrator 16.0.2, SVG Export Plug-In . SVG Version: 6.00 Build 0)  -->
<!DOCTYPE svg PUBLIC "-//W3C//DTD SVG 1.1//EN" "http://www.w3.org/Graphics/SVG/1.1/DTD/svg11.dtd">
<svg version="1.1" id="Layer_1" xmlns="http://www.w3.org/2000/svg" xmlns:xlink="http://www.w3.org/1999/xlink" x="0px" y="0px"
	 width="53px" height="94px" viewBox="-109.573 7.141 53 94" enable-background="new -109.573 7.141 53 94" xml:space="preserve">
<g>
	<g>
		<path fill="#F9BA48" d="M-72.871,67.497l-0.85-1.8h-9.353h-9.353l-0.85,1.8c-5.735,12.147-1.347,26.616,10.202,33.644l0,0l0,0
			C-71.523,94.113-67.136,79.645-72.871,67.497z"/>
		<path fill="#231F20" d="M-57.825,72.658l-1.958-15.479l-7.779-6.15c0.041-0.244,0.077-0.489,0.077-0.741
			c0-2.007-1.308-3.702-3.118-4.34v-3.009c4.895-3.789,7.794-9.623,7.794-15.767c0-11.045-9.092-20.032-20.266-20.032
			c-11.173,0-20.264,8.987-20.264,20.032c0,6.144,2.899,11.978,7.794,15.769v3.007c-1.81,0.64-3.117,2.333-3.117,4.34
			c0,0.252,0.036,0.497,0.076,0.74l-7.779,6.151l-1.958,15.477l14.695-5.446c1.462,5.251,4.902,10.155,9.629,13.596l0.924,0.675
			l0.925-0.673c4.727-3.44,8.168-8.345,9.629-13.598L-57.825,72.658z M-72.162,56.451c0,0.85-0.699,1.542-1.559,1.542h-18.706
			c-0.861,0-1.559-0.692-1.559-1.542c0-0.849,0.698-1.542,1.559-1.542h18.706C-72.86,54.911-72.162,55.603-72.162,56.451z
			 M-93.985,62.616c0-0.85,0.699-1.542,1.559-1.542h18.707c0.859,0,1.559,0.692,1.559,1.542c0,0.849-0.698,1.54-1.559,1.54h-18.707
			C-93.287,64.156-93.985,63.465-93.985,62.616z M-61.557,67.983l-8.155-3.024c0.414-0.69,0.667-1.485,0.667-2.343
			c0-1.189-0.469-2.264-1.215-3.083c0.748-0.819,1.215-1.895,1.215-3.082c0-0.828-0.238-1.593-0.625-2.267
			c0.203-0.126,0.389-0.273,0.567-0.43l6.385,5.051L-61.557,67.983z M-100.22,27.173c0-9.346,7.693-16.95,17.147-16.95
			s17.147,7.604,17.147,16.95c0,5.423-2.672,10.562-7.147,13.749l-0.646,0.461v4.282h-3.118v-15.41h1.559
			c2.578,0,4.677-2.074,4.677-4.623c0-2.55-2.099-4.624-4.677-4.624s-4.677,2.074-4.677,4.624v1.54h-6.235v-1.54
			c0-2.549-2.098-4.624-4.677-4.624s-4.677,2.074-4.677,4.624c0,2.549,2.098,4.623,4.677,4.623h1.559v15.41h-3.118v-4.282
			l-0.646-0.461C-97.548,37.734-100.22,32.594-100.22,27.173z M-86.191,45.665v-15.41h6.235v15.41H-86.191z M-76.838,27.173v-1.54
			c0-0.849,0.698-1.541,1.559-1.541c0.861,0,1.56,0.692,1.56,1.541s-0.699,1.54-1.56,1.54H-76.838z M-89.309,27.173h-1.559
			c-0.86,0-1.559-0.691-1.559-1.54s0.698-1.541,1.559-1.541c0.861,0,1.559,0.692,1.559,1.541V27.173z M-93.985,48.747h1.559h18.707
			h1.559c0.86,0,1.559,0.693,1.559,1.541c0,0.851-0.698,1.541-1.559,1.541h-1.559h-18.707h-1.559c-0.86,0-1.559-0.69-1.559-1.541
			C-95.544,49.44-94.846,48.747-93.985,48.747z M-103.43,58.806l6.385-5.051c0.179,0.154,0.365,0.303,0.567,0.43
			c-0.387,0.674-0.625,1.438-0.625,2.267c0,1.188,0.469,2.263,1.216,3.082c-0.749,0.819-1.216,1.894-1.216,3.083
			c0,0.857,0.254,1.652,0.668,2.343l-8.154,3.024L-103.43,58.806z M-83.073,77.617c-3.451-2.781-6.033-6.45-7.32-10.38h14.642
			C-77.041,71.169-79.622,74.838-83.073,77.617z"/>
		<rect x="-65.926" y="78.024" fill="#231F20" width="3.118" height="16.95"/>
		<rect x="-65.926" y="98.057" fill="#231F20" width="3.118" height="3.084"/>
		<rect x="-59.691" y="76.484" fill="#231F20" width="3.118" height="13.87"/>
		<rect x="-59.691" y="93.435" fill="#231F20" width="3.118" height="4.622"/>
		<rect x="-103.338" y="78.024" fill="#231F20" width="3.118" height="20.032"/>
		<rect x="-109.573" y="76.484" fill="#231F20" width="3.118" height="15.41"/>
		<rect x="-109.573" y="94.975" fill="#231F20" width="3.118" height="3.082"/>
	</g>
</g>
</svg>
