<?xml version="1.0" encoding="utf-8"?>
<!-- Generator: Adobe Illustrator 16.0.2, SVG Export Plug-In . SVG Version: 6.00 Build 0)  -->
<!DOCTYPE svg PUBLIC "-//W3C//DTD SVG 1.1//EN" "http://www.w3.org/Graphics/SVG/1.1/DTD/svg11.dtd">
<svg version="1.1" id="Layer_1" xmlns="http://www.w3.org/2000/svg" xmlns:xlink="http://www.w3.org/1999/xlink" x="0px" y="0px"
	 width="106px" height="108px" viewBox="485.139 115.24 106 108" enable-background="new 485.139 115.24 106 108"
	 xml:space="preserve">
<g>
	<path fill="#FFFFFF" d="M540.003,141.834c0-1.506-0.644-2.228-1.886-2.228c-0.365,0-0.942,0.085-0.942,0.085v4.539h0.665
		C539.51,144.23,540.003,143.318,540.003,141.834z"/>
	<path fill="#FFFFFF" d="M583.286,150.615h-90.295c-1.739,0-3.237,1.053-3.876,2.549h98.046
		C586.523,151.668,585.025,150.615,583.286,150.615z"/>
	<path fill="#F68645" d="M507.047,156.772c-0.349,1.879-0.527,3.793-0.527,5.711c0,17.257,14.185,31.296,31.621,31.296
		c17.433,0,31.616-14.039,31.616-31.296c0-1.918-0.18-3.832-0.528-5.711h-5.256c0.42,1.869,0.637,3.78,0.637,5.711
		c0,14.445-11.874,26.198-26.469,26.198c-14.599,0-26.474-11.753-26.474-26.198c0-1.931,0.216-3.842,0.636-5.711H507.047z"/>
	<path fill="#FFFFFF" d="M533.381,146.438v-2.207h0.964v-6.448c0,0,1.864-0.425,3.622-0.425c4.008,0,4.93,2.419,4.93,4.306
		c0,1.74-0.406,4.774-4.908,4.774h-0.813v0.569h13.117c1.58-2.356,2.415-5.085,2.415-7.947c0-7.951-6.535-14.42-14.568-14.42
		s-14.569,6.469-14.569,14.42c0,2.863,0.834,5.592,2.416,7.947h8.359v-0.569H533.381z"/>
	<path fill="#EDBB54" d="M521.784,147.006c-1.224-2.452-1.862-5.148-1.862-7.947c0-9.94,8.172-18.029,18.217-18.029
		s18.215,8.088,18.215,18.029c0,2.799-0.638,5.495-1.86,7.947h2.421c1.089-2.506,1.641-5.174,1.641-7.947
		c0-11.143-9.157-20.208-20.416-20.208s-20.418,9.065-20.418,20.208c0,2.773,0.552,5.441,1.641,7.947H521.784z"/>
	<path fill="#FFFFFF" d="M541.326,165.399c0-2.575-1.099-3.808-3.225-3.808c-0.625,0-1.612,0.144-1.612,0.144v7.763h1.137
		C540.484,169.498,541.326,167.938,541.326,165.399z"/>
	<polygon fill="#EDBB54" points="523.506,216.536 520.601,219.63 555.677,219.63 552.771,216.536 	"/>
	<path fill="#FFFFFF" d="M587.161,210.379h-98.046c0.639,1.495,2.137,2.548,3.876,2.548h90.295
		C585.025,212.927,586.523,211.874,587.161,210.379z"/>
	<path fill="#FFFFFF" d="M538.141,185.072c12.583,0,22.822-10.134,22.822-22.589c0-1.938-0.251-3.852-0.741-5.71h-44.167
		c-0.489,1.858-0.741,3.772-0.741,5.71C515.313,174.938,525.554,185.072,538.141,185.072z M530.002,175.702h1.649v-2.431h-1.649
		v-3.773h1.649v-11.027c0,0,3.189-0.725,6.194-0.725c6.854,0,8.43,4.135,8.43,7.362c0,2.975-0.696,8.163-8.394,8.163h-1.393v2.431
		h5.388v3.772h-5.388v3.228h-4.838v-3.228h-1.649V175.702z"/>
	<path fill="#FFFFFF" d="M587.492,156.773h-14.562c0.313,1.883,0.474,3.795,0.474,5.71c0,19.247-15.819,34.906-35.264,34.906
		c-19.447,0-35.27-15.659-35.27-34.906c0-1.915,0.161-3.827,0.474-5.71h-14.56v49.996h98.707V156.773z"/>
	<path d="M511.233,223.24h53.811c0.919,0,1.672-0.675,1.798-1.55h-57.406C509.562,222.565,510.314,223.24,511.233,223.24z"/>
	<path d="M538.139,115.24c-1.729,0-3.417,0.187-5.044,0.53h10.088C541.556,115.427,539.869,115.24,538.139,115.24z"/>
	<path d="M565.044,219.63h-4.39l-2.903-3.094h25.535c4.33,0,7.853-3.487,7.853-7.772v-53.984c0-4.286-3.522-7.773-7.853-7.773
		H560.83c0.911-2.535,1.373-5.198,1.373-7.947c0-11.421-8.165-20.986-19.021-23.288h-10.088
		c-10.855,2.302-19.022,11.867-19.022,23.288c0,2.749,0.462,5.412,1.373,7.947h-22.454c-4.33,0-7.853,3.487-7.853,7.773v53.984
		c0,4.285,3.522,7.772,7.853,7.772h25.535l-2.904,3.094h-4.389c-1.007,0-1.824,0.809-1.824,1.805c0,0.088,0.014,0.172,0.026,0.256
		h57.406c0.013-0.084,0.026-0.168,0.026-0.256C566.868,220.438,566.051,219.63,565.044,219.63z M538.139,118.851
		c11.259,0,20.416,9.065,20.416,20.208c0,2.773-0.552,5.441-1.641,7.947h-2.421c1.223-2.452,1.86-5.148,1.86-7.947
		c0-9.941-8.17-18.029-18.215-18.029s-18.217,8.089-18.217,18.029c0,2.799,0.639,5.495,1.862,7.947h-2.423
		c-1.089-2.506-1.641-5.174-1.641-7.947C517.721,127.916,526.88,118.851,538.139,118.851z M525.985,147.007
		c-1.582-2.355-2.416-5.084-2.416-7.947c0-7.951,6.536-14.42,14.569-14.42s14.568,6.469,14.568,14.42
		c0,2.862-0.835,5.591-2.415,7.947h-13.117v0.23c-0.104-0.027-0.878-0.153-0.991-0.176c-0.599-0.122-1.22,0.536-1.839,0.508v-0.563
		H525.985z M492.991,150.615h90.295c1.739,0,3.237,1.053,3.875,2.549h-98.046C489.754,151.668,491.252,150.615,492.991,150.615z
		 M538.141,188.682c14.595,0,26.469-11.753,26.469-26.198c0-1.931-0.217-3.842-0.637-5.711h5.256
		c0.349,1.879,0.528,3.793,0.528,5.711c0,17.257-14.184,31.296-31.616,31.296c-17.437,0-31.621-14.039-31.621-31.296
		c0-1.918,0.179-3.832,0.527-5.711h5.256c-0.42,1.869-0.636,3.78-0.636,5.711C511.667,176.929,523.542,188.682,538.141,188.682z
		 M515.313,162.483c0-1.938,0.252-3.852,0.741-5.71h44.167c0.49,1.858,0.741,3.772,0.741,5.71c0,12.455-10.239,22.589-22.822,22.589
		C525.554,185.072,515.313,174.938,515.313,162.483z M488.785,156.773h14.56c-0.313,1.883-0.474,3.795-0.474,5.71
		c0,19.247,15.822,34.906,35.27,34.906c19.444,0,35.264-15.659,35.264-34.906c0-1.915-0.16-3.827-0.474-5.71h14.562v49.996h-98.707
		V156.773z M492.991,212.927c-1.739,0-3.237-1.053-3.876-2.548h98.046c-0.638,1.495-2.136,2.548-3.875,2.548H492.991z
		 M520.601,219.63l2.905-3.094h29.266l2.905,3.094H520.601z"/>
	<path d="M537.175,146.438h0.813c4.502,0,4.908-3.034,4.908-4.774c0-1.887-0.922-4.306-4.93-4.306c-1.758,0-3.622,0.425-3.622,0.425
		v6.448h-0.964v2.207h0.964v0.569h2.83V146.438z M537.175,139.691c0,0,0.577-0.085,0.942-0.085c1.242,0,1.886,0.722,1.886,2.228
		c0,1.484-0.493,2.396-2.163,2.396h-0.665V139.691z"/>
	<path d="M536.184,147.062c0.113,0.022,0.888,0.148,0.991,0.176v-0.23h-2.83v0.563C534.964,147.598,535.585,146.939,536.184,147.062
		z"/>
	<path d="M531.651,182.702h4.838v-3.228h5.388v-3.772h-5.388v-2.431h1.393c7.697,0,8.394-5.188,8.394-8.163
		c0-3.228-1.576-7.362-8.43-7.362c-3.005,0-6.194,0.725-6.194,0.725v11.027h-1.649v3.773h1.649v2.431h-1.649v3.772h1.649V182.702z
		 M536.489,161.735c0,0,0.987-0.144,1.612-0.144c2.126,0,3.225,1.232,3.225,3.808c0,2.539-0.842,4.099-3.7,4.099h-1.137V161.735z"/>
</g>
</svg>
