<?xml version="1.0" encoding="utf-8"?>
<!-- Generator: Adobe Illustrator 16.0.2, SVG Export Plug-In . SVG Version: 6.00 Build 0)  -->
<!DOCTYPE svg PUBLIC "-//W3C//DTD SVG 1.1//EN" "http://www.w3.org/Graphics/SVG/1.1/DTD/svg11.dtd">
<svg version="1.1" id="Layer_1" xmlns="http://www.w3.org/2000/svg" xmlns:xlink="http://www.w3.org/1999/xlink" x="0px" y="0px"
	 width="103px" height="102px" viewBox="6.425 -11.057 103 102" enable-background="new 6.425 -11.057 103 102"
	 xml:space="preserve">
<g>
	<rect x="55.824" y="-0.735" fill="#FFFFFF" width="7.019" height="9.973"/>
	<path fill="#FFFFFF" d="M59.124-5.651c0-0.903-0.74-1.639-1.65-1.639s-1.65,0.735-1.65,1.639v1.638h1.65
		C58.384-4.013,59.124-4.748,59.124-5.651z"/>
	<path fill="#FFFFFF" d="M50.873-4.013h1.65v-1.638c0-0.903-0.74-1.639-1.65-1.639c-0.911,0-1.651,0.735-1.651,1.639
		S49.962-4.013,50.873-4.013z"/>
	<rect x="45.504" y="-0.735" fill="#FFFFFF" width="7.02" height="9.973"/>
	<path fill="#FFFFFF" d="M77.682,87.155c0.978,0,1.775-0.79,1.775-1.763c0-0.974-0.798-1.764-1.775-1.764
		c-0.98,0-1.777,0.79-1.777,1.764C75.904,86.365,76.701,87.155,77.682,87.155z"/>
	<rect x="74.945" y="6.911" fill="#F68645" width="5.721" height="17.603"/>
	<rect x="74.945" y="27.791" fill="#FFFFFF" width="5.721" height="10.689"/>
	<path fill="#FFFFFF" d="M85.617,21.237c-0.91,0-1.65,0.735-1.65,1.638v1.639h1.65c0.91,0,1.65-0.735,1.65-1.639
		S86.527,21.237,85.617,21.237z"/>
	<path fill="#FFFFFF" d="M85.617,27.791h-1.65v1.638c0,0.903,0.74,1.639,1.65,1.639s1.65-0.735,1.65-1.639
		S86.527,27.791,85.617,27.791z"/>
	<ellipse fill="#FFFFFF" cx="42.097" cy="85.392" rx="1.776" ry="1.763"/>
	<rect x="41.72" y="34.001" fill="#FFFFFF" width="29.925" height="4.479"/>
	<polygon fill="#F9BA48" points="40.088,66.524 80.811,66.524 84.281,41.757 36.617,41.757 	"/>
	<rect x="41.763" y="12.515" fill="#F68645" width="24.821" height="18.209"/>
	<path d="M42.097,80.353c-2.799,0-5.076,2.26-5.076,5.04c0,2.779,2.277,5.041,5.076,5.041c2.799,0,5.078-2.262,5.078-5.041
		C47.174,82.612,44.897,80.353,42.097,80.353z M42.097,87.155c-0.979,0-1.776-0.79-1.776-1.763c0-0.974,0.798-1.764,1.776-1.764
		c0.98,0,1.776,0.79,1.776,1.764C43.873,86.365,43.077,87.155,42.097,87.155z"/>
	<path d="M85.617,17.959c-0.578,0-1.134,0.101-1.65,0.282V5.272c0-0.905-0.738-1.638-1.649-1.638h-9.022
		c-0.911,0-1.65,0.733-1.65,1.638v25.452h-1.761V10.876c0-0.905-0.738-1.638-1.649-1.638h-2.091V-2.374
		c0-0.905-0.738-1.639-1.65-1.639h-2.353c0.184-0.513,0.284-1.064,0.284-1.638c0-2.71-2.221-4.916-4.951-4.916
		c-1.267,0-2.424,0.476-3.3,1.255c-0.876-0.78-2.034-1.255-3.3-1.255c-2.73,0-4.951,2.205-4.951,4.916
		c0,0.574,0.1,1.125,0.283,1.638h-2.353c-0.911,0-1.65,0.734-1.65,1.639V9.238h-2.09c-0.911,0-1.65,0.733-1.65,1.638V38.48h-2.343
		l-0.756-4.533c-0.132-0.791-0.821-1.371-1.628-1.371h-8.516c-0.911,0-1.65,0.733-1.65,1.639c0,0.905,0.739,1.638,1.65,1.638h7.117
		l4.681,32.537c0.114,0.809,0.812,1.411,1.635,1.411h2.281l-1.674,7.655c-0.106,0.484,0.015,0.989,0.328,1.375
		c0.313,0.387,0.786,0.611,1.285,0.611h35.37l-0.097,1.146c-2.051,0.648-3.54,2.556-3.54,4.804c0,2.779,2.277,5.041,5.077,5.041
		c2.799,0,5.076-2.262,5.076-5.041c0-2.163-1.378-4.011-3.309-4.726l0.23-2.727c0.039-0.457-0.118-0.909-0.43-1.246
		c-0.313-0.338-0.753-0.53-1.215-0.53H42.917l1.392-6.362h37.937c0.825,0,1.522-0.603,1.635-1.412l3.931-28.045
		c0.066-0.469-0.075-0.944-0.39-1.301c-0.313-0.357-0.767-0.563-1.244-0.563h-2.21v-4.417c0.517,0.182,1.072,0.281,1.65,0.281
		c2.73,0,4.951-2.205,4.951-4.915c0-1.258-0.479-2.407-1.265-3.277c0.785-0.871,1.265-2.019,1.265-3.277
		C90.568,20.165,88.348,17.959,85.617,17.959z M77.682,83.629c0.978,0,1.775,0.79,1.775,1.764c0,0.973-0.798,1.763-1.775,1.763
		c-0.98,0-1.777-0.79-1.777-1.763C75.904,84.419,76.701,83.629,77.682,83.629z M74.945,6.911h5.721v17.603h-5.721V6.911z
		 M74.945,27.791h5.721V38.48h-5.721V27.791z M55.824-5.651c0-0.903,0.74-1.639,1.65-1.639s1.65,0.735,1.65,1.639
		s-0.74,1.638-1.65,1.638h-1.65V-5.651z M55.824-0.735h7.019v9.973h-7.019V-0.735z M50.873-7.29c0.91,0,1.65,0.735,1.65,1.639v1.638
		h-1.65c-0.911,0-1.651-0.735-1.651-1.638S49.962-7.29,50.873-7.29z M45.504-0.735h7.02v9.973h-7.02V-0.735z M41.763,12.515h24.821
		v18.209H41.763V12.515z M41.72,34.001h29.925v4.479H41.72V34.001z M84.281,41.757l-3.471,24.768H40.088l-3.471-24.768H84.281z
		 M85.617,31.068c-0.91,0-1.65-0.735-1.65-1.639v-1.638h1.65c0.91,0,1.65,0.735,1.65,1.638S86.527,31.068,85.617,31.068z
		 M85.617,24.514h-1.65v-1.639c0-0.903,0.74-1.638,1.65-1.638s1.65,0.735,1.65,1.638S86.527,24.514,85.617,24.514z"/>
</g>
</svg>
