<?xml version="1.0" encoding="utf-8"?>
<!-- Generator: Adobe Illustrator 16.0.2, SVG Export Plug-In . SVG Version: 6.00 Build 0)  -->
<!DOCTYPE svg PUBLIC "-//W3C//DTD SVG 1.1//EN" "http://www.w3.org/Graphics/SVG/1.1/DTD/svg11.dtd">
<svg version="1.1" id="Layer_1" xmlns="http://www.w3.org/2000/svg" xmlns:xlink="http://www.w3.org/1999/xlink" x="0px" y="0px"
	 width="84.001px" height="94px" viewBox="496.277 122.903 84.001 94" enable-background="new 496.277 122.903 84.001 94"
	 xml:space="preserve">
<g>
	<path fill="#FFFFFF" d="M536.386,137.565c-7.425,0.367-14.628,2.889-20.628,7.219l20.628,25.259V137.565z"/>
	<path fill="#EDBB54" d="M545.844,126.694v34.318l29.052-18.739C568.073,132.959,557.437,127.256,545.844,126.694z"/>
	<path fill="#F68645" d="M539.312,176.907c-0.813,0.524-1.896,0.355-2.505-0.392l-23.992-29.377
		c-8.128,7.184-12.752,17.357-12.752,28.2c0,20.854,17.144,37.819,38.216,37.819s38.216-16.966,38.216-37.819
		c0-6.738-1.793-13.289-5.203-19.06L539.312,176.907z M564.94,167.486l-12.315,7.938c-0.319,0.206-0.678,0.304-1.031,0.304
		c-0.618,0-1.225-0.299-1.588-0.851c-0.569-0.866-0.321-2.026,0.554-2.591l12.314-7.939c0.876-0.564,2.048-0.318,2.619,0.548
		C566.063,165.762,565.815,166.922,564.94,167.486z M570.765,163.731l-0.665,0.43c-0.319,0.205-0.678,0.303-1.031,0.303
		c-0.618,0-1.225-0.299-1.587-0.851c-0.571-0.866-0.323-2.026,0.552-2.591l0.666-0.429c0.876-0.565,2.047-0.319,2.618,0.546
		C571.888,162.007,571.641,163.167,570.765,163.731z"/>
	<path fill="#231F20" d="M568.699,160.594l-0.666,0.429c-0.875,0.564-1.123,1.725-0.552,2.591c0.362,0.552,0.969,0.851,1.587,0.851
		c0.354,0,0.712-0.098,1.031-0.303l0.665-0.43c0.876-0.564,1.123-1.725,0.553-2.592
		C570.746,160.274,569.575,160.028,568.699,160.594z"/>
	<path d="M543.05,166.115c0.282,0.15,0.593,0.226,0.901,0.226c0.361,0,0.721-0.103,1.034-0.304l33.602-21.675
		c0.421-0.271,0.716-0.696,0.818-1.184c0.104-0.486,0.008-0.993-0.268-1.409c-7.796-11.813-20.95-18.866-35.187-18.866
		c-1.045,0-1.892,0.839-1.892,1.872v39.693C542.06,165.155,542.439,165.787,543.05,166.115z M545.844,126.694
		c11.593,0.562,22.229,6.265,29.052,15.579l-29.052,18.739V126.694z"/>
	<path d="M570.848,152.095l-30.678,19.788v-36.237c0-1.033-0.847-1.872-1.893-1.872c-9.584,0-18.96,3.282-26.399,9.24
		c-9.914,7.939-15.601,19.721-15.601,32.325c0,11.102,4.37,21.54,12.302,29.391c7.934,7.85,18.48,12.174,29.699,12.174
		s21.766-4.324,29.698-12.174c7.933-7.852,12.302-18.289,12.302-29.392c0-8.096-2.356-15.944-6.813-22.698
		C572.894,151.774,571.723,151.531,570.848,152.095z M536.386,137.565v32.478l-20.628-25.259
		C521.758,140.454,528.961,137.933,536.386,137.565z M538.278,213.158c-21.072,0-38.216-16.966-38.216-37.819
		c0-10.843,4.624-21.017,12.752-28.2l23.992,29.377c0.609,0.747,1.692,0.916,2.505,0.392l31.979-20.628
		c3.41,5.771,5.203,12.321,5.203,19.06C576.494,196.192,559.351,213.158,538.278,213.158z"/>
	<path d="M562.874,164.348l-12.314,7.939c-0.875,0.564-1.123,1.725-0.554,2.591c0.363,0.552,0.97,0.851,1.588,0.851
		c0.354,0,0.712-0.098,1.031-0.304l12.315-7.938c0.875-0.564,1.123-1.725,0.553-2.591
		C564.922,164.029,563.75,163.783,562.874,164.348z"/>
</g>
</svg>
