<?xml version="1.0" encoding="utf-8"?>
<!-- Generator: Adobe Illustrator 16.0.2, SVG Export Plug-In . SVG Version: 6.00 Build 0)  -->
<!DOCTYPE svg PUBLIC "-//W3C//DTD SVG 1.1//EN" "http://www.w3.org/Graphics/SVG/1.1/DTD/svg11.dtd">
<svg version="1.1" id="Layer_1" xmlns="http://www.w3.org/2000/svg" xmlns:xlink="http://www.w3.org/1999/xlink" x="0px" y="0px"
	 width="133px" height="78px" viewBox="-8.699 1.396 133 78" enable-background="new -8.699 1.396 133 78" xml:space="preserve">
<g>
	<path fill="#FFFFFF" d="M89.896,46.678V36.377h-0.647H84.76c-0.878,0-1.552,0.67-1.552,1.55v0.9v5.399v0.901
		c0,0.879,0.674,1.55,1.552,1.55h4.488H89.896z"/>
	<polygon fill="#FFFFFF" points="91.71,48.973 89.413,58.785 93.145,58.785 93.145,48.973 91.938,48.973 	"/>
	<path fill="#F68645" d="M28.585,20.91v3.275v2.572c0,0.006,0,0.012,0,0.018v3.266l9.11-4.565L28.585,20.91z"/>
	<path fill="#F9BA48" d="M73.289,5.478c0-1.01-0.774-1.788-1.783-1.788H-4.627c-1.008,0-1.784,0.778-1.784,1.788v5.094h79.7V5.478z
		 M-2.656,8.278c-0.001,0-0.002,0-0.004,0c-0.809-0.001-1.463-0.659-1.462-1.47c0.001-0.81,0.658-1.466,1.466-1.465
		C-1.849,5.345-1.195,6-1.194,6.809C-1.193,7.619-1.847,8.277-2.656,8.278z M3.2,8.278c-0.001,0-0.002,0-0.004,0
		c-0.809-0.001-1.463-0.659-1.462-1.47C1.735,5.999,2.392,5.343,3.2,5.344C4.006,5.345,4.661,6,4.662,6.809
		C4.663,7.619,4.008,8.277,3.2,8.278z M9.055,8.278c-0.001,0-0.002,0-0.003,0c-0.809-0.001-1.463-0.659-1.462-1.47
		c0.001-0.81,0.658-1.466,1.466-1.465C9.862,5.345,10.516,6,10.517,6.809C10.518,7.619,9.864,8.277,9.055,8.278z"/>
	<rect x="79.619" y="39.975" fill="#FFFFFF" width="1.301" height="3.105"/>
	<path fill="#FFFFFF" d="M100.012,48.973h-2.969h-1.609v10.959c0,0.634-0.512,1.147-1.144,1.147h-6.271
		c-0.106,0.026-0.211,0.04-0.313,0.04h-6.052c-0.105,0-0.206-0.014-0.301-0.04H9.61c-0.632,0-1.145-0.514-1.145-1.147v-6.344H3.889
		v12.111h96.123V48.973z"/>
	<path fill="#FFFFFF" d="M95.434,14.049v20.033h1.609h2.969V11.254c0-1.668-1.3-2.976-2.956-2.976H75.578v4.624H94.29
		C94.922,12.902,95.434,13.417,95.434,14.049z"/>
	<path fill="#FFFFFF" d="M10.754,53.588v5.196H81.04l2.356-10.077c-1.365-0.527-2.351-1.812-2.45-3.333h-1.573
		c-1.111,0-2.043-0.934-2.043-2.048v-3.598c0-1.113,0.932-2.048,2.043-2.048h1.573c0.131-1.996,1.791-3.598,3.813-3.598h4.488h1.792
		h0.898h1.206V15.197H75.578v34.308c0,2.241-1.836,4.083-4.072,4.083H10.754z"/>
	<polygon fill="#F68645" points="87.093,58.785 89.382,48.985 85.648,48.985 83.359,58.785 	"/>
	<path fill="#F68645" d="M22.403,42.681H10.959c-0.49,0-0.891,0.275-1.06,0.69c-0.056,0.138-0.085,0.293-0.085,0.457
		c0,0.655,0.491,1.146,1.145,1.146h11.443c0.654,0,1.145-0.491,1.145-1.146S23.057,42.681,22.403,42.681z"/>
	<path fill="#F68645" d="M44.592,71.787h14.716c0.996,0,1.796-0.804,1.796-1.895v-1.899H42.795v1.899
		C42.795,70.983,43.596,71.787,44.592,71.787z"/>
	<path fill="#F68645" d="M112.965,37.322V41.1v3.777c1.721-0.541,3.094-1.866,3.094-3.777S114.686,37.863,112.965,37.322z"/>
	<path fill="#F9BA48" d="M97.043,36.377h-4.859v10.301h4.859h3.87c1.971,0,3.747,0.802,5.078,2.065V34.312
		c-1.331,1.264-3.107,2.065-5.078,2.065H97.043z"/>
	<path fill="#FFFFFF" d="M63.393,69.893c0,2.283-1.82,4.189-4.085,4.189H44.592c-2.264,0-4.085-1.906-4.085-4.189v-1.899H-2.75
		c0.588,5.127,4.724,9.108,10.009,9.108h89.382c5.284,0,9.421-3.981,10.008-9.108H63.393V69.893z"/>
	<path fill="#F9BA48" d="M56.732,42.681H25.622c0.129,0.361,0.214,0.744,0.214,1.147c0,0.404-0.084,0.785-0.214,1.146h31.111
		c0.654,0,1.145-0.491,1.145-1.146S57.386,42.681,56.732,42.681z"/>
	<path fill="#FFFFFF" d="M73.289,49.506v-36.64h-79.7v36.64c0,1.01,0.776,1.787,1.784,1.787h76.133
		C72.515,51.293,73.289,50.516,73.289,49.506z M26.296,26.761v-2.572c0-0.004,0-0.009,0-0.014V19.05c0-0.617,0.485-1.124,1.1-1.147
		c0.192-0.007,0.382,0.034,0.554,0.121l12.816,6.425c0.387,0.194,0.631,0.59,0.633,1.023c0.001,0.634-0.51,1.148-1.142,1.149h0.268
		l-12.575,6.3c-0.158,0.079-0.332,0.121-0.508,0.121c-0.632,0-1.145-0.513-1.146-1.146V26.761z M56.732,47.27H10.959
		c-1.882,0-3.433-1.555-3.433-3.441s1.551-3.441,3.433-3.441h45.773c1.882,0,3.434,1.554,3.434,3.441S58.614,47.27,56.732,47.27z"/>
	<rect x="108.338" y="30.019" fill="#FFFFFF" width="2.231" height="22.941"/>
	<polygon points="117.252,52.888 120.358,54.689 121.503,52.7 118.396,50.903 	"/>
	<polygon points="119.679,47.798 123.148,48.726 123.738,46.513 120.274,45.58 	"/>
	<polygon points="120.274,36.619 123.738,35.687 123.148,33.474 119.679,34.405 	"/>
	<polygon points="121.503,29.499 120.358,27.51 117.252,29.311 118.396,31.296 	"/>
	<rect x="120.712" y="39.953" width="3.589" height="2.294"/>
	<path d="M9.055,5.344C8.247,5.343,7.591,5.999,7.589,6.809c-0.001,0.811,0.653,1.468,1.462,1.47c0.001,0,0.002,0,0.003,0
		c0.809-0.001,1.463-0.659,1.462-1.47C10.516,6,9.862,5.345,9.055,5.344z"/>
	<path d="M56.732,40.387H10.959c-1.882,0-3.433,1.554-3.433,3.441s1.551,3.441,3.433,3.441h45.773c1.882,0,3.434-1.555,3.434-3.441
		S58.614,40.387,56.732,40.387z M22.403,44.975H10.959c-0.653,0-1.145-0.491-1.145-1.146c0-0.164,0.029-0.319,0.085-0.457
		c0.169-0.415,0.57-0.69,1.06-0.69h11.443c0.654,0,1.145,0.492,1.145,1.147S23.057,44.975,22.403,44.975z M56.732,44.975H25.622
		c0.13-0.361,0.214-0.742,0.214-1.146c0-0.403-0.085-0.786-0.214-1.147h31.111c0.654,0,1.145,0.492,1.145,1.147
		S57.386,44.975,56.732,44.975z"/>
	<path d="M27.442,33.042c0.176,0,0.35-0.042,0.508-0.121l12.575-6.3h-0.268c0.632-0.001,1.143-0.516,1.142-1.149
		c-0.001-0.434-0.246-0.829-0.633-1.023L27.95,18.024c-0.171-0.086-0.362-0.128-0.554-0.121c-0.615,0.023-1.1,0.53-1.1,1.147v5.125
		c0,0.004,0,0.009,0,0.014v2.572v5.135C26.297,32.53,26.81,33.043,27.442,33.042z M28.585,26.775c0-0.006,0-0.012,0-0.018v-2.572
		V20.91l9.11,4.566l-9.11,4.565V26.775z"/>
	<path d="M112.858,34.656v-5.785c0-0.633-0.513-1.147-1.146-1.147h-4.576c-0.633,0-1.145,0.514-1.145,1.147v0.65
		c-0.238,2.103-1.711,3.793-3.692,4.346V11.253c0-2.896-2.356-5.269-5.244-5.269H75.578V5.478c0-2.242-1.836-4.082-4.071-4.082
		H-4.627c-2.236,0-4.072,1.84-4.072,4.082v44.027c0,2.242,1.836,4.083,4.072,4.083H1.6v12.111h-5.722
		c-0.632,0-1.144,0.513-1.145,1.146c0,6.935,5.606,12.551,12.525,12.551h89.382c6.92,0,12.524-5.616,12.524-12.551
		c0-0.634-0.512-1.146-1.144-1.146H102.3V49.183c1.98,0.554,3.453,2.248,3.692,4.351v0.574c0,0.633,0.512,1.146,1.145,1.146
		c0.035,0.002,0.071,0.002,0.106,0h4.47c0.633,0,1.146-0.514,1.146-1.146v-6.569c3.099-0.505,5.488-3.193,5.488-6.438
		C118.347,37.855,115.957,35.161,112.858,34.656z M75.578,8.278h21.478c1.656,0,2.956,1.307,2.956,2.976v22.829h-2.969h-1.609
		V14.049c0-0.633-0.512-1.147-1.144-1.147H75.578V8.278z M75.578,49.505V15.197h17.566v18.886h-1.206H91.04h-1.792H84.76
		c-2.022,0-3.683,1.602-3.813,3.598h-1.573c-1.111,0-2.043,0.935-2.043,2.048v3.598c0,1.114,0.932,2.048,2.043,2.048h1.573
		c0.1,1.521,1.085,2.806,2.45,3.333L81.04,58.784H10.754v-5.196h60.752C73.742,53.588,75.578,51.746,75.578,49.505z M3.889,65.699
		V53.588h4.577v6.344c0,0.634,0.512,1.147,1.145,1.147h71.743c0.095,0.026,0.195,0.04,0.301,0.04h6.052
		c0.103,0,0.207-0.014,0.313-0.04h6.271c0.632,0,1.144-0.514,1.144-1.147V48.973h1.609h2.969v16.727H3.889z M61.104,67.993v1.899
		c0,1.091-0.8,1.895-1.796,1.895H44.592c-0.996,0-1.797-0.804-1.797-1.895v-1.899H61.104z M85.648,48.985h3.733l-2.289,9.8h-3.733
		L85.648,48.985z M83.208,45.128v-0.901v-5.399v-0.9c0-0.88,0.674-1.55,1.552-1.55h4.488h0.647v10.301h-0.647H84.76
		C83.882,46.678,83.208,46.007,83.208,45.128z M93.145,58.785h-3.731l2.297-9.813h0.229h1.206V58.785z M80.92,39.975v3.105h-1.301
		v-3.105H80.92z M-6.411,5.478c0-1.01,0.776-1.788,1.784-1.788h76.133c1.009,0,1.783,0.778,1.783,1.788v5.094h-79.7V5.478z
		 M-4.627,51.293c-1.008,0-1.784-0.777-1.784-1.787v-36.64h79.7v36.64c0,1.01-0.774,1.787-1.783,1.787H-4.627z M106.648,67.993
		c-0.587,5.127-4.724,9.108-10.008,9.108H7.259c-5.285,0-9.421-3.981-10.009-9.108h43.257v1.899c0,2.283,1.821,4.189,4.085,4.189
		h14.715c2.265,0,4.085-1.906,4.085-4.189v-1.899H106.648z M105.991,48.743c-1.331-1.264-3.107-2.065-5.078-2.065h-3.87h-4.859
		V36.377h4.859h3.87c1.971,0,3.747-0.802,5.078-2.065V48.743z M110.569,52.96h-2.231V30.019h2.231V52.96z M112.965,44.877V41.1
		v-3.777c1.721,0.541,3.094,1.866,3.094,3.777S114.686,44.336,112.965,44.877z"/>
	<path d="M-2.656,5.344c-0.808-0.001-1.464,0.655-1.466,1.465c-0.001,0.811,0.653,1.468,1.462,1.47c0.001,0,0.002,0,0.004,0
		c0.809-0.001,1.463-0.659,1.462-1.47C-1.195,6-1.849,5.345-2.656,5.344z"/>
	<path d="M3.2,5.344C2.392,5.343,1.735,5.999,1.733,6.809c-0.001,0.811,0.654,1.468,1.462,1.47c0.001,0,0.002,0,0.004,0
		c0.809-0.001,1.463-0.659,1.462-1.47C4.661,6,4.006,5.345,3.2,5.344z"/>
</g>
</svg>
