<?xml version="1.0" encoding="utf-8"?>
<!-- Generator: Adobe Illustrator 16.0.2, SVG Export Plug-In . SVG Version: 6.00 Build 0)  -->
<!DOCTYPE svg PUBLIC "-//W3C//DTD SVG 1.1//EN" "http://www.w3.org/Graphics/SVG/1.1/DTD/svg11.dtd">
<svg version="1.1" id="Layer_1" xmlns="http://www.w3.org/2000/svg" xmlns:xlink="http://www.w3.org/1999/xlink" x="0px" y="0px"
	 width="103px" height="102px" viewBox="6.425 -11.057 103 102" enable-background="new 6.425 -11.057 103 102"
	 xml:space="preserve">
<g>
	<path fill="#F68645" d="M65.13,67.592c-1.067,1.437-2.391,2.666-3.864,3.597c-1.917,2.477-4.3,3.837-6.733,3.837l-0.279-0.007
		l-0.167,0.007c-2.31,0-4.597-1.242-6.467-3.503c-1.702-0.964-3.211-2.305-4.418-3.913l-9.659,1.471l-2.921,15.774
		c5.632,2.152,14.16,3.427,23.128,3.427c9.243,0,17.936-1.336,23.558-3.592l-2.843-15.617L65.13,67.592z"/>
	<path fill="#FFFFFF" d="M58.02,42.514c-1.923-1.208-5.256-1.354-7.447-0.363c-3.349,1.223-5.28,6.48-4.581,12.266
		c0.718,5.977,4.167,10.838,7.691,10.838l0.164-0.004l0.284,0.004c3.521,0.001,6.971-4.861,7.688-10.838
		C62.449,49.184,60.852,44.176,58.02,42.514z"/>
	<path fill="#FFFFFF" d="M25.587,53.552c-1.127-0.708-3.082-0.785-4.362-0.211c-1.714,0.629-3.137,3.523-2.678,7.333
		c0.431,3.576,2.444,6.485,4.487,6.485h0.19h0.092c2.045,0,4.059-2.909,4.488-6.485C28.235,57.107,27.015,54.393,25.587,53.552z"/>
	<path fill="#FFFFFF" d="M87.349,53.552c-1.129-0.704-3.078-0.787-4.363-0.211c-1.715,0.629-3.138,3.523-2.678,7.333
		c0.43,3.576,2.445,6.485,4.489,6.485h0.189h0.093c2.042,0,4.058-2.909,4.488-6.485C89.994,57.107,88.774,54.393,87.349,53.552z"/>
	<path fill="#F9BA48" d="M27.981,72.93c-1.307,1.662-2.9,2.543-4.603,2.465c-1.487,0.075-3.05-0.728-4.325-2.25
		c-1.026-0.59-1.943-1.39-2.688-2.349l-5.628,0.856L9.002,81.02c3.478,1.278,8.645,2.029,14.078,2.029
		c1.787,0,3.524-0.098,5.216-0.253l2.219-11.977l-0.202-0.031C29.656,71.636,28.861,72.366,27.981,72.93z"/>
	<path fill="#F9BA48" d="M92.076,70.788c-0.657,0.846-1.452,1.576-2.335,2.142c-1.304,1.662-2.901,2.543-4.6,2.465
		c-1.49,0.075-3.054-0.728-4.326-2.25c-1.027-0.59-1.942-1.392-2.688-2.349l-0.628,0.095l2.168,11.905
		c1.681,0.153,3.404,0.253,5.174,0.253c5.605,0,10.873-0.788,14.346-2.128L97.5,71.647L92.076,70.788z"/>
	<path fill="#FFFFFF" d="M20.163,25.123h2.613l0,8.91l3.946-8.91h24.386l2.864,5.964l1.95-5.964h25.686l4.048,9.023l0.027-9.023
		h1.501c2.276,0,4.127-1.851,4.127-4.126V10.476c0-3.313-2.696-6.008-6.01-6.008H22.486c-3.314,0-6.008,2.695-6.008,6.008v10.96
		C16.478,23.468,18.129,25.123,20.163,25.123z M67.599,19.912H39.252c-0.421,0-0.76-0.34-0.76-0.76c0-0.418,0.338-0.758,0.76-0.758
		h28.346c0.421,0,0.762,0.34,0.762,0.758C68.36,19.571,68.02,19.912,67.599,19.912z M39.252,8.936h28.346
		c0.421,0,0.762,0.34,0.762,0.76c0,0.417-0.341,0.758-0.762,0.758H39.252c-0.421,0-0.76-0.34-0.76-0.758
		C38.493,9.276,38.831,8.936,39.252,8.936z M30.267,13.666h46.316c0.421,0,0.76,0.34,0.76,0.76c0,0.419-0.339,0.759-0.76,0.759
		H30.267c-0.417,0-0.76-0.34-0.76-0.759C29.507,14.006,29.847,13.666,30.267,13.666z"/>
	<path d="M65.536-11.057c-10.37,0-19.902,3.622-27.421,9.656l5.221,0.009c6.396-4.165,14.016-6.595,22.2-6.595
		c22.506,0,40.816,18.31,40.816,40.814c0,10.756-4.188,20.544-11.01,27.843c0.001,0.723-0.025,1.455-0.116,2.202
		c-0.107,0.891-0.277,1.745-0.502,2.562l0.127,0.021c8.94-8.04,14.573-19.688,14.573-32.626
		C109.425,8.629,89.736-11.057,65.536-11.057z"/>
	<path d="M26.77,51.605c-0.961-0.606-2.227-0.938-3.563-0.938c-1.045,0-2.055,0.208-2.844,0.564
		c-2.913,1.062-4.632,5.148-4.082,9.715c0.582,4.839,3.483,8.489,6.838,8.489h0.006l0.188,0.005c3.267,0,6.172-3.652,6.754-8.494
		C30.566,56.812,29.229,53.051,26.77,51.605z M27.804,60.674c-0.429,3.576-2.443,6.485-4.488,6.485h-0.092h-0.19
		c-2.043,0-4.056-2.909-4.487-6.485c-0.458-3.81,0.964-6.704,2.678-7.333c1.28-0.574,3.234-0.497,4.362,0.211
		C27.015,54.393,28.235,57.107,27.804,60.674z"/>
	<path d="M82.126,51.231c-2.914,1.062-4.633,5.148-4.082,9.715c0.585,4.839,3.483,8.489,6.84,8.489h0.007l0.188,0.005
		c3.267,0,6.166-3.652,6.753-8.494c0.496-4.135-0.841-7.896-3.3-9.341C86.815,50.525,83.92,50.418,82.126,51.231z M89.567,60.674
		c-0.431,3.576-2.446,6.485-4.488,6.485h-0.093h-0.189c-2.044,0-4.06-2.909-4.489-6.485c-0.46-3.81,0.963-6.704,2.678-7.333
		c1.285-0.576,3.234-0.493,4.363,0.211C88.774,54.393,89.994,57.107,89.567,60.674z"/>
	<path d="M91.011,68.308l-0.406,0.616c-0.583,0.889-1.356,1.641-2.233,2.172l-0.19,0.115l-0.133,0.178
		c-0.847,1.137-1.872,1.768-2.906,1.729c-0.846,0.055-1.854-0.521-2.688-1.569l-0.146-0.184L82.1,71.252
		c-0.99-0.534-1.858-1.337-2.507-2.315l-0.399-0.608l-2.101,0.321l-0.349-1.907l-12.864-2.04l-0.472,0.716
		c-0.981,1.487-2.274,2.743-3.74,3.633l-0.223,0.133l-0.155,0.208c-1.43,1.916-3.121,2.971-4.757,2.971l-0.279-0.003l-0.167,0.003
		c-1.551,0-3.169-0.96-4.554-2.706l-0.169-0.215l-0.241-0.127c-1.66-0.9-3.113-2.241-4.197-3.878l-0.47-0.708l-13.184,2.003
		l-0.342,1.847l-1.679-0.271l-0.404,0.616c-0.588,0.891-1.361,1.643-2.239,2.172l-0.189,0.115l-0.133,0.178
		c-0.847,1.137-1.872,1.768-2.908,1.729c-0.886,0.055-1.85-0.521-2.687-1.569l-0.145-0.184l-0.207-0.112
		c-0.988-0.534-1.854-1.337-2.505-2.315l-0.402-0.608l-8.641,1.314l-2.366,12.78l0.837,0.36c3.776,1.619,9.543,2.548,15.819,2.548
		c1.633,0,3.225-0.085,4.787-0.211l-0.253,1.361l0.978,0.42c5.992,2.567,15.162,4.042,25.159,4.042
		c10.142,0,19.712-1.585,25.604-4.235l0.946-0.428l-0.211-1.159c1.551,0.124,3.131,0.21,4.75,0.21
		c6.371,0,12.388-0.997,16.101-2.671l0.811-0.367l-2.3-12.645L91.011,68.308z M28.296,82.796c-1.691,0.155-3.429,0.253-5.216,0.253
		c-5.433,0-10.601-0.751-14.078-2.029l1.735-9.367l5.628-0.856c0.745,0.959,1.663,1.759,2.688,2.349
		c1.274,1.522,2.838,2.325,4.325,2.25c1.703,0.078,3.296-0.803,4.603-2.465c0.879-0.563,1.675-1.294,2.332-2.142l0.202,0.031
		L28.296,82.796z M53.75,88.281c-8.969,0-17.497-1.274-23.128-3.427l2.921-15.774l9.659-1.471c1.208,1.608,2.716,2.949,4.418,3.913
		c1.87,2.261,4.157,3.503,6.467,3.503l0.167-0.007l0.279,0.007c2.433,0,4.816-1.36,6.733-3.837c1.474-0.931,2.797-2.16,3.864-3.597
		l9.335,1.48l2.843,15.617C71.686,86.945,62.993,88.281,53.75,88.281z M84.841,83.049c-1.77,0-3.493-0.1-5.174-0.253l-2.168-11.905
		l0.628-0.095c0.746,0.957,1.661,1.759,2.688,2.349c1.272,1.522,2.836,2.325,4.326,2.25c1.698,0.078,3.296-0.803,4.6-2.465
		c0.883-0.565,1.678-1.296,2.335-2.142l5.424,0.859l1.687,9.273C95.714,82.261,90.446,83.049,84.841,83.049z"/>
	<path d="M53.955,38.816c-1.609,0-3.158,0.313-4.384,0.871c-4.458,1.626-7.076,7.956-6.223,15.047
		c0.905,7.514,5.348,13.179,10.335,13.179l0.164-0.006l0.284,0.006c4.985,0,9.428-5.665,10.332-13.179
		c0.773-6.437-1.272-12.271-5.063-14.494C57.936,39.321,56.001,38.816,53.955,38.816z M61.817,54.416
		c-0.717,5.977-4.167,10.839-7.688,10.838l-0.284-0.004l-0.164,0.004c-3.524,0-6.973-4.861-7.691-10.838
		c-0.699-5.785,1.232-11.043,4.581-12.266c2.191-0.99,5.523-0.845,7.447,0.363C60.852,44.176,62.449,49.184,61.817,54.416z"/>
	<path d="M20.117,27.782l0.003,18.821l8.335-18.821h20.979l5.011,10.427l3.407-10.427h22.037l8.395,18.708l0.056-18.806
		c3.194-0.547,5.632-3.338,5.632-6.688V10.476c0-4.779-3.888-8.669-8.666-8.669H22.486c-4.78,0-8.668,3.891-8.668,8.669v10.96
		C13.818,24.92,16.64,27.757,20.117,27.782z M16.478,10.476c0-3.313,2.694-6.008,6.008-6.008h62.816c3.313,0,6.01,2.695,6.01,6.008
		v10.521c0,2.275-1.851,4.126-4.127,4.126h-1.501l-0.027,9.023l-4.048-9.023H55.923l-1.95,5.964l-2.864-5.964H26.723l-3.946,8.91
		l0-8.91h-2.613c-2.034,0-3.686-1.654-3.686-3.686V10.476z"/>
	<path d="M39.252,10.454h28.346c0.421,0,0.762-0.341,0.762-0.758c0-0.42-0.341-0.76-0.762-0.76H39.252c-0.421,0-0.76,0.34-0.76,0.76
		C38.493,10.114,38.831,10.454,39.252,10.454z"/>
	<path d="M67.599,18.394H39.252c-0.421,0-0.76,0.34-0.76,0.758c0,0.419,0.338,0.76,0.76,0.76h28.346c0.421,0,0.762-0.34,0.762-0.76
		C68.36,18.733,68.02,18.394,67.599,18.394z"/>
	<path d="M30.267,15.184h46.316c0.421,0,0.76-0.34,0.76-0.759c0-0.419-0.339-0.76-0.76-0.76H30.267c-0.42,0-0.76,0.34-0.76,0.76
		C29.507,14.844,29.849,15.184,30.267,15.184z"/>
</g>
</svg>
