<?xml version="1.0" encoding="utf-8"?>
<!-- Generator: Adobe Illustrator 16.0.2, SVG Export Plug-In . SVG Version: 6.00 Build 0)  -->
<!DOCTYPE svg PUBLIC "-//W3C//DTD SVG 1.1//EN" "http://www.w3.org/Graphics/SVG/1.1/DTD/svg11.dtd">
<svg version="1.1" id="Layer_1" xmlns="http://www.w3.org/2000/svg" xmlns:xlink="http://www.w3.org/1999/xlink" x="0px" y="0px"
	 width="78px" height="78px" viewBox="499.861 131.262 78 78" enable-background="new 499.861 131.262 78 78" xml:space="preserve">
<g>
	<g>
		<path fill="#F9BA48" d="M528.797,204.229h-17.613v-1.259c0-2.775-2.257-5.032-5.032-5.032h-1.258v-33.967h30.193v33.967h-1.259
			c-2.775,0-5.031,2.257-5.031,5.032V204.229L528.797,204.229z"/>
		<path fill="#231F20" d="M548.926,166.486c2.08,0,3.773-1.692,3.773-3.773v-27.678c0.001-2.08-1.693-3.773-3.773-3.773h-45.29
			c-2.081,0-3.774,1.693-3.774,3.773v27.678v46.549h40.258v-42.775H548.926z M550.184,143.842h-47.807v-3.773h47.807V143.842z
			 M503.636,133.778h45.29c0.694,0,1.258,0.564,1.258,1.257v2.517h-47.807v-2.517C502.377,134.343,502.94,133.778,503.636,133.778z
			 M502.377,146.358h47.807v16.354c0,0.693-0.563,1.259-1.258,1.259h-45.29c-0.694,0-1.259-0.565-1.259-1.259V146.358
			L502.377,146.358z M528.797,174.035c0,4.856-3.951,8.807-8.807,8.807s-8.807-3.95-8.807-8.807c0-3.101,1.647-5.959,4.303-7.549
			h9.008C527.149,168.076,528.797,170.935,528.797,174.035z M537.604,206.745h-35.227v-40.489c0.396,0.141,0.815,0.23,1.258,0.23
			h7.954c-1.84,2.049-2.921,4.716-2.921,7.549c0,6.242,5.078,11.323,11.322,11.323c6.243,0,11.322-5.08,11.322-11.323
			c0-2.833-1.082-5.5-2.921-7.549h9.211L537.604,206.745L537.604,206.745z"/>
		<path fill="#231F20" d="M537.604,161.455c0.889,0,1.753-0.249,2.52-0.698c0.743,0.433,1.593,0.698,2.512,0.698
			c2.775,0,5.033-2.257,5.033-5.032s-2.258-5.033-5.033-5.033c-0.919,0-1.769,0.266-2.512,0.699
			c-0.766-0.449-1.631-0.699-2.52-0.699c-2.775,0-5.032,2.258-5.032,5.033S534.828,161.455,537.604,161.455z M545.151,156.423
			c0,1.388-1.129,2.516-2.517,2.516s-2.516-1.128-2.516-2.516s1.128-2.517,2.516-2.517S545.151,155.035,545.151,156.423z
			 M537.604,153.906c0.22,0,0.435,0.041,0.646,0.1c-0.4,0.72-0.646,1.536-0.646,2.417s0.246,1.697,0.646,2.417
			c-0.212,0.059-0.427,0.099-0.646,0.099c-1.388,0-2.517-1.128-2.517-2.516S536.216,153.906,537.604,153.906z"/>
		<path fill="#231F20" d="M560.248,174.035c-9.711,0-17.613,7.9-17.613,17.613c0,9.712,7.9,17.612,17.613,17.612
			s17.613-7.9,17.613-17.612C577.861,181.936,569.96,174.035,560.248,174.035z M560.248,206.745
			c-8.325,0-15.097-6.772-15.097-15.097c0-8.325,6.771-15.097,15.097-15.097s15.097,6.771,15.097,15.097
			C575.345,199.973,568.573,206.745,560.248,206.745z"/>
		<path fill="#231F20" d="M562.136,181.583h-0.63v-2.516h-2.517v2.516h-0.629c-3.121,0-5.661,2.54-5.661,5.662
			c0,3.121,2.54,5.661,5.661,5.661h3.774c1.734,0,3.145,1.411,3.145,3.146c0,1.733-1.41,3.145-3.145,3.145h-3.774
			c-1.734,0-3.145-1.411-3.145-3.145v-0.629h-2.517v0.629c0,3.121,2.54,5.661,5.661,5.661h0.629v2.517h2.517v-2.517h0.63
			c3.12,0,5.66-2.54,5.66-5.661c0-3.122-2.54-5.662-5.66-5.662h-3.775c-1.734,0-3.145-1.411-3.145-3.145
			c0-1.734,1.41-3.146,3.145-3.146h3.775c1.735,0,3.146,1.411,3.146,3.146v0.629h2.515v-0.629
			C567.796,184.123,565.256,181.583,562.136,181.583z"/>
		<polygon fill="#231F20" points="574.088,168.165 574.088,141.745 571.571,141.745 571.571,168.165 570.061,166.151 
			568.049,167.661 572.829,174.035 577.609,167.661 575.597,166.151 		"/>
		<rect x="571.571" y="135.455" fill="#231F20" width="2.517" height="3.774"/>
		<polygon fill="#231F20" points="561.506,160.615 561.506,137.971 558.99,137.971 558.99,160.615 557.48,158.604 555.467,160.112 
			560.248,166.488 565.029,160.112 563.016,158.604 		"/>
		<rect x="558.99" y="131.681" fill="#231F20" width="2.516" height="3.774"/>
	</g>
</g>
</svg>
