<?xml version="1.0" encoding="utf-8"?>
<!-- Generator: Adobe Illustrator 16.0.2, SVG Export Plug-In . SVG Version: 6.00 Build 0)  -->
<!DOCTYPE svg PUBLIC "-//W3C//DTD SVG 1.1//EN" "http://www.w3.org/Graphics/SVG/1.1/DTD/svg11.dtd">
<svg version="1.1" id="Layer_1" xmlns="http://www.w3.org/2000/svg" xmlns:xlink="http://www.w3.org/1999/xlink" x="0px" y="0px"
	 width="96px" height="93px" viewBox="490.043 123.743 96 93" enable-background="new 490.043 123.743 96 93" xml:space="preserve">
<g>
	<path fill="#FFFFFF" d="M533.244,173.45c2.646,0,4.8-2.158,4.8-4.811s-2.153-4.811-4.8-4.811s-4.8,2.158-4.8,4.811
		S530.598,173.45,533.244,173.45z"/>
	<polygon fill="#F68645" points="493.243,213.536 498.043,213.536 498.043,211.935 498.043,170.296 498.043,168.595 
		493.243,168.595 	"/>
	<path fill="#EDBB54" d="M557.245,149.398c6.175,0,11.2-5.035,11.2-11.225s-5.025-11.224-11.2-11.224s-11.201,5.034-11.201,11.224
		S551.07,149.398,557.245,149.398z M557.245,130.157c4.411,0,8,3.596,8,8.017s-3.589,8.018-8,8.018
		c-4.412,0-8.001-3.597-8.001-8.018S552.833,130.157,557.245,130.157z"/>
	<path fill="#FFFFFF" d="M557.245,142.984c2.646,0,4.8-2.158,4.8-4.811s-2.153-4.811-4.8-4.811c-2.647,0-4.801,2.158-4.801,4.811
		S554.598,142.984,557.245,142.984z"/>
	<path fill="#F68645" d="M527.115,178.018c0.841,0.133,1.673,0.198,2.478,0.196h6.24c0.524,0,1.049,0.035,1.568,0.093
		c0.202,0.022,0.399,0.058,0.6,0.089c0.2,0.03,0.402,0.05,0.601,0.088c3.618-1.972,5.843-5.697,5.843-9.844
		c0-6.189-5.025-11.225-11.2-11.225s-11.2,5.035-11.2,11.225C522.044,172.448,523.934,175.931,527.115,178.018z M533.244,160.622
		c4.411,0,8,3.597,8,8.018s-3.589,8.018-8,8.018s-8-3.597-8-8.018S528.833,160.622,533.244,160.622z"/>
	<path fill="#FFFFFF" d="M573.988,182.403l-13.79,8.45c-3.702,1.976-10.743,2.015-18.253,1.875c-0.291-0.005-0.576-0.01-0.852-0.015
		c-0.879,0.032-1.575,0.001-1.939-0.021h-15.51c-4.801,0-4.801,2.413-4.801,3.206c0,0.886-0.715,1.604-1.6,1.604
		s-1.601-0.718-1.601-1.604c0-4.016,2.991-6.413,8.001-6.413h15.546c0.523,0,1.12,0.008,1.773,0.02
		c2.013-0.088,3.994-0.544,4.422-1.285c0.226-0.393-0.04-1.229-0.714-2.233c-1.419-2.121-3.605-3.604-6.123-4.23l-0.103-0.024
		c-0.854-0.206-1.734-0.31-2.615-0.31h-6.24c-0.552,0-1.099-0.027-1.644-0.074c-0.016-0.002-0.032-0.005-0.051-0.006
		c-0.536-0.047-1.066-0.119-1.592-0.209c-0.016-0.003-0.03-0.003-0.046-0.006l-0.305-0.054l-0.023-0.015
		c-2.733-0.525-5.295-1.622-7.433-3.238c-4.925-3.72-13.707-4.294-17.255-4.368v35.274h20.801c3.103,0,6.233-0.237,9.304-0.705
		l21.097-3.196c0.563,0,1.144-0.065,1.726-0.195c1.426-0.207,2.663-0.845,3.734-1.873l0.123-0.107l24.294-18.957
		c0.584-0.499,0.697-1.366,0.254-1.982C581.25,179.86,580.586,178.929,573.988,182.403z"/>
	<path d="M572.41,179.617l-13.797,8.453c-2.045,1.091-6.241,1.417-10.313,1.486c0.723-1.509,0.399-3.31-0.967-5.355
		c-1.265-1.893-2.988-3.396-4.988-4.424c3.314-2.7,5.299-6.721,5.299-11.138c0-7.956-6.459-14.431-14.4-14.431
		s-14.4,6.475-14.4,14.431c0,2.374,0.589,4.643,1.644,6.664c-0.021-0.015-0.043-0.027-0.063-0.043
		c-5.744-4.341-15.34-4.953-19.179-5.019v-4.854h-11.202v51.355h11.2v-4.811h20.801c3.264,0,6.558-0.25,9.786-0.74l20.741-3.161
		c0.756-0.009,1.521-0.099,2.201-0.253c1.911-0.269,3.736-1.183,5.284-2.646l24.252-18.928l0.037-0.029
		c1.889-1.567,2.254-4.351,0.831-6.334C582.372,175.926,579.528,175.863,572.41,179.617z M498.043,170.296v41.639v1.602h-4.8
		v-44.941h4.8V170.296z M533.244,157.415c6.175,0,11.2,5.035,11.2,11.225c0,4.146-2.225,7.872-5.843,9.844
		c-0.198-0.038-0.4-0.058-0.601-0.088c-0.2-0.031-0.397-0.066-0.6-0.089c-0.52-0.058-1.044-0.093-1.568-0.093h-6.24
		c-0.805,0.002-1.637-0.063-2.478-0.196c-3.182-2.087-5.071-5.569-5.071-9.378C522.044,162.45,527.069,157.415,533.244,157.415z
		 M582.321,183.693l-24.294,18.957l-0.123,0.107c-1.071,1.028-2.309,1.666-3.734,1.873c-0.582,0.13-1.163,0.195-1.726,0.195
		l-21.097,3.196c-3.07,0.468-6.201,0.705-9.304,0.705h-20.801v-35.274c3.548,0.074,12.33,0.648,17.255,4.368
		c2.138,1.616,4.699,2.713,7.433,3.238l0.023,0.015l0.305,0.054c0.016,0.003,0.03,0.003,0.046,0.006
		c0.525,0.09,1.056,0.162,1.592,0.209c0.019,0.001,0.035,0.004,0.051,0.006c0.545,0.047,1.092,0.074,1.644,0.074h6.24
		c0.881,0,1.761,0.104,2.615,0.31l0.103,0.024c2.518,0.626,4.704,2.109,6.123,4.23c0.674,1.005,0.939,1.841,0.714,2.233
		c-0.428,0.741-2.409,1.197-4.422,1.285c-0.653-0.012-1.25-0.02-1.773-0.02h-15.546c-5.01,0-8.001,2.397-8.001,6.413
		c0,0.886,0.716,1.604,1.601,1.604s1.6-0.718,1.6-1.604c0-0.793,0-3.206,4.801-3.206h15.51c0.364,0.021,1.061,0.053,1.939,0.021
		c0.275,0.005,0.561,0.01,0.852,0.015c7.51,0.14,14.551,0.101,18.253-1.875l13.79-8.45c6.598-3.475,7.262-2.543,8.587-0.692
		C583.019,182.327,582.905,183.194,582.321,183.693z"/>
	<path d="M533.244,176.657c4.411,0,8-3.597,8-8.018s-3.589-8.018-8-8.018s-8,3.597-8,8.018S528.833,176.657,533.244,176.657z
		 M533.244,163.829c2.646,0,4.8,2.158,4.8,4.811s-2.153,4.811-4.8,4.811s-4.8-2.158-4.8-4.811S530.598,163.829,533.244,163.829z"/>
	<path d="M557.245,152.605c7.94,0,14.4-6.475,14.4-14.432c0-7.956-6.46-14.431-14.4-14.431c-7.941,0-14.401,6.475-14.401,14.431
		C542.844,146.131,549.304,152.605,557.245,152.605z M557.245,126.95c6.175,0,11.2,5.034,11.2,11.224s-5.025,11.225-11.2,11.225
		s-11.201-5.035-11.201-11.225S551.07,126.95,557.245,126.95z"/>
	<path d="M557.245,146.191c4.411,0,8-3.597,8-8.018s-3.589-8.017-8-8.017c-4.412,0-8.001,3.596-8.001,8.017
		S552.833,146.191,557.245,146.191z M557.245,133.363c2.646,0,4.8,2.158,4.8,4.811s-2.153,4.811-4.8,4.811
		c-2.647,0-4.801-2.158-4.801-4.811S554.598,133.363,557.245,133.363z"/>
</g>
</svg>
