<?xml version="1.0" encoding="utf-8"?>
<!-- Generator: Adobe Illustrator 16.0.2, SVG Export Plug-In . SVG Version: 6.00 Build 0)  -->
<!DOCTYPE svg PUBLIC "-//W3C//DTD SVG 1.1//EN" "http://www.w3.org/Graphics/SVG/1.1/DTD/svg11.dtd">
<svg version="1.1" id="Layer_1" xmlns="http://www.w3.org/2000/svg" xmlns:xlink="http://www.w3.org/1999/xlink" x="0px" y="0px"
	 width="91px" height="94.001px" viewBox="493.199 123.104 91 94.001" enable-background="new 493.199 123.104 91 94.001"
	 xml:space="preserve">
<g>
	<path fill="#F68645" d="M522.006,152.509c-0.521-0.097-1.053-0.146-1.583-0.146h-1.405l-4.415,4.347
		c-0.743,0.731-1.947,0.731-2.69,0l-4.415-4.347h-1.405c-0.53,0-1.063,0.049-1.583,0.146c-3.447,0.639-6.182,3.352-6.808,6.752
		l-0.322,1.752h31.757l-0.322-1.752C528.188,155.86,525.452,153.147,522.006,152.509z"/>
	<path fill="#FFFFFF" d="M564.434,180.624l0.543-1.426h-3.035c-0.805,0-1.549,0.318-2.1,0.896c-0.548,0.577-0.822,1.33-0.771,2.119
		l0.067,1.004C562.816,182.612,564.16,181.008,564.434,180.624z"/>
	<path fill="#EDBB54" d="M513.55,128.275l0.544-1.425h-3.036c-0.804,0-1.549,0.317-2.099,0.896c-0.549,0.577-0.822,1.33-0.771,2.119
		l0.066,1.003C511.933,130.264,513.276,128.659,513.55,128.275z"/>
	<path fill="#FFFFFF" d="M508.841,139.706c0.099,1.492,0.952,2.813,2.283,3.534c1.335,0.723,2.93,0.723,4.266,0
		c1.332-0.721,2.186-2.042,2.284-3.534l0.418-6.313c-1.021-0.276-1.79-0.549-2.332-0.825c-0.28-0.142-0.536-0.293-0.769-0.452
		c-1.3,0.995-3.359,2.05-6.487,2.501L508.841,139.706z"/>
	<path fill="#FFFFFF" d="M518.33,129.557c-0.024-0.585-0.23-1.138-0.595-1.602l-0.444,1.168c0.061,0.036,0.13,0.075,0.215,0.118
		C517.619,129.299,517.861,129.406,518.33,129.557z"/>
	<path fill="#FFFFFF" d="M568.174,181.471c0.062,0.036,0.131,0.075,0.216,0.119c0.112,0.057,0.354,0.164,0.823,0.314
		c-0.023-0.584-0.23-1.138-0.595-1.602L568.174,181.471z"/>
	<path fill="#EDBB54" d="M572.89,204.857c-0.521-0.097-1.054-0.146-1.583-0.146H569.9l-4.415,4.347
		c-0.357,0.351-0.84,0.549-1.346,0.549c-0.504,0-0.988-0.198-1.345-0.549l-4.415-4.347h-1.405c-0.529,0-1.062,0.05-1.584,0.146
		c-3.445,0.639-6.182,3.352-6.807,6.751l-0.322,1.752h31.757l-0.323-1.752C579.07,208.209,576.335,205.496,572.89,204.857z"/>
	<path fill="#FFFFFF" d="M565.874,184.465c-1.3,0.995-3.359,2.05-6.488,2.501l0.338,5.089c0.099,1.492,0.953,2.813,2.283,3.534
		c1.336,0.723,2.931,0.723,4.267,0c1.331-0.721,2.186-2.042,2.283-3.534l0.418-6.313c-1.02-0.276-1.789-0.549-2.332-0.824
		C566.362,184.774,566.107,184.624,565.874,184.465z"/>
	<path d="M504.587,133.06l0.457,6.891c0.184,2.774,1.771,5.231,4.246,6.571c1.242,0.673,2.604,1.009,3.967,1.009
		s2.726-0.336,3.967-1.008c2.476-1.341,4.063-3.798,4.247-6.572l0.521-7.874l0.13-1.967c0.12-1.808-0.533-3.603-1.791-4.925
		c-1.258-1.321-3.034-2.08-4.875-2.08h-4.398c-1.84,0-3.616,0.759-4.875,2.08c-1.258,1.322-1.91,3.117-1.791,4.925L504.587,133.06z
		 M517.735,127.955c0.364,0.464,0.57,1.017,0.595,1.602c-0.469-0.15-0.711-0.258-0.824-0.315c-0.085-0.043-0.154-0.082-0.215-0.118
		L517.735,127.955z M515.76,132.568c0.542,0.276,1.312,0.549,2.332,0.825l-0.418,6.313c-0.099,1.492-0.952,2.813-2.284,3.534
		c-1.336,0.723-2.931,0.723-4.266,0c-1.331-0.721-2.185-2.042-2.283-3.534l-0.337-5.089c3.128-0.451,5.188-1.506,6.487-2.501
		C515.224,132.275,515.479,132.427,515.76,132.568z M508.959,127.746c0.55-0.578,1.295-0.896,2.099-0.896h3.036l-0.544,1.425
		c-0.273,0.384-1.617,1.988-5.295,2.593l-0.066-1.003C508.137,129.076,508.41,128.323,508.959,127.746z"/>
	<path d="M532.873,164.085c0.361-0.426,0.513-0.987,0.412-1.533l-0.729-3.959l0,0c-0.905-4.917-4.862-8.841-9.847-9.764
		c-0.752-0.141-1.521-0.211-2.287-0.211h-2.194c-0.504,0-0.988,0.197-1.345,0.549l-3.627,3.57l-3.627-3.57
		c-0.356-0.352-0.841-0.549-1.345-0.549h-2.193c-0.767,0-1.536,0.071-2.288,0.211c-4.984,0.923-8.941,4.847-9.846,9.764
		l-0.729,3.959c-0.101,0.546,0.05,1.107,0.412,1.533c0.361,0.426,0.896,0.673,1.459,0.673h36.313
		C531.978,164.758,532.512,164.511,532.873,164.085z M497.379,161.013l0.322-1.752c0.626-3.4,3.36-6.113,6.808-6.752
		c0.52-0.097,1.053-0.146,1.583-0.146h1.405l4.415,4.347c0.743,0.731,1.947,0.731,2.69,0l4.415-4.347h1.405
		c0.53,0,1.063,0.049,1.583,0.146c3.446,0.639,6.182,3.352,6.808,6.752l0.322,1.752H497.379z"/>
	<path d="M566.339,175.453h-4.397c-1.84,0-3.618,0.758-4.876,2.08c-1.257,1.321-1.91,3.116-1.791,4.924l0.196,2.95l0.457,6.891
		c0.183,2.775,1.771,5.232,4.246,6.572c1.242,0.672,2.604,1.008,3.966,1.008c1.362,0,2.726-0.336,3.967-1.008
		c2.476-1.34,4.063-3.797,4.248-6.572l0.521-7.874l0.131-1.967c0.119-1.808-0.533-3.603-1.791-4.924
		C569.956,176.211,568.18,175.453,566.339,175.453z M559.071,182.213c-0.052-0.789,0.223-1.542,0.771-2.119
		c0.551-0.577,1.295-0.896,2.1-0.896h3.035l-0.543,1.426c-0.273,0.384-1.617,1.988-5.295,2.593L559.071,182.213z M568.557,192.055
		c-0.098,1.492-0.952,2.813-2.283,3.534c-1.336,0.723-2.931,0.723-4.267,0c-1.33-0.721-2.185-2.042-2.283-3.534l-0.338-5.089
		c3.129-0.451,5.188-1.506,6.488-2.501c0.233,0.159,0.488,0.31,0.769,0.452c0.543,0.275,1.313,0.548,2.332,0.824L568.557,192.055z
		 M568.39,181.59c-0.085-0.044-0.154-0.083-0.216-0.119l0.444-1.168c0.364,0.464,0.571,1.018,0.595,1.602
		C568.744,181.754,568.502,181.646,568.39,181.59z"/>
	<path d="M583.439,210.94c-0.904-4.916-4.861-8.84-9.846-9.764c-0.753-0.14-1.522-0.21-2.287-0.21h-2.193
		c-0.506,0-0.988,0.196-1.345,0.548l-3.629,3.57l-3.626-3.57c-0.357-0.352-0.841-0.548-1.346-0.548h-2.193
		c-0.765,0-1.534,0.07-2.287,0.21c-4.984,0.924-8.941,4.849-9.847,9.764l-0.728,3.959c-0.102,0.546,0.05,1.107,0.411,1.534
		c0.36,0.425,0.896,0.672,1.46,0.672h36.312c0.564,0,1.099-0.247,1.461-0.672c0.361-0.427,0.512-0.988,0.412-1.534L583.439,210.94z
		 M548.262,213.36l0.322-1.752c0.625-3.399,3.361-6.112,6.807-6.751c0.522-0.097,1.055-0.146,1.584-0.146h1.405l4.415,4.347
		c0.356,0.351,0.841,0.549,1.345,0.549c0.506,0,0.988-0.198,1.346-0.549l4.415-4.347h1.406c0.529,0,1.062,0.05,1.583,0.146
		c3.445,0.639,6.181,3.352,6.806,6.751l0.323,1.752H548.262z"/>
	<path d="M573.46,170.014c0.031,0.612,0.048,1.236,0.048,1.852c0,1.033,0.852,1.872,1.902,1.872c1.05,0,1.902-0.839,1.902-1.872
		c0-0.679-0.019-1.366-0.053-2.042c-0.054-1.033-0.95-1.831-1.997-1.775C574.214,168.101,573.407,168.98,573.46,170.014z"/>
	<path d="M539.571,136.156c14.938,0.958,27.729,10.745,32.269,24.96c0.257,0.8,1.007,1.312,1.814,1.312
		c0.189,0,0.382-0.028,0.571-0.087c1.003-0.311,1.56-1.361,1.243-2.348c-2.508-7.852-7.6-14.898-14.336-19.842
		c-6.284-4.612-13.646-7.264-21.423-7.74l1.125-1.107c0.742-0.731,0.742-1.917,0-2.648c-0.744-0.731-1.948-0.731-2.691,0
		l-4.441,4.372c-0.742,0.731-0.742,1.917,0,2.648l4.441,4.372c0.372,0.365,0.858,0.549,1.345,0.549c0.487,0,0.974-0.184,1.347-0.549
		c0.742-0.731,0.742-1.917,0-2.648L539.571,136.156z"/>
	<path d="M535.245,203.494c-0.743-0.731-1.948-0.731-2.69,0c-0.743,0.73-0.743,1.916,0,2.648l1.392,1.369
		c-18.551-1.603-33.15-16.977-33.15-35.646c0-1.034-0.852-1.873-1.902-1.873s-1.902,0.839-1.902,1.873
		c0,20.61,16.106,37.584,36.578,39.374l-1.015,0.999c-0.743,0.731-0.743,1.917,0,2.648c0.371,0.365,0.858,0.549,1.345,0.549
		s0.975-0.184,1.346-0.549l4.44-4.372c0.744-0.731,0.744-1.917,0-2.649L535.245,203.494z"/>
</g>
</svg>
