<?xml version="1.0" encoding="utf-8"?>
<!-- Generator: Adobe Illustrator 16.0.2, SVG Export Plug-In . SVG Version: 6.00 Build 0)  -->
<!DOCTYPE svg PUBLIC "-//W3C//DTD SVG 1.1//EN" "http://www.w3.org/Graphics/SVG/1.1/DTD/svg11.dtd">
<svg version="1.1" id="Layer_1" xmlns="http://www.w3.org/2000/svg" xmlns:xlink="http://www.w3.org/1999/xlink" x="0px" y="0px"
	 width="116px" height="114px" viewBox="480.838 112.769 116 114" enable-background="new 480.838 112.769 116 114"
	 xml:space="preserve">
<g>
	<g>
		<path fill="#F9BA48" d="M529.187,146.408c-4.149,0-7.523-3.353-7.523-7.476c0-4.122,3.374-7.476,7.523-7.476
			s7.522,3.354,7.522,7.476C536.709,143.056,533.336,146.408,529.187,146.408z"/>
		<path fill="#F68645" d="M549.874,138.933c-4.148,0-7.522-3.353-7.522-7.476s3.374-7.476,7.522-7.476
			c4.15,0,7.524,3.353,7.524,7.476S554.024,138.933,549.874,138.933z"/>
		<rect x="523.545" y="120.244" fill="#231F20" width="3.761" height="9.344"/>
		<rect x="531.067" y="118.375" fill="#231F20" width="3.762" height="11.213"/>
		<rect x="544.233" y="114.638" fill="#231F20" width="3.761" height="7.476"/>
		<rect x="551.756" y="112.769" fill="#231F20" width="3.762" height="9.345"/>
		<path fill="#231F20" d="M596.838,147.822l-2.236-8.89h-8.992v3.737h3.829l-11.714,16.007l-9.181-7.298l-9.336,9.277
			c-0.354-2.757-2.701-4.904-5.57-4.904h-0.521l7.522-13.082h-42.321l7.096,11.593l-6.311,5.227h-36.935v3.738h38.295l11.044-9.145
			l11.633,3.303l3.958,4.912c0.522,0.65,0.755,1.466,0.648,2.292c-0.106,0.825-0.533,1.557-1.206,2.058
			c-1.212,0.906-2.94,0.78-4.013-0.284l-3.797-3.771l-10.718,8.52l1.103,1.368c-0.356,4.729-2.506,9.332-6.183,13.088
			c-0.026,0.028-0.048,0.058-0.075,0.084h-0.748l-3.762-1.869h-36.18v3.737h35.289l2.768,1.374
			c-2.259,3.303-3.647,7.085-4.058,11.08l-7.67-7.619l-27.659,27.485l2.659,2.644l25-24.843l7.693,7.644
			c1.398,11.573,11.379,20.987,23.271,21.463c0.343,0.014,0.683,0.021,1.021,0.021c6.347,0,12.323-2.384,16.923-6.773
			c4.847-4.623,7.517-10.846,7.517-17.522c0-6.042-2.232-11.725-6.264-16.186c0.384-0.757,0.62-1.598,0.62-2.503
			c0-1.44-0.565-2.743-1.467-3.737c0.902-0.994,1.467-2.297,1.467-3.737s-0.565-2.743-1.467-3.737
			c0.902-0.994,1.467-2.297,1.467-3.737c0-0.864-0.213-1.672-0.565-2.402l10.109-10.045l9.626,7.653l13.836-18.903l0.904,3.594
			L596.838,147.822z M555.518,161.358c0,1.029-0.845,1.869-1.882,1.869h-2.204c-0.173-1.18-0.627-2.305-1.399-3.264l-0.384-0.475
			h3.987C554.673,159.489,555.518,160.329,555.518,161.358z M530.627,149.945l-2.291,1.897l-3.327-5.435h29.149l-5.374,9.345h-2.143
			l-1.313-1.634L530.627,149.945z M548.795,169.638c0.946-0.705,1.646-1.632,2.112-2.673h2.729c1.037,0,1.882,0.84,1.882,1.87
			c0,1.029-0.845,1.868-1.882,1.868h-6.985C547.407,170.48,548.135,170.129,548.795,169.638z M555.518,176.31
			c0,1.03-0.845,1.869-1.882,1.869h-7.522c-1.036,0-1.88-0.839-1.88-1.869s0.844-1.869,1.88-1.869h7.522
			C554.673,174.44,555.518,175.279,555.518,176.31z M555.518,183.784c0,1.03-0.845,1.87-1.882,1.87h-7.522
			c-1.036,0-1.88-0.84-1.88-1.87c0-1.028,0.844-1.868,1.88-1.868h7.522C554.673,181.915,555.518,182.755,555.518,183.784z
			 M554.801,217.3c-4.099,3.912-9.465,5.928-15.188,5.714c-10.737-0.43-19.634-9.476-19.827-20.162
			c-0.1-5.512,1.975-10.725,5.841-14.677c4.487-4.584,7.029-10.294,7.273-16.162l5.551-4.412l1.414,1.405
			c0.213,0.212,0.448,0.386,0.679,0.561c0.154,1.149,0.648,2.183,1.394,3.003c-0.903,0.995-1.466,2.297-1.466,3.738
			s0.565,2.743,1.466,3.738c-0.903,0.994-1.466,2.297-1.466,3.737s0.565,2.743,1.466,3.737h-3.348v3.737h-0.94
			c-3.63,0-6.583,2.935-6.583,6.541s2.953,6.541,6.583,6.541h5.642c1.556,0,2.822,1.258,2.822,2.803
			c0,1.546-1.267,2.806-2.822,2.806h-5.642c-1.557,0-2.82-1.258-2.82-2.803v-0.935h-3.763v0.935c0,3.606,2.953,6.54,6.583,6.54h0.94
			v3.737h3.762v-3.737h0.939c3.631,0,6.583-2.934,6.583-6.54c0-3.607-2.952-6.541-6.583-6.541h-5.642
			c-1.557,0-2.82-1.258-2.82-2.804s1.265-2.803,2.82-2.803h5.642c1.556,0,2.822,1.258,2.822,2.803v0.935h3.761v-0.935
			c0-3.606-2.952-6.54-6.583-6.54h-0.939v-3.327c1.001,0.896,2.312,1.457,3.762,1.457h7.522c0.828,0,1.609-0.188,2.319-0.508
			c3.354,3.757,5.203,8.525,5.203,13.59C561.16,208.12,558.901,213.387,554.801,217.3z"/>
	</g>
</g>
</svg>
