<?xml version="1.0" encoding="utf-8"?>
<!-- Generator: Adobe Illustrator 16.0.2, SVG Export Plug-In . SVG Version: 6.00 Build 0)  -->
<!DOCTYPE svg PUBLIC "-//W3C//DTD SVG 1.1//EN" "http://www.w3.org/Graphics/SVG/1.1/DTD/svg11.dtd">
<svg version="1.1" id="Layer_1" xmlns="http://www.w3.org/2000/svg" xmlns:xlink="http://www.w3.org/1999/xlink" x="0px" y="0px"
	 width="373.273px" height="112.408px" viewBox="0 0 373.273 112.408" enable-background="new 0 0 373.273 112.408"
	 xml:space="preserve">
<g>
	<path fill="#F0BD4A" d="M126.119,20.931c-3.572-6.215-8.682-11.354-15.164-15.262c-17.484,8.604-47.842,33.682-43.732,47.852
		c4.158,14.368,25.646,28.124,43.873,33.884C131.283,67.094,137.326,40.417,126.119,20.931z"/>
	<path fill="#DE8744" d="M57.311,61.862c-9.746-2.709-23.578,20.879-33.377,44.018c18.664,9.904,44.234,8.461,67.021-3.797
		C88.484,88.008,69.525,65.256,57.311,61.862z"/>
	<path fill="#DE8744" d="M5.564,91.963c0.652,1.121,1.447,2.303,2.406,3.621c12.58-9.316,33.33-26.486,34.66-39.279
		c0.318-3.089-0.529-5.767-2.518-7.983c-6.605-7.391-18.186-11.85-26.893-14.328C-1.07,53.101-4.018,75.274,5.564,91.963z"/>
	<path fill="#DE8744" d="M39.287,11.134c-3.313,1.928-6.596,4.117-9.746,6.5c3.691,9.941,9.838,22.055,18.432,24.291
		c4.344,1.131,8.996-0.398,13.799-4.537c10.121-8.711,20.955-23.6,27.182-37.287C72.758-1.875,55.158,2.011,39.287,11.134z"/>
</g>
<g>
	<g>
		<path fill="#FFFFFF" d="M149.853,91.594c0.152-6.048,1.331-8.559,5.592-8.559c1.521,0,3.271,0.152,5.478,0.381V75.96h3.005v26.514
			h-2.206c-0.152-0.456-0.267-0.951-0.418-1.407c-2.435,1.217-4.413,1.636-6.163,1.636c-3.651,0-5.287-2.93-5.287-9.967V91.594z
			 M155.863,100.191c1.256,0,2.892-0.419,5.06-1.445V86.04c-0.608-0.152-4.564-0.38-4.907-0.38h-0.229
			c-2.814,0-2.814,3.195-2.814,6.01C152.972,97.947,153.542,100.191,155.863,100.191z"/>
		<path fill="#FFFFFF" d="M170.849,77.024c1.674,0,1.864,0.19,1.864,1.674c0,1.332-0.19,1.712-1.864,1.712s-1.787-0.342-1.787-1.712
			C169.062,77.253,169.175,77.024,170.849,77.024z M169.328,102.512V83.529h3.119v18.982H169.328z"/>
		<path fill="#FFFFFF" d="M183.896,98.518c0.874,0,1.901-0.076,2.929-0.076c3.5,0,7.228,0.532,7.228,4.945
			c0,4.526-2.929,6.2-6.848,6.2c-3.994,0-6.58-0.228-7.836-0.304v-2.587c0,0,4.108,0.304,7.57,0.304
			c2.776,0,4.032-0.761,4.032-3.347c0-2.169-1.712-2.549-3.842-2.549c-1.027,0-2.169,0.076-3.233,0.076
			c-2.892,0-5.517-0.686-5.517-4.261c0-0.646,0.076-1.521,0.685-2.244c-1.445-0.951-1.901-2.549-1.901-5.212
			c0-4.45,1.369-6.238,6.619-6.276l10.423-0.038v2.092c-0.761,0.114-1.598,0.19-2.358,0.305c0.418,0.875,0.646,2.092,0.646,3.918
			c0,4.793-1.979,6.276-5.668,6.276h-4.451c-0.761,0-1.103,0.114-1.103,0.837C181.271,98.175,181.575,98.518,183.896,98.518z
			 M189.639,89.235c0-3.157-0.837-3.689-3.766-3.689h-1.94c-3.081,0.19-3.956,0.494-3.956,3.918c0,3.538,1.027,3.918,4.793,3.918
			h1.18C188.765,93.382,189.639,92.127,189.639,89.235z"/>
		<path fill="#FFFFFF" d="M200.06,77.024c1.674,0,1.864,0.19,1.864,1.674c0,1.332-0.19,1.712-1.864,1.712s-1.787-0.342-1.787-1.712
			C198.273,77.253,198.386,77.024,200.06,77.024z M198.539,102.512V83.529h3.119v18.982H198.539z"/>
		<path fill="#FFFFFF" d="M209.722,95.094v-9.206h-4.413v-2.396h4.413v-4.869h3.043v4.869h4.564v2.396h-4.564v10.651
			c0,3.044,0.799,3.956,2.891,3.956c0.571,0,1.256-0.037,2.093-0.075l0.038,2.168c-1.065,0.19-1.94,0.267-2.435,0.267
			C209.912,102.854,209.722,99.772,209.722,95.094z"/>
		<path fill="#FFFFFF" d="M235.131,102.512h-2.625l-0.305-1.56c-1.939,0.951-4.564,1.94-6.543,1.94
			c-3.728,0-4.983-2.777-4.983-6.163c0-4.223,2.93-4.907,6.81-5.021h4.603v-3.575c0-2.282-1.217-2.511-3.461-2.511
			c-2.359,0-5.174,0.418-6.315,0.57c-0.038-0.114-0.456-2.282-0.456-2.435c2.587-0.456,4.983-0.685,7.304-0.685
			c4.07,0,5.973,0.875,5.973,5.174V102.512z M232.087,93.953c-6.581,0-8.444,0.113-8.444,2.929c0,1.902,0.456,3.348,2.435,3.348
			c1.674,0,4.564-1.294,6.01-1.788V93.953z"/>
		<path fill="#FFFFFF" d="M245.667,102.74c-0.609,0.076-0.799,0.076-1.027,0.076c-2.435,0-4.185-0.989-4.185-5.326V76.302h3.081
			v21.873c0,1.408,0,2.549,2.131,2.854V102.74z"/>
		<path fill="#FFFFFF" d="M271.19,102.512h-2.625l-0.305-1.56c-1.939,0.951-4.564,1.94-6.543,1.94c-3.728,0-4.983-2.777-4.983-6.163
			c0-4.223,2.93-4.907,6.81-5.021h4.603v-3.575c0-2.282-1.217-2.511-3.461-2.511c-2.359,0-5.174,0.418-6.315,0.57
			c-0.038-0.114-0.456-2.282-0.456-2.435c2.587-0.456,4.983-0.685,7.304-0.685c4.07,0,5.973,0.875,5.973,5.174V102.512z
			 M268.146,93.953c-6.581,0-8.444,0.113-8.444,2.929c0,1.902,0.456,3.348,2.435,3.348c1.674,0,4.564-1.294,6.01-1.788V93.953z"/>
		<path fill="#FFFFFF" d="M282.676,98.518c0.874,0,1.901-0.076,2.929-0.076c3.5,0,7.228,0.532,7.228,4.945
			c0,4.526-2.929,6.2-6.848,6.2c-3.994,0-6.58-0.228-7.836-0.304v-2.587c0,0,4.108,0.304,7.57,0.304
			c2.776,0,4.032-0.761,4.032-3.347c0-2.169-1.712-2.549-3.842-2.549c-1.027,0-2.169,0.076-3.233,0.076
			c-2.892,0-5.517-0.686-5.517-4.261c0-0.646,0.076-1.521,0.686-2.244c-1.446-0.951-1.902-2.549-1.902-5.212
			c0-4.45,1.369-6.238,6.619-6.276l10.423-0.038v2.092c-0.761,0.114-1.598,0.19-2.358,0.305c0.418,0.875,0.646,2.092,0.646,3.918
			c0,4.793-1.979,6.276-5.668,6.276h-4.451c-0.761,0-1.103,0.114-1.103,0.837C280.051,98.175,280.355,98.518,282.676,98.518z
			 M288.419,89.235c0-3.157-0.836-3.689-3.766-3.689h-1.939c-3.082,0.19-3.957,0.494-3.957,3.918c0,3.538,1.027,3.918,4.793,3.918
			h1.18C287.545,93.382,288.419,92.127,288.419,89.235z"/>
		<path fill="#FFFFFF" d="M312.002,93.839h-0.531c-3.881,0-7.723,0.038-11.604,0.038c0.076,2.776,0.115,4.146,0.914,5.325
			c0.799,1.218,3.156,1.218,4.717,1.218c1.064,0,3.156-0.114,5.287-0.305v2.092c-2.283,0.381-4.717,0.647-7.037,0.647
			c-5.744,0-6.847-2.435-6.847-9.891c0-7.646,0.913-9.929,7.531-9.929c6.467,0,7.57,2.168,7.57,9.929V93.839z M299.906,91.48h9.129
			c-0.152-5.06-0.646-6.087-4.604-6.087C300.02,85.394,300.059,87.22,299.906,91.48z"/>
		<path fill="#FFFFFF" d="M328.092,102.512V87.6c0-1.103-0.646-1.712-1.826-1.712c-1.293,0-4.26,0.343-6.656,1.408v15.216h-3.043
			V83.491h2.51l0.268,1.37c2.473-1.027,4.869-1.674,7.303-1.674c2.854,0,4.527,1.445,4.527,4.526v14.798H328.092z"/>
		<path fill="#FFFFFF" d="M345.436,100.344c1.369,0,3.082-0.152,4.566-0.305v2.13c-1.75,0.381-4.643,0.686-6.619,0.686
			c-5.021,0-7.305-0.913-7.305-8.864c0-8.749,0.799-10.917,7.723-10.917c0.951,0,4.299,0.267,6.01,0.532v2.396
			c-4.869-0.342-5.592-0.38-5.896-0.38c-4.678,0-4.754,1.56-4.754,8.482C339.16,100.153,340.529,100.344,345.436,100.344z"/>
		<path fill="#FFFFFF" d="M360.727,110.006h-2.891l2.473-7.494h-1.104l-6.504-19.021h3.195l5.363,16.13l5.363-16.13h3.119
			L360.727,110.006z"/>
	</g>
	<path fill="#DE8744" d="M241.659,31.325c-3.457,0-6.26,2.794-6.26,6.252c0,3.457,2.803,6.264,6.26,6.264
		c3.451,0,6.262-2.807,6.262-6.264C247.921,34.119,245.11,31.325,241.659,31.325z"/>
	<g>
		<path fill="#FFFFFF" d="M177.546,54.477l-3.609-11.73H159.5l-3.609,11.73h-7.67l14.631-44.666h8.572l14.244,44.666H177.546z
			 M166.976,17.223h-0.064c0,0-4.576,16.371-5.607,19.336h10.957C171.81,35.592,167.298,18.963,166.976,17.223z"/>
		<path fill="#FFFFFF" d="M198.174,55.186c-7.154,0-7.154-6.445-7.154-9.217V18.189c0-4.447-0.193-6.832-0.645-9.539l7.283-1.611
			c0.516,1.998,0.58,4.705,0.58,8.959v27.65c0,4.383,0.193,5.092,0.709,5.865c0.387,0.58,1.482,0.902,2.32,0.516l1.16,4.383
			C201.139,54.928,199.786,55.186,198.174,55.186z"/>
		<path fill="#FFFFFF" d="M217.705,55.314c-6.316,0-8.508-3.738-8.508-8.379V26.762h-3.609v-4.898h3.609
			c0-2.771,0-5.607,0.322-8.057l7.283-1.74c-0.322,2.643-0.58,6.574-0.58,9.797h7.799l-1.869,4.898h-5.994v18.305
			c0,4.061,0.902,5.221,3.996,5.221c0.967,0,1.805-0.193,3.029-0.645l0.902,4.254C221.958,54.863,219.896,55.314,217.705,55.314z"/>
		<path fill="#DE8744" d="M263.082,17.029c-2.578,0-4.576-2.127-4.576-4.705c0-2.643,2.063-4.77,4.705-4.77
			c2.514,0,4.641,2.063,4.641,4.77C267.851,14.902,265.724,17.029,263.082,17.029z M259.537,54.477V22.379l7.154-1.289v33.387
			H259.537z"/>
		<path fill="#DE8744" d="M297.628,54.477c-0.322-0.709-0.387-1.16-0.58-2.514c-2.191,2.191-4.77,3.223-7.992,3.223
			c-8.314,0-13.342-6.51-13.342-16.693c0-10.248,5.672-17.209,13.535-17.209c2.771,0,5.027,0.902,7.025,2.965
			c0,0-0.193-2.514-0.193-5.35V6.975l7.026,1.096v35.063c0,6.445,0.387,9.732,1.031,11.344H297.628z M296.082,29.598
			c-1.611-1.74-3.545-2.643-5.93-2.643c-4.512,0-6.574,3.609-6.574,11.473c0,7.219,1.418,10.828,6.768,10.828
			c2.643,0,4.77-1.482,5.736-3.094V29.598z"/>
		<path fill="#DE8744" d="M319.932,40.104v0.516c0,4.512,1.676,9.281,8.057,9.281c3.029,0,5.672-1.096,8.121-3.223l2.771,4.318
			c-3.416,2.9-7.348,4.318-11.73,4.318c-9.217,0-15.018-6.639-15.018-17.08c0-5.736,1.225-9.539,4.061-12.762
			c2.643-3.029,5.865-4.383,9.99-4.383c3.223,0,6.188,0.838,8.959,3.352c2.836,2.578,4.254,6.574,4.254,14.18v1.482H319.932z
			 M326.184,26.439c-3.996,0-6.188,3.158-6.188,8.443h12.053C332.049,29.598,329.729,26.439,326.184,26.439z"/>
		<path fill="#DE8744" d="M369.111,55.83c-1.998-0.773-3.674-2.32-4.447-4.383c-2.643,2.965-5.479,3.996-8.959,3.996
			c-7.477,0-10.828-4.125-10.828-9.797c0-7.541,5.672-11.344,16.113-11.344h2.191v-1.74c0-3.738-0.645-5.736-4.512-5.736
			c-4.705,0-9.732,3.738-9.732,3.738l-3.158-5.092c4.898-3.094,8.959-4.447,13.857-4.447c5.092,0,8.508,1.869,9.926,5.414
			c0.58,1.418,0.58,3.158,0.516,7.992l-0.129,9.346c-0.064,4.383,0.322,5.801,2.836,7.541L369.111,55.83z M361.764,39.072
			c-7.09,0-9.217,2.063-9.217,6.188c0,3.094,1.676,5.027,4.512,5.027c2.256,0,4.447-1.354,5.865-3.416l0.129-7.734
			C363.053,39.137,362.279,39.072,361.764,39.072z"/>
	</g>
</g>
</svg>
