<svg xmlns="http://www.w3.org/2000/svg"><defs><linearGradient x1="31.8" y1="183.29" x2="15.017" y2="166.508" gradientUnits="userSpaceOnUse" gradientTransform="matrix(.8 0 0 -.8 0 161.6)" id="i"><stop offset="0" stop-color="#00a0ff"/><stop offset=".007" stop-color="#00a1ff"/><stop offset=".26" stop-color="#00beff"/><stop offset=".512" stop-color="#00d2ff"/><stop offset=".76" stop-color="#00dfff"/><stop offset="1" stop-color="#00e3ff"/></linearGradient><linearGradient x1="43.834" y1="171.999" x2="19.638" y2="171.999" gradientUnits="userSpaceOnUse" gradientTransform="matrix(.8 0 0 -.8 0 161.6)" id="j"><stop offset="0" stop-color="#ffe000"/><stop offset=".409" stop-color="#ffbd00"/><stop offset=".775" stop-color="orange"/><stop offset="1" stop-color="#ff9c00"/></linearGradient><linearGradient x1="34.827" y1="169.704" x2="12.069" y2="146.946" gradientUnits="userSpaceOnUse" gradientTransform="matrix(.8 0 0 -.8 0 161.6)" id="k"><stop offset="0" stop-color="#ff3a44"/><stop offset="1" stop-color="#c31162"/></linearGradient><linearGradient x1="17.297" y1="191.824" x2="27.46" y2="181.661" gradientUnits="userSpaceOnUse" gradientTransform="matrix(.8 0 0 -.8 0 161.6)" id="l"><stop offset="0" stop-color="#32a071"/><stop offset=".069" stop-color="#2da771"/><stop offset=".476" stop-color="#15cf74"/><stop offset=".801" stop-color="#06e775"/><stop offset="1" stop-color="#00f076"/></linearGradient><clipPath id="a"><path d="M0 0h124v48H0V0z"/></clipPath><mask maskUnits="userSpaceOnUse" x="0" y="0" width="1" height="1" id="m"><g clip-path="url(#a)"><path d="M0 0h124v48H0V0z" fill-opacity=".2"/></g></mask><clipPath id="n"><path d="M0 0h124v48H0V0z"/></clipPath><clipPath id="b"><path d="M0 0h124v48H0V0z"/></clipPath><pattern patternTransform="matrix(1 0 0 -1 0 48)" patternUnits="userSpaceOnUse" width="124" height="48" id="o"><g clip-path="url(#b)"><path d="M29.625 20.695l-11.613-6.597c-.649-.371-1.231-.344-1.606-.008l-.058-.063.058-.058c.375-.336.957-.36 1.606.011l11.687 6.641-.074.074z"/></g></pattern><clipPath id="c"><path d="M0 0h124v48H0V0z"/></clipPath><mask maskUnits="userSpaceOnUse" x="0" y="0" width="1" height="1" id="p"><g clip-path="url(#c)"><path d="M0 0h124v48H0V0z" fill-opacity=".12"/></g></mask><clipPath id="q"><path d="M0 0h124v48H0V0z"/></clipPath><clipPath id="d"><path d="M0 0h124v48H0V0z"/></clipPath><pattern patternTransform="matrix(1 0 0 -1 0 48)" patternUnits="userSpaceOnUse" width="124" height="48" id="r"><g clip-path="url(#d)"><path d="M16.348 14.145c-.235.246-.371.628-.371 1.125v-.118c0-.496.136-.879.371-1.125l.058.063-.058.055z"/></g></pattern><clipPath id="e"><path d="M0 0h124v48H0V0z"/></clipPath><mask maskUnits="userSpaceOnUse" x="0" y="0" width="1" height="1" id="s"><g clip-path="url(#e)"><path d="M0 0h124v48H0V0z" fill-opacity=".12"/></g></mask><clipPath id="t"><path d="M0 0h124v48H0V0z"/></clipPath><clipPath id="f"><path d="M0 0h124v48H0V0z"/></clipPath><pattern patternTransform="matrix(1 0 0 -1 0 48)" patternUnits="userSpaceOnUse" width="124" height="48" id="u"><g clip-path="url(#f)"><path d="M33.613 22.961l-3.988-2.266.074-.074 3.914 2.223c.559.316.836.734.836 1.156-.047-.379-.332-.75-.836-1.039z"/></g></pattern><clipPath id="g"><path d="M0 0h124v48H0V0z"/></clipPath><mask maskUnits="userSpaceOnUse" x="0" y="0" width="1" height="1" id="v"><g clip-path="url(#g)"><path d="M0 0h124v48H0V0z" fill-opacity=".25"/></g></mask><clipPath id="w"><path d="M0 0h124v48H0V0z"/></clipPath><clipPath id="h"><path d="M0 0h124v48H0V0z"/></clipPath><pattern patternTransform="matrix(1 0 0 -1 0 48)" patternUnits="userSpaceOnUse" width="124" height="48" id="x"><g clip-path="url(#h)"><path d="M18.012 33.902l15.601-8.863c.508-.289.789-.66.836-1.039 0 .418-.277.836-.836 1.156L18.012 34.02c-1.117.632-2.035.105-2.035-1.176v-.114c0 1.278.918 1.805 2.035 1.172z" fill="#fff"/></g></pattern></defs><symbol id="appstore-btn" viewBox="0 0 135 40"><path fill="#A6A6A6" d="M130.197 40H4.729A4.74 4.74 0 0 1 0 35.267V4.726A4.733 4.733 0 0 1 4.729 0h125.468C132.803 0 135 2.12 135 4.726v30.541c0 2.605-2.197 4.733-4.803 4.733z"/><path d="M134.032 35.268a3.83 3.83 0 0 1-3.834 3.83H4.729a3.835 3.835 0 0 1-3.839-3.83V4.725A3.84 3.84 0 0 1 4.729.89h125.468a3.834 3.834 0 0 1 3.834 3.835l.001 30.543z"/><g fill="#FFF"><path d="M30.128 19.784c-.029-3.223 2.639-4.791 2.761-4.864-1.511-2.203-3.853-2.504-4.676-2.528-1.967-.207-3.875 1.177-4.877 1.177-1.022 0-2.565-1.157-4.228-1.123-2.14.033-4.142 1.272-5.24 3.196-2.266 3.923-.576 9.688 1.595 12.859 1.086 1.553 2.355 3.287 4.016 3.226 1.625-.067 2.232-1.036 4.193-1.036 1.943 0 2.513 1.036 4.207.997 1.744-.028 2.842-1.56 3.89-3.127 1.255-1.78 1.759-3.533 1.779-3.623-.041-.014-3.387-1.291-3.42-5.154zM26.928 10.306c.874-1.093 1.472-2.58 1.306-4.089-1.265.056-2.847.875-3.758 1.944-.806.942-1.526 2.486-1.34 3.938 1.421.106 2.88-.717 3.792-1.793z"/></g><g fill="#FFF"><path d="M53.645 31.504h-2.271l-1.244-3.909h-4.324l-1.185 3.909H42.41l4.284-13.308h2.646l4.305 13.308zm-3.89-5.549L48.63 22.48c-.119-.355-.342-1.191-.671-2.507h-.04a96.75 96.75 0 0 1-.632 2.507l-1.105 3.475h3.573zM64.662 26.588c0 1.632-.441 2.922-1.323 3.869-.79.843-1.771 1.264-2.942 1.264-1.264 0-2.172-.454-2.725-1.362h-.04v5.055H55.5V25.067c0-1.026-.027-2.079-.079-3.159h1.875l.119 1.521h.04c.711-1.146 1.79-1.718 3.238-1.718 1.132 0 2.077.447 2.833 1.342.758.896 1.136 2.074 1.136 3.535zm-2.172.078c0-.934-.21-1.704-.632-2.31-.461-.632-1.08-.948-1.856-.948-.526 0-1.004.176-1.431.523-.428.35-.708.807-.839 1.373-.066.264-.099.48-.099.65v1.6c0 .698.214 1.287.642 1.768s.984.721 1.668.721c.803 0 1.428-.31 1.875-.928.448-.619.672-1.435.672-2.449zM75.699 26.588c0 1.632-.441 2.922-1.324 3.869-.789.843-1.77 1.264-2.941 1.264-1.264 0-2.172-.454-2.724-1.362h-.04v5.055h-2.132V25.067c0-1.026-.027-2.079-.079-3.159h1.875l.119 1.521h.04c.71-1.146 1.789-1.718 3.238-1.718 1.131 0 2.076.447 2.834 1.342.755.896 1.134 2.074 1.134 3.535zm-2.172.078c0-.934-.211-1.704-.633-2.31-.461-.632-1.078-.948-1.855-.948a2.22 2.22 0 0 0-1.432.523c-.428.35-.707.807-.838 1.373-.065.264-.099.48-.099.65v1.6c0 .698.214 1.287.64 1.768.428.48.984.721 1.67.721.803 0 1.428-.31 1.875-.928.448-.619.672-1.435.672-2.449zM88.039 27.772c0 1.132-.393 2.053-1.182 2.764-.867.777-2.074 1.165-3.625 1.165-1.432 0-2.58-.276-3.449-.829l.494-1.777c.936.566 1.963.85 3.082.85.803 0 1.428-.182 1.877-.544.447-.362.67-.848.67-1.454 0-.54-.184-.995-.553-1.364-.367-.369-.98-.712-1.836-1.029-2.33-.869-3.494-2.142-3.494-3.816 0-1.094.408-1.991 1.225-2.689.814-.699 1.9-1.048 3.258-1.048 1.211 0 2.217.211 3.02.632l-.533 1.738c-.75-.408-1.598-.612-2.547-.612-.75 0-1.336.185-1.756.553a1.58 1.58 0 0 0-.533 1.205c0 .526.203.961.611 1.303.355.316 1 .658 1.936 1.027 1.145.461 1.986 1 2.527 1.618.539.616.808 1.387.808 2.307zM95.088 23.508h-2.35v4.659c0 1.185.414 1.777 1.244 1.777.381 0 .697-.033.947-.099l.059 1.619c-.42.157-.973.236-1.658.236-.842 0-1.5-.257-1.975-.77-.473-.514-.711-1.376-.711-2.587v-4.837h-1.4v-1.6h1.4v-1.757l2.094-.632v2.389h2.35v1.602zM105.691 26.627c0 1.475-.422 2.686-1.264 3.633-.883.975-2.055 1.461-3.516 1.461-1.408 0-2.529-.467-3.365-1.401s-1.254-2.113-1.254-3.534c0-1.487.43-2.705 1.293-3.652.861-.948 2.023-1.422 3.484-1.422 1.408 0 2.541.467 3.396 1.402.818.907 1.226 2.078 1.226 3.513zm-2.212.069c0-.885-.189-1.644-.572-2.277-.447-.766-1.086-1.148-1.914-1.148-.857 0-1.508.383-1.955 1.148-.383.634-.572 1.405-.572 2.317 0 .885.189 1.644.572 2.276.461.766 1.105 1.148 1.936 1.148.814 0 1.453-.39 1.914-1.168.393-.645.591-1.412.591-2.296zM112.621 23.783a3.702 3.702 0 0 0-.672-.059c-.75 0-1.33.283-1.738.85-.355.5-.533 1.132-.533 1.895v5.035h-2.131l.02-6.574c0-1.106-.027-2.113-.08-3.021h1.857l.078 1.836h.059c.225-.631.58-1.139 1.066-1.52a2.578 2.578 0 0 1 1.541-.514c.197 0 .375.014.533.039v2.033zM122.156 26.252a5 5 0 0 1-.078.967h-6.396c.025.948.334 1.673.928 2.173.539.447 1.236.671 2.092.671.947 0 1.811-.151 2.588-.454l.334 1.48c-.908.396-1.98.593-3.217.593-1.488 0-2.656-.438-3.506-1.313-.848-.875-1.273-2.05-1.273-3.524 0-1.447.395-2.652 1.186-3.613.828-1.026 1.947-1.539 3.355-1.539 1.383 0 2.43.513 3.141 1.539.563.815.846 1.823.846 3.02zm-2.033-.553c.014-.632-.125-1.178-.414-1.639-.369-.593-.936-.889-1.699-.889-.697 0-1.264.289-1.697.869-.355.461-.566 1.014-.631 1.658h4.441z"/></g><g fill="#FFF"><path d="M49.05 10.009c0 1.177-.353 2.063-1.058 2.658-.653.549-1.581.824-2.783.824-.596 0-1.106-.026-1.533-.078V6.982c.557-.09 1.157-.136 1.805-.136 1.145 0 2.008.249 2.59.747.652.563.979 1.368.979 2.416zm-1.105.029c0-.763-.202-1.348-.606-1.756-.404-.407-.994-.611-1.771-.611-.33 0-.611.022-.844.068v4.889c.129.02.365.029.708.029.802 0 1.421-.223 1.857-.669s.656-1.096.656-1.95zM54.909 11.037c0 .725-.207 1.319-.621 1.785-.434.479-1.009.718-1.727.718-.692 0-1.243-.229-1.654-.689-.41-.459-.615-1.038-.615-1.736 0-.73.211-1.329.635-1.794s.994-.698 1.712-.698c.692 0 1.248.229 1.669.688.4.446.601 1.022.601 1.726zm-1.087.034c0-.435-.094-.808-.281-1.119-.22-.376-.533-.564-.94-.564-.421 0-.741.188-.961.564-.188.311-.281.69-.281 1.138 0 .435.094.808.281 1.119.227.376.543.564.951.564.4 0 .714-.191.94-.574.194-.317.291-.693.291-1.128zM62.765 8.719l-1.475 4.714h-.96l-.611-2.047a15.32 15.32 0 0 1-.379-1.523h-.019a11.15 11.15 0 0 1-.379 1.523l-.649 2.047h-.971l-1.387-4.714h1.077l.533 2.241c.129.53.235 1.035.32 1.513h.019c.078-.394.207-.896.389-1.503l.669-2.25h.854l.641 2.202c.155.537.281 1.054.378 1.552h.029c.071-.485.178-1.002.32-1.552l.572-2.202h1.029zM68.198 13.433H67.15v-2.7c0-.832-.316-1.248-.95-1.248a.946.946 0 0 0-.757.343 1.217 1.217 0 0 0-.291.808v2.796h-1.048v-3.366c0-.414-.013-.863-.038-1.349h.921l.049.737h.029c.122-.229.304-.418.543-.569.284-.176.602-.265.95-.265.44 0 .806.142 1.097.427.362.349.543.87.543 1.562v2.824zM71.088 13.433h-1.047V6.556h1.047v6.877zM77.258 11.037c0 .725-.207 1.319-.621 1.785-.434.479-1.01.718-1.727.718-.693 0-1.244-.229-1.654-.689-.41-.459-.615-1.038-.615-1.736 0-.73.211-1.329.635-1.794s.994-.698 1.711-.698c.693 0 1.248.229 1.67.688.4.446.601 1.022.601 1.726zm-1.088.034c0-.435-.094-.808-.281-1.119-.219-.376-.533-.564-.939-.564-.422 0-.742.188-.961.564-.188.311-.281.69-.281 1.138 0 .435.094.808.281 1.119.227.376.543.564.951.564.4 0 .713-.191.939-.574.195-.317.291-.693.291-1.128zM82.33 13.433h-.941l-.078-.543h-.029c-.322.433-.781.65-1.377.65-.445 0-.805-.143-1.076-.427a1.339 1.339 0 0 1-.369-.96c0-.576.24-1.015.723-1.319.482-.304 1.16-.453 2.033-.446V10.3c0-.621-.326-.931-.979-.931-.465 0-.875.117-1.229.349l-.213-.688c.438-.271.979-.407 1.617-.407 1.232 0 1.85.65 1.85 1.95v1.736c0 .471.023.846.068 1.124zm-1.088-1.62v-.727c-1.156-.02-1.734.297-1.734.95 0 .246.066.43.201.553a.733.733 0 0 0 .512.184c.23 0 .445-.073.641-.218a.893.893 0 0 0 .38-.742zM88.285 13.433h-.93l-.049-.757h-.029c-.297.576-.803.864-1.514.864-.568 0-1.041-.223-1.416-.669s-.562-1.025-.562-1.736c0-.763.203-1.381.611-1.853.395-.44.879-.66 1.455-.66.633 0 1.076.213 1.328.64h.02V6.556h1.049v5.607c0 .459.012.882.037 1.27zm-1.086-1.988v-.786a1.194 1.194 0 0 0-.408-.965 1.03 1.03 0 0 0-.701-.257c-.391 0-.697.155-.922.466-.223.311-.336.708-.336 1.193 0 .466.107.844.322 1.135.227.31.533.465.916.465.344 0 .619-.129.828-.388.202-.239.301-.527.301-.863zM97.248 11.037c0 .725-.207 1.319-.621 1.785-.434.479-1.008.718-1.727.718-.691 0-1.242-.229-1.654-.689-.41-.459-.615-1.038-.615-1.736 0-.73.211-1.329.635-1.794s.994-.698 1.713-.698c.691 0 1.248.229 1.668.688.4.446.601 1.022.601 1.726zm-1.086.034c0-.435-.094-.808-.281-1.119-.221-.376-.533-.564-.941-.564-.42 0-.74.188-.961.564-.188.311-.281.69-.281 1.138 0 .435.094.808.281 1.119.227.376.543.564.951.564.4 0 .715-.191.941-.574.193-.317.291-.693.291-1.128zM102.883 13.433h-1.047v-2.7c0-.832-.316-1.248-.951-1.248-.311 0-.562.114-.756.343s-.291.499-.291.808v2.796h-1.049v-3.366c0-.414-.012-.863-.037-1.349h.92l.049.737h.029a1.53 1.53 0 0 1 .543-.569c.285-.176.602-.265.951-.265.439 0 .805.142 1.096.427.363.349.543.87.543 1.562v2.824zM109.936 9.504h-1.154v2.29c0 .582.205.873.611.873.188 0 .344-.016.467-.049l.027.795c-.207.078-.479.117-.814.117-.414 0-.736-.126-.969-.378-.234-.252-.35-.676-.35-1.271V9.504h-.689v-.785h.689v-.864l1.027-.31v1.173h1.154v.786zM115.484 13.433h-1.049v-2.68c0-.845-.316-1.268-.949-1.268-.486 0-.818.245-1 .735a1.317 1.317 0 0 0-.049.377v2.835h-1.047V6.556h1.047v2.841h.02c.33-.517.803-.775 1.416-.775.434 0 .793.142 1.078.427.355.355.533.883.533 1.581v2.803zM121.207 10.853c0 .188-.014.346-.039.475h-3.143c.014.466.164.821.455 1.067.266.22.609.33 1.029.33.465 0 .889-.074 1.271-.223l.164.728c-.447.194-.973.291-1.582.291-.73 0-1.305-.215-1.721-.645-.418-.43-.625-1.007-.625-1.731 0-.711.193-1.303.582-1.775.406-.504.955-.756 1.648-.756.678 0 1.193.252 1.541.756.281.4.42.895.42 1.483zm-1-.271a1.411 1.411 0 0 0-.203-.805c-.182-.291-.459-.437-.834-.437a.995.995 0 0 0-.834.427 1.586 1.586 0 0 0-.311.815h2.182z"/></g></symbol><symbol id="facebook-logo" viewBox="0 0 96.124 96.123"><path d="M72.089.02L59.624 0C45.62 0 36.57 9.285 36.57 23.656v10.907H24.037a1.96 1.96 0 0 0-1.96 1.961v15.803a1.96 1.96 0 0 0 1.96 1.96H36.57v39.876a1.96 1.96 0 0 0 1.96 1.96h16.352a1.96 1.96 0 0 0 1.96-1.96V54.287h14.654a1.96 1.96 0 0 0 1.96-1.96l.006-15.803a1.963 1.963 0 0 0-1.961-1.961H56.842v-9.246c0-4.444 1.059-6.7 6.848-6.7l8.397-.003a1.96 1.96 0 0 0 1.959-1.96V1.98A1.96 1.96 0 0 0 72.089.02z"/></symbol><symbol id="google-btn" viewBox="0 0 135.71649 40.018951"><path d="M130.54 39.943H5.24c-2.755 0-5.012-2.23-5.012-4.954V5.267C.228 2.544 2.485.314 5.24.314h125.3c2.755 0 5.011 2.23 5.011 4.953V34.99c0 2.724-2.256 4.954-5.012 4.954z"/><path d="M130.54 1.108c2.32 0 4.208 1.866 4.208 4.16v29.721c0 2.294-1.888 4.16-4.209 4.16H5.24c-2.32 0-4.208-1.866-4.208-4.16V5.267c0-2.293 1.888-4.16 4.208-4.16h125.3m0-.793H5.24C2.485.314.228 2.544.228 5.267V34.99c0 2.724 2.257 4.954 5.012 4.954h125.3c2.755 0 5.011-2.23 5.011-4.954V5.267c0-2.723-2.256-4.953-5.012-4.953z" fill="#a6a6a6"/><path d="M45.934 16.195c0 .668-.2 1.203-.594 1.602-.453.473-1.043.711-1.766.711a2.426 2.426 0 0 1-1.765-.719c-.485-.484-.727-1.078-.727-1.789 0-.711.242-1.305.727-1.785a2.414 2.414 0 0 1 1.765-.723c.344 0 .672.071.985.203.312.133.566.313.75.535l-.418.422c-.321-.379-.758-.566-1.317-.566-.504 0-.941.176-1.312.531-.367.356-.551.817-.551 1.383 0 .566.184 1.031.551 1.387a1.85 1.85 0 0 0 1.312.531c.535 0 .985-.18 1.34-.535.234-.235.367-.559.402-.973h-1.742v-.578h2.324c.028.125.036.246.036.363zM49.621 14.191h-2.183v1.52h1.968v.578h-1.968v1.52h2.183v.589H46.82v-4.796h2.801v.589zM52.223 18.398h-.618v-4.207h-1.339v-.589h3.297v.589h-1.34v4.207zM55.949 18.398v-4.796h.617v4.796h-.617zM59.301 18.398h-.613v-4.207h-1.344v-.589h3.301v.589h-1.344v4.207zM66.887 17.781c-.473.485-1.059.727-1.758.727-.703 0-1.289-.242-1.762-.727-.472-.484-.707-1.078-.707-1.781 0-.703.235-1.297.707-1.781.473-.485 1.059-.727 1.762-.727.695 0 1.281.242 1.754.731.476.488.711 1.078.711 1.777 0 .703-.235 1.297-.707 1.781zm-3.063-.402c.356.359.789.539 1.305.539.512 0 .949-.18 1.301-.539.355-.359.535-.82.535-1.379s-.18-1.02-.535-1.379a1.756 1.756 0 0 0-1.301-.539c-.516 0-.949.18-1.305.539-.355.359-.535.82-.535 1.379s.18 1.02.535 1.379zM68.461 18.398v-4.796h.75l2.332 3.73h.027l-.027-.922v-2.808h.617v4.796h-.644l-2.442-3.914h-.027l.027.926v2.988h-.613z" fill="#fff" stroke="#fff" stroke-width=".16" stroke-miterlimit="10" transform="matrix(1.25299 0 0 1.23841 -9.796 -9.594)"/><path d="M68.526 21.865c-2.354 0-4.277 1.77-4.277 4.214 0 2.424 1.923 4.213 4.277 4.213 2.36 0 4.283-1.79 4.283-4.213 0-2.443-1.923-4.214-4.283-4.214zm0 6.768c-1.291 0-2.403-1.054-2.403-2.554 0-1.52 1.112-2.555 2.403-2.555 1.292 0 2.409 1.035 2.409 2.555 0 1.5-1.117 2.554-2.409 2.554zm-9.333-6.768c-2.36 0-4.278 1.77-4.278 4.214 0 2.424 1.918 4.213 4.278 4.213 2.358 0 4.278-1.79 4.278-4.213 0-2.443-1.92-4.214-4.278-4.214zm0 6.768c-1.293 0-2.408-1.054-2.408-2.554 0-1.52 1.115-2.555 2.408-2.555 1.292 0 2.403 1.035 2.403 2.555 0 1.5-1.111 2.554-2.403 2.554zm-11.107-5.477v1.791h4.327c-.127 1-.465 1.736-.984 2.249-.631.62-1.615 1.307-3.343 1.307a4.722 4.722 0 0 1-4.747-4.756 4.722 4.722 0 0 1 4.747-4.756c1.44 0 2.488.557 3.26 1.277l1.277-1.262c-1.08-1.02-2.52-1.804-4.537-1.804-3.65 0-6.72 2.936-6.72 6.545s3.07 6.545 6.72 6.545c1.974 0 3.456-.639 4.621-1.838 1.194-1.18 1.567-2.84 1.567-4.18 0-.416-.035-.798-.098-1.118h-6.09zm45.416 1.389c-.352-.943-1.438-2.68-3.651-2.68-2.193 0-4.018 1.707-4.018 4.214 0 2.36 1.806 4.213 4.228 4.213a4.238 4.238 0 0 0 3.554-1.868l-1.453-.957c-.485.701-1.146 1.166-2.1 1.166-.949 0-1.63-.43-2.065-1.277l5.702-2.332-.197-.48zm-5.814 1.403c-.049-1.625 1.277-2.457 2.227-2.457.744 0 1.376.367 1.586.894l-3.813 1.563zm-4.634 4.088h1.874V17.652h-1.874v12.384zm-3.07-7.233h-.063c-.421-.493-1.224-.938-2.242-.938-2.135 0-4.087 1.852-4.087 4.228 0 2.361 1.952 4.199 4.087 4.199 1.018 0 1.821-.45 2.242-.957h.063v.604c0 1.611-.871 2.477-2.276 2.477-1.145 0-1.855-.817-2.149-1.505l-1.63.673c.47 1.117 1.714 2.491 3.78 2.491 2.197 0 4.051-1.278 4.051-4.387V22.12h-1.776v.682zm-2.144 5.83c-1.292 0-2.373-1.07-2.373-2.54 0-1.485 1.081-2.569 2.373-2.569 1.273 0 2.277 1.084 2.277 2.569 0 1.47-1.004 2.54-2.277 2.54zm24.438-10.981h-4.483v12.384h1.87v-4.693h2.613c2.076 0 4.112-1.485 4.112-3.846 0-2.36-2.04-3.845-4.112-3.845zm.049 5.969h-2.663v-4.247h2.663a2.161 2.161 0 0 1 2.193 2.123c0 .958-.797 2.124-2.193 2.124zm11.556-1.78c-1.35 0-2.755.59-3.333 1.896l1.66.687c.356-.687 1.013-.91 1.707-.91.97 0 1.954.576 1.969 1.593v.13c-.339-.193-1.063-.48-1.954-.48-1.787 0-3.607.973-3.607 2.787 0 1.66 1.463 2.728 3.109 2.728 1.258 0 1.952-.56 2.388-1.213h.064v.957h1.805v-4.75c0-2.196-1.659-3.425-3.808-3.425zm-.225 6.787c-.612 0-1.464-.3-1.464-1.05 0-.958 1.063-1.326 1.983-1.326.823 0 1.209.18 1.709.416-.147 1.147-1.146 1.96-2.228 1.96zm10.611-6.516l-2.148 5.369h-.064l-2.222-5.369h-2.016l3.338 7.503-1.905 4.174h1.954l5.143-11.677h-2.08zm-16.851 7.924h1.874V17.652h-1.874v12.384z" fill="#fff"/><path d="M16.348 33.969c-.235-.246-.371-.629-.371-1.125V15.152c0-.496.136-.879.371-1.125l.058-.054 9.914 9.91v.234l-9.914 9.91-.058-.058z" fill="url(#i)" transform="matrix(1.25299 0 0 -1.23841 -9.796 49.85)"/><path d="M29.621 20.578l-3.301 3.305v.234l3.305 3.305.074-.043 3.914-2.227c1.117-.632 1.117-1.672 0-2.308l-3.914-2.223-.078-.043z" fill="url(#j)" transform="matrix(1.25299 0 0 -1.23841 -9.796 49.85)"/><path d="M29.699 20.621L26.32 24l-9.972-9.973c.371-.39.976-.437 1.664-.047l11.687 6.641" fill="url(#k)" transform="matrix(1.25299 0 0 -1.23841 -9.796 49.85)"/><path d="M29.699 27.379L18.012 34.02c-.688.386-1.293.339-1.664-.051L26.32 24l3.379 3.379z" fill="url(#l)" transform="matrix(1.25299 0 0 -1.23841 -9.796 49.85)"/><g mask="url(#m)" transform="matrix(1.25299 0 0 -1.23841 -9.796 49.85)"><g clip-path="url(#n)"><path d="M0 0h124v48H0V0z" fill="url(#o)"/></g></g><g mask="url(#p)" transform="matrix(1.25299 0 0 -1.23841 -9.796 49.85)"><g clip-path="url(#q)"><path d="M0 0h124v48H0V0z" fill="url(#r)"/></g></g><g><g mask="url(#s)" transform="matrix(1.25299 0 0 -1.23841 -9.796 49.85)"><g clip-path="url(#t)"><path d="M0 0h124v48H0V0z" fill="url(#u)"/></g></g></g><g><g mask="url(#v)" transform="matrix(1.25299 0 0 -1.23841 -9.796 49.85)"><g clip-path="url(#w)"><path d="M0 0h124v48H0V0z" fill="url(#x)"/></g></g></g></symbol><symbol id="instagram-social-network-logo-of-photo-camera" viewBox="0 0 97.395 97.395"><path d="M12.501 0h72.393c6.875 0 12.5 5.09 12.5 12.5v72.395c0 7.41-5.625 12.5-12.5 12.5H12.501C5.624 97.395 0 92.305 0 84.895V12.5C0 5.09 5.624 0 12.501 0zm58.447 10.821a4.395 4.395 0 0 0-4.383 4.385v10.495a4.396 4.396 0 0 0 4.383 4.385h11.008a4.398 4.398 0 0 0 4.385-4.385V15.206a4.397 4.397 0 0 0-4.385-4.385H70.948zm15.439 30.367h-8.572a28.486 28.486 0 0 1 1.25 8.355c0 16.2-13.556 29.332-30.275 29.332-16.718 0-30.272-13.132-30.272-29.332 0-2.904.438-5.708 1.25-8.355h-8.945v41.141a3.884 3.884 0 0 0 3.872 3.872h67.822a3.883 3.883 0 0 0 3.872-3.872V41.188h-.002zM48.789 29.533c-10.802 0-19.56 8.485-19.56 18.953s8.758 18.953 19.56 18.953c10.803 0 19.562-8.485 19.562-18.953s-8.758-18.953-19.562-18.953z"/></symbol><symbol id="symbols"/><symbol id="twitter-logo-silhouette" viewBox="0 0 612 612"><path d="M612 116.258a250.714 250.714 0 0 1-72.088 19.772c25.929-15.527 45.777-40.155 55.184-69.411-24.322 14.379-51.169 24.82-79.775 30.48-22.907-24.437-55.49-39.658-91.63-39.658-69.334 0-125.551 56.217-125.551 125.513 0 9.828 1.109 19.427 3.251 28.606-104.326-5.24-196.835-55.223-258.75-131.174-10.823 18.51-16.98 40.078-16.98 63.101 0 43.559 22.181 81.993 55.835 104.479a125.556 125.556 0 0 1-56.867-15.756v1.568c0 60.806 43.291 111.554 100.693 123.104-10.517 2.83-21.607 4.398-33.08 4.398-8.107 0-15.947-.803-23.634-2.333 15.985 49.907 62.336 86.199 117.253 87.194-42.947 33.654-97.099 53.655-155.916 53.655-10.134 0-20.116-.612-29.944-1.721 55.567 35.681 121.536 56.485 192.438 56.485 230.948 0 357.188-191.291 357.188-357.188l-.421-16.253c24.666-17.593 46.005-39.697 62.794-64.861z"/></symbol><symbol id="vk-social-network-logo" viewBox="0 0 548.358 548.358"><path d="M545.451 400.298c-.664-1.431-1.283-2.618-1.858-3.569-9.514-17.135-27.695-38.167-54.532-63.102l-.567-.571-.284-.28-.287-.287h-.288c-12.18-11.611-19.893-19.418-23.123-23.415-5.91-7.614-7.234-15.321-4.004-23.13 2.282-5.9 10.854-18.36 25.696-37.397 7.807-10.089 13.99-18.175 18.556-24.267 32.931-43.78 47.208-71.756 42.828-83.939l-1.701-2.847c-1.143-1.714-4.093-3.282-8.846-4.712-4.764-1.427-10.853-1.663-18.278-.712l-82.224.568c-1.332-.472-3.234-.428-5.712.144l-3.713.859-1.431.715-1.136.859c-.952.568-1.999 1.567-3.142 2.995-1.137 1.423-2.088 3.093-2.848 4.996-8.952 23.031-19.13 44.444-30.553 64.238-7.043 11.803-13.511 22.032-19.418 30.693-5.899 8.658-10.848 15.037-14.842 19.126-4 4.093-7.61 7.372-10.852 9.849-3.237 2.478-5.708 3.525-7.419 3.142-1.715-.383-3.33-.763-4.859-1.143-2.663-1.714-4.805-4.045-6.42-6.995-1.622-2.95-2.714-6.663-3.285-11.136-.568-4.476-.904-8.326-1-11.563-.089-3.233-.048-7.806.145-13.706.198-5.903.287-9.897.287-11.991 0-7.234.141-15.085.424-23.555.288-8.47.521-15.181.716-20.125.194-4.949.284-10.185.284-15.705s-.336-9.849-1-12.991a44.442 44.442 0 0 0-2.99-9.137c-1.335-2.95-3.289-5.232-5.853-6.852-2.569-1.618-5.763-2.902-9.564-3.856-10.089-2.283-22.936-3.518-38.547-3.71-35.401-.38-58.148 1.906-68.236 6.855-3.997 2.091-7.614 4.948-10.848 8.562-3.427 4.189-3.905 6.475-1.431 6.851 11.422 1.711 19.508 5.804 24.267 12.275l1.715 3.429c1.334 2.474 2.666 6.854 3.999 13.134 1.331 6.28 2.19 13.227 2.568 20.837.95 13.897.95 25.793 0 35.689-.953 9.9-1.853 17.607-2.712 23.127-.859 5.52-2.143 9.993-3.855 13.418-1.715 3.426-2.856 5.52-3.428 6.28-.571.76-1.047 1.239-1.425 1.427a21.387 21.387 0 0 1-7.71 1.431c-2.667 0-5.901-1.334-9.707-4-3.805-2.666-7.754-6.328-11.847-10.992-4.093-4.665-8.709-11.184-13.85-19.558-5.137-8.374-10.467-18.271-15.987-29.691l-4.567-8.282c-2.855-5.328-6.755-13.086-11.704-23.267-4.952-10.185-9.329-20.037-13.134-29.554-1.521-3.997-3.806-7.04-6.851-9.134l-1.429-.859c-.95-.76-2.475-1.567-4.567-2.427a30.301 30.301 0 0 0-6.567-1.854l-78.229.568c-7.994 0-13.418 1.811-16.274 5.428l-1.143 1.711c-.571.953-.859 2.475-.859 4.57 0 2.094.571 4.664 1.714 7.707 11.42 26.84 23.839 52.725 37.257 77.659 13.418 24.934 25.078 45.019 34.973 60.237 9.897 15.229 19.985 29.602 30.264 43.112 10.279 13.515 17.083 22.176 20.412 25.981 3.333 3.812 5.951 6.662 7.854 8.565l7.139 6.851c4.568 4.569 11.276 10.041 20.127 16.416 8.853 6.379 18.654 12.659 29.408 18.85 10.756 6.181 23.269 11.225 37.546 15.126 14.275 3.905 28.169 5.472 41.684 4.716h32.834c6.659-.575 11.704-2.669 15.133-6.283l1.136-1.431c.764-1.136 1.479-2.901 2.139-5.276.668-2.379 1-5 1-7.851-.195-8.183.428-15.558 1.852-22.124 1.423-6.564 3.045-11.513 4.859-14.846 1.813-3.33 3.859-6.14 6.136-8.418 2.282-2.283 3.908-3.666 4.862-4.142.948-.479 1.705-.804 2.276-.999 4.568-1.522 9.944-.048 16.136 4.429 6.187 4.473 11.99 9.996 17.418 16.56 5.425 6.57 11.943 13.941 19.555 22.124 7.617 8.186 14.277 14.271 19.985 18.274l5.708 3.426c3.812 2.286 8.761 4.38 14.853 6.283 6.081 1.902 11.409 2.378 15.984 1.427l73.087-1.14c7.229 0 12.854-1.197 16.844-3.572 3.998-2.379 6.373-5 7.139-7.851.764-2.854.805-6.092.145-9.712-.677-3.611-1.344-6.136-2.008-7.563z"/></symbol><symbol id="youtube-logo" viewBox="0 0 90 90"><path d="M70.939 65.832H66l.023-2.869a2.329 2.329 0 0 1 2.326-2.318h.315a2.332 2.332 0 0 1 2.332 2.318l-.057 2.869zm-18.526-6.148c-1.253 0-2.278.842-2.278 1.873V75.51c0 1.029 1.025 1.869 2.278 1.869 1.258 0 2.284-.84 2.284-1.869V61.557c0-1.032-1.026-1.873-2.284-1.873zM82.5 51.879v26.544C82.5 84.79 76.979 90 70.23 90H19.771C13.02 90 7.5 84.79 7.5 78.423V51.879c0-6.367 5.52-11.578 12.271-11.578H70.23c6.749 0 12.27 5.211 12.27 11.578zM23.137 81.305l-.004-27.961 6.255.002v-4.143l-16.674-.025v4.073l5.205.015v28.039h5.218zm18.75-23.796h-5.215V72.44c0 2.16.131 3.24-.008 3.621-.424 1.158-2.33 2.388-3.073.125-.126-.396-.015-1.591-.017-3.643l-.021-15.034h-5.186l.016 14.798c.004 2.268-.051 3.959.018 4.729.127 1.357.082 2.939 1.341 3.843 2.346 1.69 6.843-.252 7.968-2.668l-.01 3.083 4.188.005-.001-23.79zM58.57 74.607l-.011-12.427c-.004-4.736-3.547-7.572-8.356-3.74l.021-9.239-5.209.008-.025 31.89 4.284-.062.39-1.986c5.473 5.021 8.914 1.58 8.906-4.444zm16.321-1.647l-3.91.021c-.002.155-.008.334-.01.529v2.182c0 1.168-.965 2.119-2.137 2.119h-.766c-1.174 0-2.139-.951-2.139-2.119v-5.739h8.954v-3.37c0-2.463-.063-4.925-.267-6.333-.641-4.454-6.893-5.161-10.051-2.881a5.887 5.887 0 0 0-2.188 2.945c-.444 1.281-.665 3.031-.665 5.254v7.41c.002 12.318 14.964 10.577 13.179-.018zM54.833 32.732a3.55 3.55 0 0 0 1.254 1.584c.56.394 1.276.592 2.134.592.752 0 1.418-.203 1.998-.622.578-.417 1.065-1.04 1.463-1.871l-.099 2.046h5.813V9.74H62.82v19.24a1.907 1.907 0 0 1-3.811 0V9.74h-4.776v16.674c0 2.124.039 3.54.102 4.258.065.713.229 1.397.498 2.06zM37.217 18.77c0-2.373.198-4.226.591-5.562.396-1.331 1.107-2.401 2.137-3.208 1.027-.811 2.342-1.217 3.941-1.217 1.345 0 2.497.264 3.459.781.967.52 1.713 1.195 2.23 2.028a8 8 0 0 1 1.076 2.574c.195.891.291 2.235.291 4.048v6.252c0 2.293-.092 3.98-.271 5.051a8.006 8.006 0 0 1-1.146 3.004c-.58.924-1.329 1.615-2.237 2.056-.918.445-1.968.663-3.154.663-1.325 0-2.441-.183-3.361-.565-.923-.38-1.636-.953-2.144-1.714-.513-.762-.874-1.69-1.092-2.772-.219-1.081-.323-2.707-.323-4.874l.003-6.545zm4.553 9.82c0 1.4 1.042 2.543 2.311 2.543 1.27 0 2.308-1.143 2.308-2.543V15.43c0-1.398-1.038-2.541-2.308-2.541-1.269 0-2.311 1.143-2.311 2.541v13.16zm-16.088 6.645h5.484l.006-18.96L37.652.033h-5.998l-3.445 12.064L24.715 0h-5.936l6.894 16.284.009 18.951z"/></symbol></svg>