<?xml version="1.0" encoding="utf-8"?>
<!-- Generator: Adobe Illustrator 16.0.2, SVG Export Plug-In . SVG Version: 6.00 Build 0)  -->
<!DOCTYPE svg PUBLIC "-//W3C//DTD SVG 1.1//EN" "http://www.w3.org/Graphics/SVG/1.1/DTD/svg11.dtd">
<svg version="1.1" id="Layer_1" xmlns="http://www.w3.org/2000/svg" xmlns:xlink="http://www.w3.org/1999/xlink" x="0px" y="0px"
	 width="39px" height="38px" viewBox="86.625 -30.787 39 38" enable-background="new 86.625 -30.787 39 38" xml:space="preserve">
<g>
	<path fill="#F9BA48" d="M107.384-18.505c-4.146,0-7.524,3.291-7.524,7.33c0,4.04,3.378,7.332,7.524,7.332s7.524-3.292,7.524-7.332
		C114.908-15.214,111.53-18.505,107.384-18.505z M108.014-9.693l-1.889-1.84l-3.961,3.86l-0.883-0.868l4.845-4.728l1.889,1.84
		l3.961-3.859l0.883,0.868L108.014-9.693z"/>
	<path fill="#F9BA48" d="M116.19-29.56H87.884v4.907h28.306V-29.56z M91.031-26.493h-1.259v-1.227h1.259V-26.493z M93.542-26.493
		h-1.259v-1.227h1.259V-26.493z M96.06-26.493h-1.259v-1.227h1.259V-26.493z M114.31-26.493h-12.583v-1.227h12.583V-26.493z"/>
	<path fill="#F9BA48" d="M116.75-3.171l-0.813-0.792c-0.553,0.614-1.175,1.174-1.851,1.661l0.883,0.868L116.75-3.171z"/>
	<path fill="#F9BA48" d="M120.582,5.642c0.968,0.546,2.219,0.434,3.048-0.374c0.829-0.8,0.952-2.027,0.383-2.97L120.582,5.642z"/>
	<rect x="89.772" y="-27.72" fill="#333333" width="1.259" height="1.227"/>
	<rect x="92.283" y="-27.72" fill="#333333" width="1.259" height="1.227"/>
	<rect x="94.801" y="-27.72" fill="#333333" width="1.259" height="1.227"/>
	<rect x="101.726" y="-27.72" fill="#333333" width="12.583" height="1.227"/>
	<path fill="#333333" d="M107.384-19.731c-4.845,0-8.783,3.837-8.783,8.557c0,4.72,3.938,8.558,8.783,8.558
		c4.844,0,8.783-3.838,8.783-8.558C116.167-15.894,112.229-19.731,107.384-19.731z M107.384-3.843c-4.146,0-7.524-3.292-7.524-7.332
		c0-4.039,3.378-7.33,7.524-7.33s7.524,3.291,7.524,7.33C114.908-7.135,111.53-3.843,107.384-3.843z"/>
	<path fill="#333333" d="M118.524-4.906l-0.883,0.868l-0.921-0.898c1.251-1.772,1.989-3.919,1.989-6.239
		c0-1.81-0.461-3.523-1.26-5.034v-7.226v-1.227v-6.126H86.625v6.126v1.227v22.067h15.416v-0.09c1.597,0.838,3.417,1.309,5.343,1.309
		c2.05,0,3.969-0.539,5.627-1.474l1.067,1.041l-0.891,0.875l5.996,5.841c0.737,0.718,1.705,1.078,2.664,1.078
		c0.968,0,1.935-0.359,2.664-1.078c1.482-1.428,1.482-3.762,0.008-5.198L118.524-4.906z M87.884-29.56h28.306v4.907H87.884V-29.56z
		 M87.884-2.594v-20.84h28.306v5.341c-2.081-2.505-5.251-4.114-8.806-4.114c-6.242,0-11.324,4.952-11.324,11.033
		c0,3.464,1.651,6.561,4.223,8.581H87.884z M107.384-1.367c-5.551,0-10.065-4.398-10.065-9.808c0-5.407,4.514-9.806,10.065-9.806
		s10.065,4.399,10.065,9.806C117.449-5.765,112.935-1.367,107.384-1.367z M115.937-3.963l0.813,0.792l-1.781,1.736l-0.883-0.868
		C114.762-2.789,115.384-3.349,115.937-3.963z M114.97,0.294l3.555-3.463l4.66,4.54l-3.554,3.463L114.97,0.294z M123.63,5.268
		c-0.829,0.808-2.081,0.92-3.048,0.374l3.432-3.344C124.582,3.241,124.458,4.468,123.63,5.268z"/>
	<polygon fill="#333333" points="111.976,-15.288 108.014,-11.428 106.125,-13.268 101.281,-8.541 102.164,-7.673 106.125,-11.533 
		108.014,-9.693 112.858,-14.42 	"/>
</g>
</svg>
