<?xml version="1.0" encoding="utf-8"?>
<!-- Generator: Adobe Illustrator 16.0.2, SVG Export Plug-In . SVG Version: 6.00 Build 0)  -->
<!DOCTYPE svg PUBLIC "-//W3C//DTD SVG 1.1//EN" "http://www.w3.org/Graphics/SVG/1.1/DTD/svg11.dtd">
<svg version="1.1" id="Layer_1" xmlns="http://www.w3.org/2000/svg" xmlns:xlink="http://www.w3.org/1999/xlink" x="0px" y="0px"
	 width="36px" height="33px" viewBox="109.56 54.365 36 33" enable-background="new 109.56 54.365 36 33" xml:space="preserve">
<polygon fill="#F9BA48" points="125.973,67.236 137.466,69.927 137.466,58.164 126.249,61.8 "/>
<g>
	<path fill="#333333" d="M118.482,67.808h0.517v4.184c0,1.261,1.042,2.286,2.321,2.286h2.053c0.317,0,0.574-0.253,0.574-0.565
		v-4.206c0-0.313-0.257-0.566-0.574-0.566s-0.575,0.253-0.575,0.566v3.64h-1.478c-0.646,0-1.171-0.518-1.171-1.154v-4.184h5.446
		l12.098,3.401c0.053,0.015,0.105,0.021,0.158,0.021c0.123,0,0.245-0.039,0.346-0.114c0.144-0.107,0.229-0.274,0.229-0.452V57.95
		c0-0.178-0.085-0.345-0.229-0.452s-0.33-0.142-0.504-0.092l-12.098,3.401h-7.112c-0.984,0-1.786,0.79-1.786,1.76v3.483
		C116.696,67.019,117.498,67.808,118.482,67.808z M137.276,69.915l-11.027-3.1V61.8l11.027-3.1V69.915z M117.845,62.566
		c0-0.346,0.286-0.628,0.637-0.628h6.618v4.738h-6.618c-0.351,0-0.637-0.282-0.637-0.627V62.566L117.845,62.566z"/>
	<path fill="#333333" d="M144.194,54.365h-33.267c-0.753,0-1.367,0.604-1.367,1.346v24.844c0,0.742,0.613,1.347,1.367,1.347h12.547
		v4.331h-5.418c-0.317,0-0.575,0.253-0.575,0.565s0.257,0.566,0.575,0.566h19.009c0.317,0,0.574-0.254,0.574-0.566
		s-0.257-0.565-0.574-0.565h-5.418v-4.331h12.547c0.753,0,1.366-0.604,1.366-1.347V55.711
		C145.56,54.969,144.947,54.365,144.194,54.365L144.194,54.365z M130.498,86.233h-5.875v-4.331h5.875V86.233L130.498,86.233z
		 M144.412,80.555c0,0.116-0.1,0.215-0.218,0.215h-33.267c-0.118,0-0.218-0.099-0.218-0.215V55.711c0-0.116,0.1-0.214,0.218-0.214
		h33.267c0.118,0,0.218,0.099,0.218,0.214V80.555z"/>
	<path fill="#333333" d="M142.61,76.165h-30.099c-0.317,0-0.575,0.253-0.575,0.566c0,0.313,0.257,0.565,0.575,0.565h30.099
		c0.316,0,0.574-0.253,0.574-0.565C143.184,76.418,142.926,76.165,142.61,76.165z"/>
</g>
</svg>
