<?xml version="1.0" encoding="utf-8"?>
<!-- Generator: Adobe Illustrator 16.0.2, SVG Export Plug-In . SVG Version: 6.00 Build 0)  -->
<!DOCTYPE svg PUBLIC "-//W3C//DTD SVG 1.1//EN" "http://www.w3.org/Graphics/SVG/1.1/DTD/svg11.dtd">
<svg version="1.1" id="Layer_1" xmlns="http://www.w3.org/2000/svg" xmlns:xlink="http://www.w3.org/1999/xlink" x="0px" y="0px"
	 width="39px" height="39px" viewBox="108.06 51.365 39 39" enable-background="new 108.06 51.365 39 39" xml:space="preserve">
<g>
	<g>
		<path fill="#333333" d="M131.963,54.51c0-1.734-1.411-3.146-3.145-3.146h-17.613c-1.734,0-3.146,1.411-3.146,3.146v32.709
			c0,1.734,1.411,3.146,3.146,3.146h17.613c1.733,0,3.145-1.411,3.145-3.146V77.148l3.221,0.005l6.352-1.271l3.26-1.585
			c0.878-0.433,1.25-1.472,0.846-2.364c-0.206-0.456-0.597-0.809-1.071-0.967c-0.475-0.16-0.999-0.112-1.439,0.127l-1.38,0.754
			l0.19-0.564c0.18-0.532,0.091-1.123-0.237-1.58c-0.328-0.457-0.858-0.728-1.42-0.728c-0.72,0-1.357,0.433-1.624,1.101
			l-0.818,2.047H135.9l-0.034-0.019l1.361-0.723c0.817-0.435,1.217-1.394,0.947-2.28c-0.155-0.512-0.503-0.928-0.98-1.17
			c-0.478-0.243-1.018-0.279-1.522-0.101l-3.707,1.299v-9.587L131.963,54.51L131.963,54.51z M111.206,52.623h17.613
			c1.04,0,1.887,0.846,1.887,1.887v1.887h-21.387V54.51C109.318,53.469,110.165,52.623,111.206,52.623z M128.819,89.107h-17.613
			c-1.041,0-1.887-0.847-1.887-1.888v-3.774h21.387v3.774C130.706,88.26,129.859,89.107,128.819,89.107z M139.827,70.543
			c0.135-0.336,0.644-0.4,0.855-0.105c0.093,0.13,0.118,0.292,0.066,0.445l-0.417,1.24h-1.136L139.827,70.543z M136.087,69.017
			c0.178-0.062,0.369-0.049,0.538,0.036c0.168,0.086,0.291,0.232,0.346,0.413c0.095,0.313-0.046,0.651-0.335,0.805l-3.517,1.87
			l2.482,1.241h5.971l2.16-1.182c0.136-0.074,0.291-0.089,0.437-0.04c0.146,0.049,0.262,0.153,0.325,0.293
			c0.123,0.271,0.01,0.586-0.256,0.717l-3.03,1.497l-6.149,1.231h-8.052l-2.592-0.519v-3.256h4.607l1.979-1.321L136.087,69.017z
			 M130.51,69.641l-1.869,1.223h-4.226v-1.887h-4.403v9.436h4.403v-1.752l2.399,0.479l3.891,0.006v5.041h-21.387V57.655h21.387
			v11.917L130.51,69.641z M123.157,70.236v6.919h-1.887v-6.919H123.157z"/>
		<rect x="119.383" y="53.881" fill="#333333" width="5.032" height="1.258"/>
		<rect x="115.608" y="53.881" fill="#333333" width="1.258" height="1.258"/>
		<path fill="#333333" d="M120.012,84.075c-1.214,0-2.201,0.987-2.201,2.201s0.987,2.201,2.201,2.201
			c1.214,0,2.202-0.987,2.202-2.201S121.226,84.075,120.012,84.075z M120.012,87.219c-0.52,0-0.943-0.423-0.943-0.943
			c0-0.52,0.423-0.943,0.943-0.943s0.944,0.424,0.944,0.943C120.956,86.797,120.532,87.219,120.012,87.219z"/>
		<path fill="#333333" d="M133.318,61.344l1.072,5.367c0.118,0.585,0.635,1.009,1.231,1.009h7.78c0.596,0,1.113-0.424,1.23-1.009
			l1.073-5.367c0.78-0.232,1.354-0.947,1.354-1.801c0-1.04-0.847-1.887-1.887-1.887h-3.774V54.51c0-1.041-0.847-1.887-1.887-1.887
			c-1.041,0-1.888,0.846-1.888,1.887v3.145h-3.774c-1.04,0-1.887,0.847-1.887,1.887C131.963,60.397,132.538,61.112,133.318,61.344z
			 M143.403,66.462l-7.778,0.002l-1.007-5.035h3.007h3.774h3.007L143.403,66.462z M145.173,58.913c0.347,0,0.629,0.282,0.629,0.629
			c0,0.348-0.282,0.629-0.629,0.629h-3.774v-1.258H145.173z M138.883,54.51c0-0.347,0.282-0.629,0.629-0.629
			s0.629,0.282,0.629,0.629v5.661h-1.258V54.51L138.883,54.51z M133.85,58.913h3.774v1.258h-3.774c-0.347,0-0.629-0.282-0.629-0.629
			S133.503,58.913,133.85,58.913z"/>
		<rect x="111.834" y="60.172" fill="#F9BA48" width="15.097" height="1.258"/>
		<rect x="113.722" y="63.946" fill="#F9BA48" width="13.209" height="1.258"/>
	</g>
</g>
</svg>
