<?xml version="1.0" encoding="utf-8"?>
<!-- Generator: Adobe Illustrator 16.0.2, SVG Export Plug-In . SVG Version: 6.00 Build 0)  -->
<!DOCTYPE svg PUBLIC "-//W3C//DTD SVG 1.1//EN" "http://www.w3.org/Graphics/SVG/1.1/DTD/svg11.dtd">
<svg version="1.1" id="Layer_1" xmlns="http://www.w3.org/2000/svg" xmlns:xlink="http://www.w3.org/1999/xlink" x="0px" y="0px"
	 width="38px" height="42px" viewBox="288.127 20.06 38 42" enable-background="new 288.127 20.06 38 42" xml:space="preserve">
<g>
	<path fill="#F9BA48" d="M310.93,32.915c0.03,0.049,0.045,0.102,0.069,0.151h1.51c0.024-0.051,0.039-0.103,0.068-0.151
		c0.07-0.113,0.159-0.22,0.258-0.324c0.013-0.013,0.019-0.027,0.031-0.04c-0.327-0.326-0.514-0.706-0.519-1.12
		c0-0.005-0.002-0.011-0.002-0.016c0-0.03,0.005-0.06,0.008-0.09h-1.199c0.004,0.029,0.008,0.059,0.008,0.09
		c0,0.006-0.002,0.011-0.002,0.016c-0.005,0.414-0.191,0.793-0.52,1.12c0.013,0.013,0.02,0.027,0.031,0.04
		C310.772,32.695,310.86,32.802,310.93,32.915z"/>
	<path fill="#F9BA48" d="M310.925,30.643c0.104,0.169,0.174,0.348,0.207,0.535C311.098,30.922,311.028,30.771,310.925,30.643z"/>
	<path fill="#F9BA48" d="M312.382,31.166c0.066-0.364,0.274-0.696,0.6-0.982C312.663,30.257,312.455,30.69,312.382,31.166z"/>
	<path fill="#F9BA48" d="M308.946,42.225c0,1.545,1.309,2.803,2.916,2.803s2.915-1.257,2.915-2.803c0-1.545-1.308-2.803-2.915-2.802
		C310.254,39.423,308.946,40.68,308.946,42.225z"/>
	<path fill="#F9BA48" d="M304.481,40.033c-0.223,0.16-0.355,0.326-0.355,0.468c0,0.443,1.162,1.112,2.915,1.112
		c0.271,0,0.521-0.021,0.762-0.049c0.071-0.407,0.207-0.793,0.397-1.149c-0.366,0.056-0.752,0.086-1.158,0.086
		C306.056,40.501,305.175,40.328,304.481,40.033z"/>
	<path fill="#F9BA48" d="M316.468,39.342c1.753,0,2.916-0.669,2.916-1.112c0-0.142-0.132-0.308-0.354-0.468
		c-0.694,0.295-1.575,0.468-2.561,0.468s-1.866-0.173-2.561-0.468c-0.224,0.16-0.355,0.326-0.355,0.468
		C313.553,38.673,314.716,39.342,316.468,39.342z"/>
	<path fill="#F9BA48" d="M316.468,34.799c1.753,0,2.916-0.668,2.916-1.111c0-0.143-0.132-0.309-0.354-0.468
		c-0.694,0.294-1.575,0.468-2.561,0.468s-1.866-0.173-2.561-0.468c-0.224,0.159-0.355,0.325-0.355,0.468
		C313.553,34.13,314.716,34.799,316.468,34.799z"/>
	<path fill="#F9BA48" d="M316.468,32.528c1.753,0,2.916-0.668,2.916-1.112c0-0.443-1.163-1.112-2.916-1.112
		c-1.752,0-2.915,0.669-2.915,1.112S314.716,32.528,316.468,32.528z"/>
	<path fill="#F9BA48" d="M319.957,30.183c0.324,0.286,0.533,0.618,0.6,0.982C320.484,30.69,320.275,30.257,319.957,30.183z"/>
	<path fill="#F9BA48" d="M319.029,40.033c-0.693,0.294-1.574,0.468-2.561,0.468c-0.321,0-0.631-0.02-0.929-0.055
		c0.187,0.354,0.317,0.737,0.386,1.141c0.175,0.015,0.354,0.025,0.543,0.025c1.753,0,2.916-0.669,2.916-1.112
		C319.384,40.359,319.252,40.193,319.029,40.033z"/>
	<path fill="#F9BA48" d="M307.041,32.528c1.752,0,2.915-0.669,2.915-1.112c0-0.143-0.133-0.308-0.354-0.468
		c-0.694,0.294-1.575,0.468-2.561,0.468c-0.984,0-1.866-0.173-2.56-0.468c-0.224,0.159-0.355,0.325-0.355,0.468
		C304.125,31.858,305.288,32.528,307.041,32.528z"/>
	<path fill="#F9BA48" d="M302.949,31.178c0.032-0.187,0.104-0.366,0.207-0.535C303.053,30.771,302.983,30.922,302.949,31.178z"/>
	<path fill="#F9BA48" d="M297.564,40.55c-1.752,0-2.915,0.668-2.915,1.111c0,0.443,1.163,1.111,2.915,1.111
		c1.753,0,2.915-0.669,2.915-1.111C300.479,41.219,299.317,40.55,297.564,40.55z"/>
	<path fill="#F9BA48" d="M300.125,43.465c-0.694,0.295-1.574,0.468-2.561,0.468c-0.985,0-1.866-0.173-2.561-0.468
		c-0.223,0.16-0.355,0.326-0.355,0.468c0,0.442,1.163,1.112,2.915,1.112c1.753,0,2.915-0.669,2.915-1.112
		C300.479,43.79,300.347,43.624,300.125,43.465z"/>
	<path fill="#F9BA48" d="M307.041,35.959c-0.984,0-1.866-0.174-2.56-0.469c-0.223,0.16-0.355,0.326-0.355,0.469
		c0,0.442,1.163,1.111,2.915,1.111c1.753,0,2.916-0.669,2.916-1.111c0-0.143-0.134-0.309-0.355-0.469
		C308.907,35.785,308.026,35.959,307.041,35.959z"/>
	<path fill="#F9BA48" d="M307.041,27.985c1.753,0,2.916-0.669,2.916-1.112c0-0.143-0.134-0.308-0.355-0.468
		c-0.694,0.295-1.575,0.468-2.561,0.468c-0.984,0-1.866-0.173-2.56-0.468c-0.223,0.16-0.355,0.326-0.355,0.468
		C304.125,27.316,305.289,27.985,307.041,27.985z"/>
	<path fill="#F9BA48" d="M307.041,23.442c1.752,0,2.915-0.668,2.915-1.111s-1.162-1.112-2.915-1.112s-2.915,0.669-2.915,1.112
		S305.288,23.442,307.041,23.442z"/>
	<path fill="#333333" d="M322.585,30.166h-2.647c-0.026-0.023-0.048-0.048-0.076-0.071c-0.731-0.582-1.952-0.951-3.394-0.951
		c-1.44,0-2.661,0.369-3.393,0.951c-0.028,0.022-0.049,0.047-0.076,0.071h-2.192c-0.042,0-0.087,0.084-0.135,0.148
		c-0.011-0.011-0.019-0.023-0.03-0.034c0.062-0.06,0.115-0.122,0.166-0.185c0.228-0.286,0.354-0.606,0.354-0.951
		c0-0.419-0.188-0.805-0.521-1.135c0.332-0.331,0.521-0.716,0.521-1.135c0-0.42-0.188-0.806-0.521-1.136
		c0.332-0.331,0.521-0.716,0.521-1.135c0-0.42-0.188-0.806-0.521-1.135c0.332-0.331,0.521-0.716,0.521-1.136
		c0-1.295-1.771-2.271-4.121-2.271c-2.349,0-4.122,0.977-4.122,2.271c0,0.42,0.189,0.806,0.521,1.136
		c-0.332,0.33-0.521,0.715-0.521,1.135c0,0.419,0.189,0.806,0.521,1.135c-0.332,0.331-0.521,0.716-0.521,1.136
		c0,0.419,0.189,0.805,0.521,1.135c-0.332,0.331-0.521,0.716-0.521,1.135c0,0.344,0.128,0.665,0.355,0.951
		c0.05,0.063,0.105,0.125,0.166,0.185c-0.011,0.011-0.02,0.023-0.029,0.034c-0.051-0.064-0.096-0.148-0.138-0.148h-11.826
		c-1.871,0-3.32,1.393-3.32,3.191v18.475c0,1.799,1.449,3.269,3.32,3.269h12.741h0.224v2.899h-4.56
		c-0.615,0-0.869,0.466-0.869,1.058v2.214c0,0.591,0.254,0.788,0.869,0.788h14.327c0.615,0,1.09-0.196,1.09-0.788v-2.214
		c0-0.591-0.475-1.058-1.09-1.058h-4.338v-2.899h0.002h12.741c1.871,0,3.542-1.469,3.542-3.269V33.358
		C326.127,31.559,324.457,30.166,322.585,30.166z M320.556,31.166c-0.066-0.364-0.275-0.696-0.6-0.982
		C320.275,30.257,320.484,30.69,320.556,31.166z M316.468,30.304c1.753,0,2.916,0.669,2.916,1.112c0,0.443-1.163,1.112-2.916,1.112
		c-1.752,0-2.915-0.669-2.915-1.112S314.716,30.304,316.468,30.304z M313.909,33.219c0.694,0.294,1.575,0.468,2.561,0.468
		s1.866-0.173,2.561-0.468c0.223,0.159,0.354,0.325,0.354,0.468c0,0.443-1.163,1.111-2.916,1.111c-1.752,0-2.915-0.668-2.915-1.111
		C313.553,33.545,313.685,33.379,313.909,33.219z M313.909,35.49c0.694,0.295,1.575,0.469,2.561,0.469s1.866-0.174,2.561-0.469
		c0.223,0.16,0.354,0.326,0.354,0.469c0,0.442-1.163,1.111-2.916,1.111c-1.752,0-2.915-0.669-2.915-1.111
		C313.553,35.816,313.685,35.65,313.909,35.49z M313.909,37.761c0.694,0.295,1.575,0.468,2.561,0.468s1.866-0.173,2.561-0.468
		c0.223,0.16,0.354,0.326,0.354,0.468c0,0.443-1.163,1.112-2.916,1.112c-1.752,0-2.915-0.668-2.915-1.112
		C313.553,38.088,313.685,37.922,313.909,37.761z M316.468,41.613c-0.189,0-0.368-0.011-0.543-0.025
		c-0.068-0.404-0.199-0.788-0.386-1.141c0.298,0.035,0.607,0.055,0.929,0.055c0.986,0,1.867-0.173,2.561-0.468
		c0.224,0.16,0.355,0.326,0.355,0.468C319.384,40.944,318.221,41.613,316.468,41.613z M319.384,42.773
		c0,0.443-1.163,1.112-2.916,1.112c-0.3,0-0.576-0.025-0.838-0.06c0.154-0.335,0.26-0.695,0.313-1.07
		c0.172,0.011,0.347,0.018,0.525,0.018c0.986,0,1.867-0.173,2.561-0.468C319.252,42.464,319.384,42.63,319.384,42.773z
		 M314.777,42.225c0,1.545-1.308,2.803-2.915,2.803s-2.916-1.257-2.916-2.803c0-1.545,1.309-2.802,2.916-2.802
		C313.469,39.423,314.777,40.68,314.777,42.225z M312.982,30.183c-0.325,0.286-0.533,0.618-0.6,0.982
		C312.455,30.69,312.663,30.257,312.982,30.183z M311.132,31.178c-0.033-0.187-0.103-0.366-0.207-0.535
		C311.028,30.771,311.098,30.922,311.132,31.178z M311.161,31.432c0-0.005,0.002-0.01,0.002-0.016c0-0.031-0.004-0.061-0.008-0.09
		h1.199c-0.003,0.03-0.008,0.06-0.008,0.09c0,0.005,0.002,0.011,0.002,0.016c0.005,0.414,0.191,0.793,0.519,1.12
		c-0.013,0.013-0.019,0.027-0.031,0.04c-0.099,0.104-0.188,0.211-0.258,0.324c-0.029,0.049-0.044,0.101-0.068,0.151H311
		c-0.024-0.05-0.039-0.103-0.069-0.151c-0.07-0.113-0.158-0.22-0.258-0.324c-0.012-0.013-0.019-0.026-0.031-0.04
		C310.969,32.225,311.156,31.845,311.161,31.432z M310.641,37.095c0.327-0.325,0.513-0.704,0.52-1.117
		c0-0.006,0.002-0.012,0.002-0.019c0-0.404-0.179-0.775-0.488-1.098c-0.012-0.012-0.021-0.026-0.032-0.039
		c0.227-0.226,0.383-0.478,0.461-0.749c0.032-0.111,0.051-0.225,0.056-0.342c0.003,0.038,0.004,0.074,0.004,0.106
		c0,0.133-0.023,0.387-0.06,0.387h1.303c-0.036,0-0.059-0.254-0.059-0.387c0-0.032,0.001-0.068,0.004-0.106
		c0.004,0.117,0.022,0.231,0.055,0.342c0.078,0.271,0.235,0.523,0.462,0.749c-0.012,0.013-0.021,0.025-0.032,0.039
		c-0.31,0.322-0.488,0.693-0.488,1.098c0,0.42,0.188,0.805,0.521,1.135c-0.332,0.331-0.521,0.716-0.521,1.135c0,0,0,0,0,0.001
		c0,0.021,0.004,0.042,0.005,0.063c-0.161-0.019-0.324-0.03-0.49-0.03c-0.241,0-0.476,0.024-0.707,0.063l0,0
		c-1.254,0.209-2.31,0.966-2.901,2.003c-0.018,0.029-0.037,0.057-0.053,0.086H308.2c-0.19,0.356-0.326,0.742-0.397,1.149
		c-0.24,0.028-0.491,0.049-0.762,0.049c-1.753,0-2.915-0.669-2.915-1.112c0-0.142,0.133-0.308,0.355-0.468
		c0.694,0.294,1.575,0.468,2.561,0.468c0.406,0,0.792-0.03,1.158-0.086l0,0c0.017-0.03,0.036-0.057,0.054-0.086
		c0.589-1.037,1.591-1.793,2.845-2.003c0.001-0.03-0.05-0.06-0.05-0.09c0-0.001,0-0.004,0-0.005c0-0.409-0.127-0.784-0.441-1.108
		C310.617,37.113,310.631,37.105,310.641,37.095z M308.079,43.795c-0.316,0.054-0.66,0.089-1.038,0.089
		c-1.753,0-2.915-0.669-2.915-1.112c0-0.142,0.132-0.308,0.355-0.468c0.693,0.294,1.575,0.468,2.56,0.468
		c0.255,0,0.499-0.013,0.738-0.035C307.829,43.108,307.929,43.464,308.079,43.795z M307.042,34.799
		c-1.752,0-2.915-0.668-2.915-1.111c-0.001-0.143,0.131-0.309,0.354-0.468c0.693,0.294,1.575,0.468,2.56,0.468
		c0.986,0,1.867-0.173,2.561-0.468c0.223,0.16,0.355,0.325,0.355,0.468C309.957,34.13,308.793,34.799,307.042,34.799z
		 M309.957,35.959c0,0.442-1.163,1.111-2.916,1.111c-1.752,0-2.915-0.669-2.915-1.111c0-0.143,0.133-0.309,0.355-0.469
		c0.693,0.295,1.575,0.469,2.56,0.469c0.985,0,1.866-0.174,2.561-0.469C309.823,35.65,309.957,35.816,309.957,35.959z
		 M304.481,28.677c0.693,0.295,1.575,0.468,2.56,0.468c0.985,0,1.866-0.173,2.561-0.468c0.222,0.16,0.355,0.325,0.355,0.468
		c0,0.442-1.163,1.112-2.916,1.112c-1.752,0-2.915-0.669-2.915-1.112C304.125,29.003,304.258,28.837,304.481,28.677z
		 M304.125,26.873c0-0.142,0.133-0.308,0.355-0.468c0.693,0.295,1.575,0.468,2.56,0.468c0.985,0,1.866-0.173,2.561-0.468
		c0.222,0.16,0.355,0.326,0.355,0.468c0,0.442-1.163,1.112-2.916,1.112C305.289,27.985,304.125,27.316,304.125,26.873z
		 M307.041,25.714c-1.752,0-2.915-0.669-2.915-1.111c0-0.143,0.133-0.309,0.355-0.468c0.693,0.294,1.575,0.468,2.56,0.468
		c0.985,0,1.866-0.174,2.561-0.468c0.222,0.16,0.355,0.325,0.355,0.468C309.957,25.044,308.793,25.714,307.041,25.714z
		 M307.041,21.219c1.753,0,2.915,0.669,2.915,1.112s-1.163,1.111-2.915,1.111c-1.753,0-2.915-0.669-2.915-1.111
		S305.288,21.219,307.041,21.219z M304.481,30.948c0.693,0.294,1.575,0.468,2.56,0.468c0.985,0,1.866-0.173,2.561-0.468
		c0.222,0.16,0.354,0.325,0.354,0.468c0,0.442-1.163,1.112-2.915,1.112c-1.753,0-2.915-0.669-2.915-1.112
		C304.125,31.273,304.257,31.107,304.481,30.948z M304.48,37.762c0.694,0.295,1.574,0.469,2.561,0.469
		c0.98,0,1.857-0.172,2.551-0.464c0.22,0.159,0.357,0.323,0.357,0.464c0,0.442-1.159,1.111-2.912,1.111s-2.913-0.668-2.913-1.111
		c0-0.143,0.133-0.309,0.354-0.469c-0.424-0.18-0.776-0.406-1.04-0.667c-0.331,0.331-0.521,0.716-0.521,1.135
		c0,0.42,0.189,0.805,0.521,1.136c-0.331,0.331-0.521,0.716-0.521,1.135c0,0.42,0.189,0.806,0.521,1.136
		c-0.331,0.331-0.521,0.715-0.521,1.135c0,1.295,1.771,2.271,4.122,2.271c0.628,0,1.213-0.072,1.736-0.199
		c0.755,0.821,1.856,1.343,3.084,1.343c1.207,0,2.291-0.505,3.046-1.303c0.478,0.102,1.002,0.158,1.561,0.158
		c2.351,0,4.123-0.976,4.123-2.271c0-0.42-0.189-0.805-0.521-1.135c0.331-0.331,0.521-0.716,0.521-1.136
		c0-0.419-0.189-0.804-0.521-1.135c0.331-0.331,0.521-0.715,0.521-1.136c0-0.419-0.189-0.805-0.521-1.135
		c0.331-0.331,0.521-0.715,0.521-1.135c0-0.404-0.179-0.775-0.488-1.098c-0.013-0.012-0.021-0.026-0.032-0.039
		c0.227-0.226,0.384-0.478,0.461-0.749c0.034-0.111,0.054-0.225,0.058-0.342c0.002,0.038,0.003,0.074,0.003,0.106
		c0,0.133-0.022,0.387-0.059,0.387h1.133c0.138,0,0.24-0.04,0.24,0.091v12.979c0,0.131-0.103,0.267-0.239,0.267h-29.298
		c-0.136,0-0.019-0.136-0.019-0.267V34.316c0-0.131-0.117-0.091,0.019-0.091h10.61c-0.036,0-0.06-0.254-0.06-0.387
		c0-0.032,0.001-0.068,0.004-0.106c0.005,0.117,0.023,0.231,0.056,0.342c0.078,0.271,0.235,0.523,0.461,0.749
		c-0.012,0.013-0.021,0.025-0.032,0.039c-0.31,0.322-0.488,0.694-0.488,1.098c0,0.42,0.189,0.805,0.521,1.135
		C303.702,37.356,304.055,37.582,304.48,37.762z M303.156,30.643c-0.104,0.169-0.175,0.348-0.207,0.535
		C302.983,30.922,303.053,30.771,303.156,30.643z M314.063,59.16v1.74h-13.872v-1.74h4.088c0.616,0,1.341-0.496,1.341-1.088v-2.971
		h3.016v2.971c0,0.592,0.503,1.088,1.119,1.088H314.063z M324.921,51.833c0,1.16-1.13,2.109-2.336,2.109h-31.138
		c-1.206,0-2.114-0.949-2.114-2.109V33.358c0-1.16,0.908-2.032,2.114-2.032h11.479c-0.003,0.03-0.008,0.06-0.008,0.09
		c0,0.005,0.003,0.011,0.003,0.016c0.004,0.414,0.19,0.793,0.518,1.12c-0.012,0.013-0.02,0.027-0.03,0.04
		c-0.1,0.104-0.188,0.211-0.258,0.324c-0.03,0.049-0.045,0.101-0.07,0.151h-10.713c-0.804,0-1.225,0.478-1.225,1.25v12.979
		c0,0.773,0.421,1.427,1.225,1.427h29.298c0.804,0,1.445-0.654,1.445-1.427V34.316c0-0.772-0.642-1.25-1.445-1.25h-1.236
		c-0.024-0.05-0.039-0.103-0.069-0.151c-0.07-0.113-0.159-0.22-0.258-0.324c-0.013-0.013-0.019-0.026-0.031-0.04
		c0.327-0.326,0.514-0.706,0.519-1.12c0-0.005,0.002-0.011,0.002-0.016c0-0.031-0.004-0.061-0.008-0.09h2.002
		c1.207,0,2.336,0.872,2.336,2.032V51.833z"/>
	<path fill="#333333" d="M308.2,40.415L308.2,40.415c0.017-0.03,0.036-0.057,0.054-0.086
		C308.236,40.358,308.216,40.385,308.2,40.415L308.2,40.415z"/>
	<ellipse fill="#333333" cx="307.017" cy="51.446" rx="1.003" ry="0.964"/>
	<path fill="#333333" d="M297.564,39.39c-2.35,0-4.121,0.977-4.121,2.271c0,0.42,0.188,0.805,0.521,1.136
		c-0.332,0.331-0.521,0.715-0.521,1.135c0,1.295,1.772,2.271,4.121,2.271c2.35,0,4.122-0.977,4.122-2.271
		c0-0.42-0.188-0.805-0.521-1.135c0.332-0.331,0.521-0.716,0.521-1.136C301.686,40.366,299.914,39.39,297.564,39.39z
		 M297.564,45.045c-1.752,0-2.915-0.669-2.915-1.112c0-0.143,0.133-0.309,0.355-0.468c0.694,0.295,1.575,0.468,2.561,0.468
		c0.986,0,1.866-0.173,2.561-0.468c0.222,0.16,0.354,0.326,0.354,0.468C300.479,44.375,299.317,45.045,297.564,45.045z
		 M297.564,42.773c-1.752,0-2.915-0.668-2.915-1.111c0-0.443,1.163-1.111,2.915-1.111c1.753,0,2.915,0.668,2.915,1.111
		C300.479,42.104,299.317,42.773,297.564,42.773z"/>
</g>
</svg>
