<?xml version="1.0" encoding="utf-8"?>
<!-- Generator: Adobe Illustrator 16.0.2, SVG Export Plug-In . SVG Version: 6.00 Build 0)  -->
<!DOCTYPE svg PUBLIC "-//W3C//DTD SVG 1.1//EN" "http://www.w3.org/Graphics/SVG/1.1/DTD/svg11.dtd">
<svg version="1.1" id="Layer_1" xmlns="http://www.w3.org/2000/svg" xmlns:xlink="http://www.w3.org/1999/xlink" x="0px" y="0px"
	 width="40px" height="51px" viewBox="107.56 45.365 40 51" enable-background="new 107.56 45.365 40 51" xml:space="preserve">
<ellipse fill="#F9BA48" cx="127.467" cy="54.236" rx="8.531" ry="8.47"/>
<ellipse fill="#F9BA48" cx="113.735" cy="81.846" rx="3.381" ry="3.356"/>
<ellipse fill="#F9BA48" cx="127.56" cy="81.846" rx="3.381" ry="3.356"/>
<ellipse fill="#F9BA48" cx="141.385" cy="81.846" rx="3.38" ry="3.356"/>
<g>
	<g>
		<path fill="#333333" d="M113.735,77.042c-2.668,0-4.839,2.155-4.839,4.805c0,2.648,2.17,4.804,4.839,4.804
			c2.668,0,4.838-2.155,4.838-4.804C118.574,79.197,116.403,77.042,113.735,77.042z M113.735,85.067
			c-1.789,0-3.244-1.445-3.244-3.221c0-1.776,1.455-3.221,3.244-3.221c1.788,0,3.243,1.444,3.243,3.221
			C116.979,83.622,115.523,85.067,113.735,85.067z"/>
	</g>
</g>
<g>
	<g>
		<path fill="#333333" d="M113.522,86.847c-3.288,0-5.962,2.655-5.962,5.92v2.806c0,0.438,0.357,0.792,0.797,0.792h10.27
			c0.434,0,0.788-0.345,0.797-0.775l0.061-2.806c0-0.005,0-0.011,0-0.017C119.485,89.503,116.81,86.847,113.522,86.847z
			 M117.846,94.781h-8.691v-2.014c0-2.392,1.959-4.336,4.368-4.336c2.405,0,4.363,1.94,4.367,4.328L117.846,94.781z"/>
	</g>
</g>
<g>
	<g>
		<path fill="#333333" d="M141.384,77.042c-2.667,0-4.839,2.155-4.839,4.805c0,2.648,2.172,4.804,4.839,4.804
			c2.669,0,4.839-2.155,4.839-4.804C146.223,79.197,144.053,77.042,141.384,77.042z M141.384,85.067
			c-1.788,0-3.243-1.445-3.243-3.221c0-1.776,1.455-3.221,3.243-3.221c1.789,0,3.244,1.444,3.244,3.221
			C144.628,83.622,143.173,85.067,141.384,85.067z"/>
	</g>
</g>
<g>
	<g>
		<path fill="#333333" d="M141.597,86.847c-3.287,0-5.962,2.655-5.962,5.92c0,0.006,0,0.012,0,0.017l0.061,2.806
			c0.009,0.431,0.363,0.775,0.797,0.775h10.27c0.44,0,0.798-0.354,0.798-0.792v-2.806C147.56,89.503,144.885,86.847,141.597,86.847z
			 M137.274,94.781l-0.044-2.021c0.004-2.388,1.962-4.328,4.367-4.328c2.408,0,4.367,1.945,4.367,4.336v2.014H137.274
			L137.274,94.781z"/>
	</g>
</g>
<g>
	<g>
		<path fill="#333333" d="M127.712,77.042c-2.668,0-4.839,2.155-4.839,4.805c0,2.648,2.17,4.804,4.839,4.804
			c2.668,0,4.839-2.155,4.839-4.804C132.551,79.197,130.38,77.042,127.712,77.042z M127.712,85.067
			c-1.789,0-3.244-1.445-3.244-3.221c0-1.776,1.455-3.221,3.244-3.221c1.788,0,3.243,1.444,3.243,3.221
			C130.956,83.622,129.5,85.067,127.712,85.067z"/>
	</g>
</g>
<g>
	<g>
		<path fill="#333333" d="M127.5,86.847c-3.288,0-5.962,2.655-5.962,5.92v2.806c0,0.438,0.357,0.792,0.797,0.792h10.27
			c0.434,0,0.788-0.345,0.798-0.775l0.06-2.806c0-0.005,0-0.011,0-0.017C133.461,89.503,130.788,86.847,127.5,86.847z
			 M131.823,94.781h-8.69v-2.014c0-2.392,1.959-4.336,4.367-4.336c2.405,0,4.362,1.94,4.367,4.328L131.823,94.781z"/>
	</g>
</g>
<g>
	<g>
		<path fill="#333333" d="M133.597,53.633c-0.054-0.329-0.136-0.656-0.243-0.973c-0.142-0.414-0.595-0.636-1.012-0.496
			c-0.417,0.141-0.642,0.59-0.5,1.004c0.08,0.233,0.141,0.475,0.18,0.717c0.063,0.389,0.401,0.666,0.786,0.666
			c0.042,0,0.085-0.003,0.128-0.01C133.372,54.471,133.667,54.065,133.597,53.633z"/>
	</g>
</g>
<g>
	<g>
		<path fill="#333333" d="M132.255,50.717c-1.168-1.388-2.88-2.185-4.695-2.185c-0.441,0-0.798,0.354-0.798,0.792
			s0.357,0.792,0.798,0.792c1.341,0,2.606,0.589,3.471,1.616c0.157,0.188,0.384,0.285,0.612,0.285c0.18,0,0.361-0.061,0.511-0.185
			C132.492,51.552,132.538,51.052,132.255,50.717z"/>
	</g>
</g>
<g>
	<g>
		<path fill="#333333" d="M140.747,71.973h-12.389v-2.217h2.605c0.44,0,0.797-0.354,0.797-0.792v-2.957v-2.957
			c0-0.066-0.009-0.13-0.024-0.192c3.039-1.522,5.129-4.65,5.129-8.254c0-5.095-4.174-9.24-9.305-9.24s-9.305,4.145-9.305,9.239
			c0,3.604,2.089,6.733,5.129,8.255c-0.016,0.062-0.024,0.126-0.024,0.192v2.957v2.957c0,0.438,0.357,0.792,0.797,0.792h2.605v2.217
			h-13.24c-0.44,0-0.797,0.354-0.797,0.792v2.111c0,0.438,0.357,0.792,0.797,0.792s0.797-0.354,0.797-0.792v-1.319h12.442v1.319
			c0,0.438,0.357,0.792,0.798,0.792s0.798-0.354,0.798-0.792v-1.319h11.591v1.319c0,0.438,0.357,0.792,0.798,0.792
			s0.797-0.354,0.797-0.792v-2.111C141.544,72.328,141.187,71.973,140.747,71.973z M130.166,65.216h-5.211v-1.373h2.605h2.605
			V65.216z M126.23,62.143V56.24h2.659v5.902c-0.432,0.075-0.875,0.116-1.329,0.116S126.663,62.218,126.23,62.143z M124.635,54.181
			v0.475h-0.904c-0.44,0-0.797,0.354-0.797,0.792s0.357,0.792,0.797,0.792h0.904v5.445c-2.805-1.146-4.785-3.888-4.785-7.082
			c0-4.221,3.458-7.655,7.71-7.655c4.251,0,7.71,3.434,7.71,7.655c0,3.193-1.98,5.935-4.786,7.082V56.24h0.904
			c0.44,0,0.798-0.354,0.798-0.792c0-0.438-0.357-0.792-0.798-0.792h-0.904v-0.475c0-0.438-0.356-0.792-0.797-0.792
			c-0.441,0-0.798,0.354-0.798,0.792v0.475h-2.659v-0.475c0-0.438-0.357-0.792-0.797-0.792
			C124.992,53.389,124.635,53.744,124.635,54.181z M127.56,68.172h-2.605v-1.373h5.211v1.373H127.56z"/>
	</g>
</g>
<g>
	<g>
		<path fill="#333333" d="M114.722,51.285h-3.309c-0.44,0-0.797,0.354-0.797,0.792s0.357,0.792,0.797,0.792h3.309
			c0.441,0,0.798-0.354,0.798-0.792S115.163,51.285,114.722,51.285z"/>
	</g>
</g>
<g>
	<g>
		<path fill="#333333" d="M116.21,54.205c-0.312-0.31-0.817-0.31-1.128,0l-2.105,2.09c-0.312,0.309-0.312,0.811,0,1.12
			c0.156,0.154,0.36,0.232,0.564,0.232s0.408-0.078,0.564-0.232l2.105-2.091C116.522,55.015,116.522,54.514,116.21,54.205z"/>
	</g>
</g>
<g>
	<g>
		<path fill="#333333" d="M116.189,48.829l-2.106-2.091c-0.311-0.309-0.816-0.309-1.128,0c-0.311,0.31-0.311,0.811,0,1.12
			l2.105,2.091c0.156,0.154,0.36,0.232,0.564,0.232c0.204,0,0.409-0.078,0.564-0.232C116.5,49.64,116.5,49.138,116.189,48.829z"/>
	</g>
</g>
<g>
	<g>
		<path fill="#333333" d="M144.557,51.285h-3.31c-0.439,0-0.797,0.354-0.797,0.792c0,0.438,0.357,0.792,0.797,0.792h3.31
			c0.44,0,0.797-0.354,0.797-0.792S144.998,51.285,144.557,51.285z"/>
	</g>
</g>
<g>
	<g>
		<path fill="#333333" d="M142.994,56.296l-2.105-2.09c-0.312-0.31-0.816-0.31-1.128,0c-0.312,0.309-0.312,0.811,0,1.12l2.105,2.091
			c0.156,0.154,0.359,0.232,0.564,0.232c0.204,0,0.407-0.078,0.563-0.232C143.306,57.106,143.306,56.605,142.994,56.296z"/>
	</g>
</g>
<g>
	<g>
		<path fill="#333333" d="M143.015,46.739c-0.312-0.309-0.816-0.309-1.128,0l-2.105,2.091c-0.312,0.309-0.312,0.811,0,1.12
			c0.156,0.154,0.36,0.232,0.563,0.232c0.204,0,0.409-0.078,0.564-0.232l2.105-2.091C143.327,47.549,143.327,47.048,143.015,46.739z
			"/>
	</g>
</g>
</svg>
