<?xml version="1.0" encoding="utf-8"?>
<!-- Generator: Adobe Illustrator 16.0.2, SVG Export Plug-In . SVG Version: 6.00 Build 0)  -->
<!DOCTYPE svg PUBLIC "-//W3C//DTD SVG 1.1//EN" "http://www.w3.org/Graphics/SVG/1.1/DTD/svg11.dtd">
<svg version="1.1" id="Layer_1" xmlns="http://www.w3.org/2000/svg" xmlns:xlink="http://www.w3.org/1999/xlink" x="0px" y="0px"
	 width="34px" height="40px" viewBox="110.56 50.865 34 40" enable-background="new 110.56 50.865 34 40" xml:space="preserve">
<g>
	<g>
		<ellipse fill="#F9BA48" cx="130.079" cy="68.273" rx="8.815" ry="9.001"/>
		<path fill="#333333" d="M143.157,53.486c-4.42,0-8.741-0.85-12.844-2.525l-0.234-0.096l-0.233,0.096
			c-4.104,1.676-8.425,2.525-12.845,2.525h-1.403v13.501h-3.148c-1.041,0-1.889,0.865-1.889,1.929v10.929
			c0,1.063,0.848,1.929,1.889,1.929h5.667c0.001,0,0.001,0,0.003,0c1.487,2.413,3.548,4.406,6.005,5.773l5.955,3.317l5.955-3.317
			c5.26-2.929,8.526-8.549,8.526-14.666V53.486H143.157z M111.819,79.845V68.916c0-0.354,0.282-0.643,0.63-0.643h5.667
			c0.347,0,0.629,0.289,0.629,0.643v10.929c0,0.354-0.282,0.644-0.629,0.644h-5.667C112.101,80.489,111.819,80.2,111.819,79.845z
			 M120.004,70.197c2.103-0.117,3.778-1.9,3.778-4.075v-3.313c0-0.886,0.706-1.607,1.574-1.607s1.574,0.721,1.574,1.607v4.046
			c0,1.137,0.905,2.061,2.018,2.061h4.616c1.202,0,2.181,0.999,2.181,2.227v7.12c0,1.228-0.979,2.227-2.181,2.227h-9.277
			c-0.5,0-0.963-0.254-1.241-0.679c-0.511-0.783-1.367-1.25-2.289-1.25h-0.754V70.197L120.004,70.197z M143.301,72.882
			c0,5.646-3.016,10.834-7.87,13.537l-5.353,2.981l-5.353-2.981c-2.19-1.22-4.042-2.977-5.403-5.103
			c0.382-0.328,0.634-0.804,0.669-1.344c1.271,2.238,3.1,4.071,5.337,5.317l4.749,2.646l4.75-2.646
			c4.449-2.478,7.214-7.232,7.214-12.407V63.13h-1.26v9.752c0,4.704-2.513,9.026-6.557,11.278l-4.147,2.31l-4.146-2.31
			c-1.774-0.988-3.265-2.385-4.385-4.074c0.176,0.112,0.333,0.256,0.452,0.438c0.511,0.783,1.367,1.25,2.289,1.25h9.277
			c1.897,0,3.44-1.575,3.44-3.512v-7.12c0-1.937-1.543-3.512-3.44-3.512h-4.615c-0.419,0-0.76-0.348-0.76-0.775v-4.046
			c0-1.596-1.271-2.894-2.833-2.894c-1.562,0-2.833,1.298-2.833,2.894v3.312c0,1.466-1.114,2.658-2.521,2.773
			c-0.006-0.559-0.249-1.056-0.627-1.405V57.27c3.657-0.229,7.254-0.993,10.704-2.272c3.45,1.279,7.046,2.042,10.704,2.272v0.717
			h1.259v-1.94l-0.601-0.028c-3.812-0.178-7.561-0.955-11.144-2.308l-0.219-0.083l-0.219,0.082
			c-3.583,1.354-7.333,2.13-11.144,2.308l-0.6,0.029v10.941h-1.26V54.772H117c4.498,0,8.895-0.849,13.078-2.523
			c4.183,1.674,8.58,2.523,13.078,2.523h0.145V72.882L143.301,72.882z"/>
		<rect x="140.783" y="60.558" fill="#333333" width="1.259" height="1.286"/>
		<rect x="113.079" y="77.917" fill="#333333" width="4.407" height="1.286"/>
	</g>
</g>
</svg>
