<?xml version="1.0" encoding="utf-8"?>
<!-- Generator: Adobe Illustrator 16.0.2, SVG Export Plug-In . SVG Version: 6.00 Build 0)  -->
<!DOCTYPE svg PUBLIC "-//W3C//DTD SVG 1.1//EN" "http://www.w3.org/Graphics/SVG/1.1/DTD/svg11.dtd">
<svg version="1.1" id="Layer_1" xmlns="http://www.w3.org/2000/svg" xmlns:xlink="http://www.w3.org/1999/xlink" x="0px" y="0px"
	 width="31px" height="40px" viewBox="401.058 30.123 31 40" enable-background="new 401.058 30.123 31 40" xml:space="preserve">
<g>
	<polygon fill="#F9BA48" points="403.221,63.669 407.478,67.948 407.478,63.669 405.408,63.669 	"/>
	<path fill="#F9BA48" d="M407.055,37.777l1.034-1.3c0.12-0.151,0.303-0.239,0.495-0.239h7.298c0.35,0,0.634,0.285,0.634,0.637v4.756
		v5.095v5.436v5.436v1.062h4.814v-1.062v-5.436v-5.435v-5.096v-4.756c0-0.352,0.283-0.637,0.634-0.637h7.298
		c0.192,0,0.374,0.088,0.495,0.239l1.034,1.3v-6.38h-23.736V37.777z M425.343,32.501h4.393c0.35,0,0.633,0.285,0.633,0.637
		c0,0.352-0.283,0.637-0.633,0.637h-4.393c-0.35,0-0.634-0.285-0.634-0.637S424.994,32.501,425.343,32.501z M419.937,32.501h3.041
		c0.35,0,0.633,0.285,0.633,0.637c0,0.352-0.283,0.637-0.633,0.637h-3.041c-0.35,0-0.634-0.285-0.634-0.637
		S419.587,32.501,419.937,32.501z"/>
	<path fill="#333333" d="M431.425,30.123h-25.004c-0.35,0-0.633,0.286-0.633,0.637v8.832c0,0.271,0.17,0.512,0.424,0.602
		c0.254,0.089,0.536,0.008,0.704-0.203l1.972-2.479h6.36v3.482h-13.558c-0.35,0-0.633,0.285-0.633,0.637v21.401
		c0,0.021,0.001,0.042,0.003,0.063c0.001,0.009,0.003,0.018,0.004,0.027c0.002,0.012,0.003,0.023,0.005,0.035
		c0.003,0.01,0.005,0.021,0.008,0.031c0.002,0.01,0.005,0.02,0.008,0.029c0.003,0.01,0.007,0.021,0.01,0.03
		c0.004,0.01,0.007,0.02,0.011,0.029s0.009,0.019,0.013,0.027c0.005,0.01,0.009,0.02,0.014,0.029
		c0.005,0.009,0.01,0.017,0.016,0.026c0.005,0.009,0.011,0.019,0.017,0.027c0.006,0.01,0.013,0.019,0.02,0.028
		c0.006,0.007,0.011,0.015,0.017,0.022c0.013,0.015,0.026,0.03,0.04,0.044c0.001,0.001,0.002,0.002,0.003,0.003l6.419,6.454
		c0.001,0.001,0.002,0.002,0.003,0.003c0.015,0.014,0.028,0.027,0.044,0.039c0.007,0.006,0.015,0.012,0.022,0.017
		c0.009,0.007,0.018,0.014,0.027,0.021c0.009,0.005,0.018,0.011,0.027,0.017c0.009,0.005,0.017,0.01,0.025,0.015
		c0.01,0.005,0.02,0.01,0.028,0.014c0.01,0.004,0.019,0.008,0.028,0.013c0.01,0.004,0.019,0.007,0.028,0.01
		c0.01,0.004,0.02,0.008,0.03,0.011c0.009,0.003,0.019,0.005,0.028,0.007c0.01,0.003,0.021,0.006,0.031,0.008
		c0.011,0.002,0.022,0.003,0.033,0.005c0.01,0.001,0.019,0.003,0.028,0.004c0.021,0.002,0.042,0.002,0.063,0.002h17.57
		c0.35,0,0.633-0.285,0.633-0.637V41.631c0-0.352-0.283-0.637-0.633-0.637h-3.083v-3.482h6.359l1.973,2.479
		c0.168,0.211,0.45,0.292,0.704,0.203c0.254-0.09,0.424-0.331,0.424-0.602V30.76C432.058,30.408,431.775,30.123,431.425,30.123z
		 M407.478,67.948l-4.257-4.28h2.187h2.07V67.948z M425.047,42.267v26.582h-16.303v-5.181h13.22c0.35,0,0.634-0.285,0.634-0.637
		c0-0.352-0.284-0.637-0.634-0.637h-13.854h-2.703h-3.083V42.267h12.924v3.822h-9.841c-0.35,0-0.633,0.285-0.633,0.637
		c0,0.352,0.283,0.637,0.633,0.637h9.841v4.162h-9.841c-0.35,0-0.633,0.285-0.633,0.637s0.283,0.637,0.633,0.637h9.841v4.161h-9.841
		c-0.35,0-0.633,0.285-0.633,0.637c0,0.352,0.283,0.637,0.633,0.637h9.841v1.062c0,0.352,0.284,0.637,0.634,0.637h6.082
		c0.35,0,0.634-0.285,0.634-0.637v-1.698v-5.436v-5.436v-4.458H425.047z M430.792,37.777l-1.034-1.3
		c-0.121-0.151-0.303-0.239-0.495-0.239h-7.298c-0.351,0-0.634,0.285-0.634,0.637v4.756v5.096v5.435v5.436v1.062h-4.814v-1.062
		v-5.436v-5.436v-5.095v-4.756c0-0.352-0.284-0.637-0.634-0.637h-7.298c-0.192,0-0.375,0.088-0.495,0.239l-1.034,1.3v-6.38h23.736
		V37.777z"/>
	<path fill="#333333" d="M425.343,33.775h4.393c0.35,0,0.633-0.285,0.633-0.637c0-0.352-0.283-0.637-0.633-0.637h-4.393
		c-0.35,0-0.634,0.285-0.634,0.637S424.994,33.775,425.343,33.775z"/>
	<path fill="#333333" d="M419.937,33.775h3.041c0.35,0,0.633-0.285,0.633-0.637c0-0.352-0.283-0.637-0.633-0.637h-3.041
		c-0.35,0-0.634,0.285-0.634,0.637S419.587,33.775,419.937,33.775z"/>
</g>
</svg>
