<?xml version="1.0" encoding="utf-8"?>
<!-- Generator: Adobe Illustrator 16.0.2, SVG Export Plug-In . SVG Version: 6.00 Build 0)  -->
<!DOCTYPE svg PUBLIC "-//W3C//DTD SVG 1.1//EN" "http://www.w3.org/Graphics/SVG/1.1/DTD/svg11.dtd">
<svg version="1.1" id="Layer_1" xmlns="http://www.w3.org/2000/svg" xmlns:xlink="http://www.w3.org/1999/xlink" x="0px" y="0px"
	 width="255.121px" height="141.73px" viewBox="0 0 255.121 141.73" enable-background="new 0 0 255.121 141.73"
	 xml:space="preserve">
<g>
	<rect x="-15.717" y="80.423" fill="#F9BA48" width="5.067" height="1.267"/>
	<rect x="-25.85" y="82.956" fill="#F9BA48" width="1.9" height="1.899"/>
	<path fill="#F9BA48" d="M-17.617,65.222c0-0.349,0.283-0.633,0.633-0.633h7.6c0.35,0,0.633,0.284,0.633,0.633v3.167h1.267v-3.167
		c0-1.047-0.852-1.9-1.9-1.9h-7.6c-1.047,0-1.9,0.853-1.9,1.9v3.167h1.267V65.222z"/>
	<path fill="#F9BA48" d="M5.151,89.923c-0.31-4.034-3.534-7.259-7.568-7.568v1.234h-1.267v-1.234
		c-4.035,0.31-7.259,3.534-7.568,7.568h1.234v1.267h-1.235c0.128,1.666,0.751,3.19,1.725,4.434h0.144v0.187
		c1.384,1.666,3.414,2.772,5.7,2.947v-1.234h1.267v1.234c4.034-0.309,7.258-3.533,7.568-7.567H3.917v-1.267H5.151z M0.302,94.803
		l-3.8-3.8c-0.12-0.118-0.186-0.279-0.186-0.448v-5.7h1.267v5.438l3.614,3.614L0.302,94.803z"/>
	<path fill="#333333" d="M5.184,78.522v-3.8v-3.167c0-1.746-1.421-3.167-3.167-3.167h-8.233v-3.167c0-1.746-1.421-3.167-3.167-3.167
		h-7.6c-1.746,0-3.167,1.421-3.167,3.167v3.167h-8.233c-1.746,0-3.167,1.42-3.167,3.167v1.267v5.7v15.2
		c0,1.746,1.421,3.167,3.167,3.167h18.272c1.741,1.938,4.257,3.166,7.062,3.166c5.238,0,9.5-4.261,9.5-9.5
		c0-1.718-0.466-3.327-1.267-4.719V78.522z M-18.883,65.222c0-1.047,0.853-1.9,1.9-1.9h7.6c1.048,0,1.9,0.853,1.9,1.9v3.167H-8.75
		v-3.167c0-0.349-0.283-0.633-0.633-0.633h-7.6c-0.35,0-0.633,0.284-0.633,0.633v3.167h-1.267V65.222z M-10.017,65.855v2.534h-6.333
		v-2.534H-10.017z M-30.283,72.822v-1.267c0-1.047,0.853-1.9,1.9-1.9h30.4c1.047,0,1.9,0.853,1.9,1.9v3.167v3.8
		c0,1.746-1.421,3.167-3.167,3.167H0.333c-1.053-0.403-2.19-0.633-3.383-0.633c-1.193,0-2.33,0.229-3.383,0.633h-2.951V79.79
		c0-0.351-0.283-0.635-0.633-0.635h-6.333c-0.35,0-0.633,0.284-0.633,0.635v1.899h-6.333h-3.167h-0.633
		c-1.746,0-3.167-1.421-3.167-3.167V72.822z M3.917,81.619v2.499c-0.497-0.536-1.046-1.023-1.654-1.434
		C2.893,82.454,3.457,82.09,3.917,81.619z M-10.65,80.423v1.267h-5.067v-1.267H-10.65z M-23.95,82.956v1.899h-1.9v-1.899H-23.95z
		 M-28.383,95.623c-1.047,0-1.9-0.853-1.9-1.9V81.619c0.806,0.823,1.926,1.337,3.167,1.337v2.533c0,0.35,0.283,0.633,0.633,0.633
		h3.167c0.351,0,0.633-0.283,0.633-0.633v-2.533h6.333h6.333h1.291c-2.316,1.733-3.824,4.49-3.824,7.6
		c0,1.863,0.547,3.599,1.478,5.067H-28.383z M5.151,91.189c-0.31,4.034-3.534,7.259-7.568,7.567v-1.234h-1.267v1.234
		c-2.287-0.175-4.316-1.281-5.7-2.947v-0.187h-0.144c-0.974-1.243-1.597-2.768-1.725-4.434h1.235v-1.267h-1.234
		c0.309-4.034,3.533-7.259,7.568-7.568v1.234h1.267v-1.234c4.034,0.31,7.258,3.534,7.568,7.568H3.917v1.267H5.151z"/>
	<path fill="#333333" d="M-2.417,84.855h-1.267v5.7c0,0.169,0.066,0.33,0.186,0.448l3.8,3.8l0.896-0.896l-3.614-3.614V84.855z"/>
	<rect x="-3.683" y="78.522" fill="#333333" width="1.267" height="1.268"/>
	<rect x="-1.15" y="78.522" fill="#333333" width="1.267" height="1.268"/>
	<rect x="-6.216" y="78.522" fill="#333333" width="1.267" height="1.268"/>
</g>
</svg>
