<?xml version="1.0" encoding="utf-8"?>
<!-- Generator: Adobe Illustrator 16.0.2, SVG Export Plug-In . SVG Version: 6.00 Build 0)  -->
<!DOCTYPE svg PUBLIC "-//W3C//DTD SVG 1.1//EN" "http://www.w3.org/Graphics/SVG/1.1/DTD/svg11.dtd">
<svg version="1.1" id="Layer_1" xmlns="http://www.w3.org/2000/svg" xmlns:xlink="http://www.w3.org/1999/xlink" x="0px" y="0px"
	 width="63px" height="61px" viewBox="0 0 63 61" enable-background="new 0 0 63 61" xml:space="preserve">
<g>
	<g>
		<path d="M44.694,32.362c-0.426-0.34-1.047-0.269-1.387,0.158c-0.354,0.447-0.739,0.879-1.145,1.284
			c-0.835,0.838-1.766,1.573-2.762,2.188c-0.465,0.285-0.609,0.895-0.325,1.359c0.187,0.304,0.511,0.471,0.842,0.471
			c0.176,0,0.354-0.048,0.516-0.146c1.129-0.694,2.18-1.527,3.124-2.474c0.458-0.458,0.893-0.946,1.294-1.451
			C45.191,33.324,45.121,32.702,44.694,32.362z"/>
	</g>
</g>
<g>
	<g>
		<path d="M47.546,22.134c-0.545,0-0.986,0.443-0.986,0.989c0,2.07-0.402,4.068-1.195,5.938c-0.212,0.502,0.022,1.083,0.523,1.296
			c0.126,0.053,0.257,0.079,0.385,0.079c0.384,0,0.75-0.226,0.908-0.602c0.897-2.116,1.352-4.374,1.352-6.71
			C48.532,22.577,48.091,22.134,47.546,22.134z"/>
	</g>
</g>
<g>
	<g>
		<path d="M54.122,20.553c-0.555,0-1.104,0.054-1.645,0.155V18.84h2.171c0.545,0,0.986-0.442,0.986-0.988v-5.797
			c0-0.545-0.441-0.988-0.986-0.988h-3.157H11.508H8.352c-0.545,0-0.987,0.442-0.987,0.988v5.797c0,0.546,0.442,0.988,0.987,0.988
			h2.17v1.868c-0.54-0.102-1.089-0.155-1.644-0.155C3.982,20.553,0,24.542,0,29.446s3.982,8.893,8.877,8.893
			c2.251,0,4.381-0.847,6.011-2.353c3.213,4.165,7.858,6.94,12.995,7.835v8.663c-4.719,0.82-9.028,3.239-12.212,6.876
			c-0.255,0.291-0.317,0.706-0.157,1.06c0.16,0.353,0.511,0.58,0.898,0.58h30.176c0.388,0,0.738-0.228,0.898-0.58
			c0.16-0.354,0.099-0.769-0.157-1.06c-3.185-3.637-7.493-6.056-12.212-6.876v-8.663c5.136-0.895,9.781-3.671,12.994-7.835
			c1.63,1.506,3.76,2.353,6.011,2.353c4.896,0,8.878-3.989,8.878-8.893S59.018,20.553,54.122,20.553z M9.338,16.864v-3.821h2.17
			h39.983h2.171v3.821h-2.171H11.508H9.338z M54.122,26.746c1.486,0,2.696,1.211,2.696,2.701c0,1.489-1.21,2.701-2.696,2.701
			c-1.413,0-2.561-1.069-2.682-2.461c0.193-0.595,0.362-1.208,0.504-1.832C52.453,27.157,53.256,26.746,54.122,26.746z
			 M11.559,29.686c-0.121,1.392-1.27,2.461-2.682,2.461c-1.487,0-2.696-1.212-2.696-2.701s1.209-2.701,2.696-2.701
			c0.867,0,1.669,0.412,2.177,1.109C11.196,28.478,11.366,29.091,11.559,29.686z M8.877,36.363c-3.807,0-6.905-3.103-6.905-6.917
			s3.098-6.917,6.905-6.917c0.557,0,1.107,0.068,1.644,0.2v0.394c0,0.662,0.033,1.323,0.094,1.981
			c-0.543-0.218-1.131-0.335-1.738-0.335c-2.575,0-4.669,2.098-4.669,4.677c0,2.579,2.095,4.677,4.669,4.677
			c1.524,0,2.873-0.72,3.724-1.846c0.342,0.711,0.723,1.402,1.144,2.071C12.456,35.636,10.718,36.363,8.877,36.363z M44.227,59.024
			H18.773c2.851-2.559,6.409-4.209,10.225-4.71c0.491-0.064,0.858-0.484,0.858-0.98v-9.197h3.289v9.197
			c0,0.496,0.367,0.916,0.857,0.98C37.817,54.815,41.375,56.465,44.227,59.024z M47.198,33.888c-0.001,0-0.001,0.001-0.001,0.002
			c-3.538,5.178-9.405,8.271-15.697,8.271c-6.292,0-12.161-3.093-15.697-8.271c0-0.001-0.001-0.001-0.001-0.002
			c-0.98-1.436-1.757-2.995-2.31-4.636c-0.218-0.648-0.405-1.327-0.555-2.015c0,0,0,0,0-0.001c-0.293-1.346-0.441-2.73-0.441-4.114
			v-1.13V18.84h38.01v3.152v1.13c0,1.384-0.148,2.769-0.441,4.114c0,0,0,0,0,0.001c-0.15,0.688-0.338,1.366-0.556,2.015
			C48.955,30.893,48.179,32.453,47.198,33.888z M54.122,36.363c-1.841,0-3.578-0.727-4.868-2.014
			c0.422-0.669,0.803-1.36,1.145-2.071c0.851,1.126,2.199,1.846,3.724,1.846c2.574,0,4.669-2.099,4.669-4.677
			c0-2.579-2.095-4.677-4.669-4.677c-0.607,0-1.194,0.117-1.738,0.335c0.061-0.658,0.094-1.32,0.094-1.981v-0.394
			c0.537-0.132,1.087-0.2,1.645-0.2c3.807,0,6.904,3.103,6.904,6.917S57.929,36.363,54.122,36.363z"/>
	</g>
</g>
<g>
	<g>
		<path d="M40.849,27.54c-0.139-0.397-0.512-0.663-0.932-0.663h-5.622l-1.868-5.146c-0.143-0.391-0.513-0.65-0.928-0.65
			s-0.785,0.259-0.927,0.65l-1.868,5.146h-5.622c-0.419,0-0.793,0.266-0.932,0.663c-0.138,0.396-0.011,0.837,0.318,1.099
			l4.751,3.782l-1.407,5.169c-0.112,0.41,0.051,0.846,0.404,1.082c0.354,0.236,0.818,0.219,1.153-0.042l4.129-3.217l4.129,3.217
			c0.177,0.138,0.392,0.208,0.606,0.208c0.189,0,0.38-0.056,0.546-0.166c0.354-0.236,0.517-0.672,0.404-1.082l-1.406-5.169
			l4.751-3.782C40.859,28.378,40.986,27.937,40.849,27.54z M34.043,31.278c-0.31,0.246-0.442,0.653-0.338,1.034l0.8,2.938
			l-2.4-1.869c-0.178-0.139-0.392-0.209-0.605-0.209s-0.427,0.07-0.605,0.209l-2.399,1.869l0.8-2.938
			c0.104-0.381-0.029-0.788-0.338-1.034l-3.047-2.425h3.486c0.415,0,0.785-0.26,0.927-0.65l1.177-3.244l1.178,3.244
			c0.142,0.39,0.512,0.65,0.927,0.65h3.485L34.043,31.278z"/>
	</g>
</g>
<g>
	<g>
		<path d="M34.131,2.635h-1.645V0.988C32.486,0.443,32.045,0,31.5,0c-0.544,0-0.986,0.442-0.986,0.988v1.647h-1.644
			c-0.545,0-0.986,0.442-0.986,0.988s0.441,0.988,0.986,0.988h1.644v1.647c0,0.545,0.441,0.988,0.986,0.988s0.987-0.442,0.987-0.988
			V4.611h1.645c0.544,0,0.986-0.442,0.986-0.988C35.117,3.078,34.675,2.635,34.131,2.635z"/>
	</g>
</g>
<g>
	<g>
		<path d="M48.86,2.635h-1.644V0.988C47.217,0.443,46.775,0,46.23,0s-0.986,0.442-0.986,0.988v1.647H43.6
			c-0.544,0-0.986,0.442-0.986,0.988s0.442,0.988,0.986,0.988h1.645v1.647c0,0.545,0.441,0.988,0.986,0.988s0.986-0.442,0.986-0.988
			V4.611h1.644c0.546,0,0.986-0.442,0.986-0.988C49.847,3.078,49.406,2.635,48.86,2.635z"/>
	</g>
</g>
<g>
	<g>
		<path d="M20.452,2.635h-1.644V0.988C18.808,0.443,18.366,0,17.821,0s-0.987,0.442-0.987,0.988v1.647h-1.644
			c-0.545,0-0.987,0.442-0.987,0.988s0.441,0.988,0.987,0.988h1.644v1.647c0,0.545,0.441,0.988,0.987,0.988
			c0.545,0,0.986-0.442,0.986-0.988V4.611h1.644c0.545,0,0.986-0.442,0.986-0.988C21.438,3.078,20.997,2.635,20.452,2.635z"/>
	</g>
</g>
</svg>
