<svg fill="#3c2302" xmlns="http://www.w3.org/2000/svg" version="1.1" x="0px" y="0px" viewBox="0 0 65 81.25" enable-background="new 0 0 65 65" xml:space="preserve">
  <g>
    <path d="M-0.2,3.7v57.7h65.5V3.7H-0.2z M63.8,5.2v6.5H1.3V5.2H63.8z M1.3,59.8V13.1h62.5v46.7H1.3z"/>
    <rect x="4.8" y="7.7" width="1.5" height="1.5"/>
    <rect x="12.4" y="7.7" width="1.5" height="1.5"/>
    <rect x="8.6" y="7.7" width="1.5" height="1.5"/>
    <path d="M19,9.2h40.3c0.4,0,0.8-0.3,0.8-0.8c0-0.4-0.3-0.8-0.8-0.8H19c-0.4,0-0.8,0.3-0.8,0.8C18.3,8.9,18.6,9.2,19,9.2z"/>
    <path d="M26.2,33v21.7c0,1.5,1.3,2.8,2.8,2.8c1.5,0,2.8-1.3,2.8-2.8V33L29,27.4L26.2,33z M27.7,36.1h2.6v14.8h-2.6V36.1z M29,56   c-0.7,0-1.3-0.6-1.3-1.3v-2.3h2.6v2.3C30.3,55.4,29.7,56,29,56z M30.3,34.6h-2.6v-1.3l1.3-2.6l1.3,2.6V34.6z"/><path d="M35.4,56h24.7V25.3H35.4V56z M36.9,26.8h21.7v27.7H36.9V26.8z"/><path d="M38.6,36.2h18.2v-7.3H38.6V36.2z M40.1,30.4h15.2v4.3H40.1V30.4z"/><rect x="40.2" y="48.7" width="4.9" height="1.5"/><rect x="52" y="51.3" width="1.7" height="1.5"/><rect x="49.9" y="48.7" width="5.9" height="1.5"/><rect x="52" y="46.1" width="1.7" height="1.5"/><polygon points="43.4,38.7 41.9,38.7 41.9,40.4 40.2,40.4 40.2,41.9 41.9,41.9 41.9,43.6 43.4,43.6 43.4,41.9 45.1,41.9 45.1,40.4    43.4,40.4  "/><polygon points="51.6,43.4 52.8,42.2 54,43.4 55.1,42.3 53.9,41.1 55.1,39.9 54,38.9 52.8,40.1 51.6,38.9 50.6,39.9 51.8,41.1    50.6,42.3  "/><rect x="6.2" y="18.7" width="35.7" height="1.5"/><rect x="6.2" y="25.9" width="19.8" height="1.5"/><rect x="6.2" y="33" width="16.9" height="1.5"/>
    <rect x="6.2" y="40.2" width="16.9" height="1.5"/>
    <rect x="6.2" y="47.3" width="16.9" height="1.5"/>
    <rect x="6.2" y="54.5" width="16.9" height="1.5"/>
  </g>
</svg>
