<?xml version="1.0" encoding="utf-8"?>
<!-- Generator: Adobe Illustrator 19.0.1, SVG Export Plug-In . SVG Version: 6.00 Build 0)  -->
<svg version="1.1" id="Слой_1" xmlns="http://www.w3.org/2000/svg" xmlns:xlink="http://www.w3.org/1999/xlink" x="0px" y="0px"
	 viewBox="0 0 512 512" style="enable-background:new 0 0 512 512;" xml:space="preserve">
<style type="text/css">
	.st0{fill:url(#SVGID_1_);stroke:url(#SVGID_2_);stroke-width:15;stroke-miterlimit:10;}
	.st1{fill:url(#SVGID_3_);}
</style>
<linearGradient id="SVGID_1_" gradientUnits="userSpaceOnUse" x1="62.0296" y1="353.443" x2="431.7289" y2="139.997">
	<stop  offset="0" style="stop-color:#000000"/>
	<stop  offset="2.644271e-003" style="stop-color:#010101"/>
	<stop  offset="8.676906e-002" style="stop-color:#151515"/>
	<stop  offset="0.1698" style="stop-color:#222222"/>
	<stop  offset="0.25" style="stop-color:#262626"/>
	<stop  offset="0.2579" style="stop-color:#252525"/>
	<stop  offset="0.5103" style="stop-color:#111111"/>
	<stop  offset="0.7595" style="stop-color:#040404"/>
	<stop  offset="1" style="stop-color:#000000"/>
</linearGradient>
<linearGradient id="SVGID_2_" gradientUnits="userSpaceOnUse" x1="53.8294" y1="357.0047" x2="439.34" y2="134.43">
	<stop  offset="0" style="stop-color:#BC6B00"/>
	<stop  offset="1.567088e-002" style="stop-color:#C47A14"/>
	<stop  offset="5.540328e-002" style="stop-color:#D59C41"/>
	<stop  offset="9.537779e-002" style="stop-color:#E4B967"/>
	<stop  offset="0.135" style="stop-color:#EFCF84"/>
	<stop  offset="0.1742" style="stop-color:#F8DE98"/>
	<stop  offset="0.2128" style="stop-color:#FCE8A5"/>
	<stop  offset="0.25" style="stop-color:#FEEBA9"/>
	<stop  offset="0.297" style="stop-color:#F6DC95"/>
	<stop  offset="0.4162" style="stop-color:#E5BA68"/>
	<stop  offset="0.5361" style="stop-color:#D69D42"/>
	<stop  offset="0.6551" style="stop-color:#CB8725"/>
	<stop  offset="0.7727" style="stop-color:#C27811"/>
	<stop  offset="0.8884" style="stop-color:#BE6E04"/>
	<stop  offset="1" style="stop-color:#BC6B00"/>
</linearGradient>
<polygon class="st0" points="124.8,62.9 78.7,382.3 256,495.8 433.3,382.3 387.2,62.9 "/>
<linearGradient id="SVGID_3_" gradientUnits="userSpaceOnUse" x1="89.455" y1="349.5406" x2="360.2681" y2="193.1866">
	<stop  offset="0" style="stop-color:#BC6B00"/>
	<stop  offset="1.567088e-002" style="stop-color:#C47A14"/>
	<stop  offset="5.540328e-002" style="stop-color:#D59C41"/>
	<stop  offset="9.537779e-002" style="stop-color:#E4B967"/>
	<stop  offset="0.135" style="stop-color:#EFCF84"/>
	<stop  offset="0.1742" style="stop-color:#F8DE98"/>
	<stop  offset="0.2128" style="stop-color:#FCE8A5"/>
	<stop  offset="0.25" style="stop-color:#FEEBA9"/>
	<stop  offset="0.297" style="stop-color:#F6DC95"/>
	<stop  offset="0.4162" style="stop-color:#E5BA68"/>
	<stop  offset="0.5361" style="stop-color:#D69D42"/>
	<stop  offset="0.6551" style="stop-color:#CB8725"/>
	<stop  offset="0.7727" style="stop-color:#C27811"/>
	<stop  offset="0.8884" style="stop-color:#BE6E04"/>
	<stop  offset="1" style="stop-color:#BC6B00"/>
</linearGradient>
<path class="st1" d="M230.1,172.9c0,0,41.6,1.3,56.7,12.7c5.5,4.2,6.6,7.6,9.9,12c0,0,3.8,3.4,7.3,3.8c3.5,0.4,62.3,13.5,69.6,17.7
	c6.2,3.5,5.4,8.7-0.7,21c-2.9,5.8-3.2,8.2-6.5,13.7c-3.9,6.7-19.6,13.1-32.1,15.9c-14.8,3.3-74.2,9.2-75.1,38.4
	c-2.5,86.7-3.4,161.9-3.4,161.9s-54.9-35.5-153.3-97.6c0,0,52.8-27.1,59.9-140.4c0,0-21.1-7.6-12.6-55.2c5.4-30,20.2-90.6,20.2-90.6
	s17.3,56.4,24.2,72.7c0,0,6.8-24.7,20.4-64.9C214.8,94,225.3,155.2,230.1,172.9z"/>
</svg>
