<svg fill="#3c2302" xmlns="http://www.w3.org/2000/svg" data-name="Слой 1" viewBox="0 0 128 160" x="0px" y="0px">
  <path d="M48.75,80.94H4V20.79H14.12a2,2,0,1,0,0-4H2a2,2,0,0,0-2,2V82.94a2,2,0,0,0,2,2H48.75a2,2,0,0,0,0-4Z"/>
  <path d="M76.88,20.79H87V40.33a2,2,0,0,0,4,0V18.79a2,2,0,0,0-2-2H76.88a2,2,0,0,0,0,4Z"/>
  <path d="M28.13,20.79H62.87a2,2,0,0,0,0-4H28.13a2,2,0,0,0,0,4Z"/>
  <path d="M16,42.07V39.28a2,2,0,0,0-4,0v4.78a2,2,0,0,0,2,2h9.15a2,2,0,1,0,0-4Z"/>
  <path d="M23.11,54.59H16V51.81a2,2,0,0,0-4,0v4.78a2,2,0,0,0,2,2h9.15a2,2,0,1,0,0-4Z"/>
  <path d="M14,62.34a2,2,0,0,0-2,2v4.78a2,2,0,0,0,2,2h9.15a2,2,0,1,0,0-4H16V64.34A2,2,0,0,0,14,62.34Z"/>
  <path d="M41.09,42.07H33.94V39.28a2,2,0,0,0-4,0v4.78a2,2,0,0,0,2,2h9.15a2,2,0,0,0,0-4Z"/>
  <path d="M41.09,54.59H33.94V51.81a2,2,0,0,0-4,0v4.78a2,2,0,0,0,2,2h9.15a2,2,0,0,0,0-4Z"/>
  <path d="M31.94,62.34a2,2,0,0,0-2,2v4.78a2,2,0,0,0,2,2h9.15a2,2,0,0,0,0-4H33.94V64.34A2,2,0,0,0,31.94,62.34Z"/>
  <path d="M59.06,42.07H51.91V39.28a2,2,0,0,0-4,0v4.78a2,2,0,0,0,2,2h9.15a2,2,0,0,0,0-4Z"/>
  <path d="M59.06,54.59H51.91V51.81a2,2,0,0,0-4,0v4.78a2,2,0,0,0,2,2h9.15a2,2,0,0,0,0-4Z"/>
  <path d="M49.91,62.34a2,2,0,0,0-2,2v4.78a2,2,0,0,0,2,2h9.15a2,2,0,0,0,0-4H51.91V64.34A2,2,0,0,0,49.91,62.34Z"/>
  <path d="M67.89,46.07H77a2,2,0,0,0,0-4H69.89V39.28a2,2,0,0,0-4,0v4.78A2,2,0,0,0,67.89,46.07Z"/>
  <path d="M67.89,58.59H77a2,2,0,1,0,0-4H69.89V51.81a2,2,0,1,0-4,0v4.78A2,2,0,0,0,67.89,58.59Z"/>
  <path d="M67.89,71.12H77a2,2,0,1,0,0-4H69.89V64.34a2,2,0,0,0-4,0v4.78A2,2,0,0,0,67.89,71.12Z"/>
  <path d="M21.13,30.75a2,2,0,0,0,2-2V2a2,2,0,0,0-4,0V28.75A2,2,0,0,0,21.13,30.75Z"/>
  <path d="M69.88,30.75a2,2,0,0,0,2-2V2a2,2,0,0,0-4,0V28.75A2,2,0,0,0,69.88,30.75Z"/>
  <path
    d="M128,52.59c0-6-9.29-10.6-21.6-10.6s-21.6,4.56-21.6,10.6c0,.16,0,.31,0,.47a2,2,0,0,0,0,.42v17a2,2,0,0,0,4,0v-.94c3.85,2.65,10.16,4.32,17.6,4.32s13.75-1.67,17.6-4.32v4.54c0,2.76-6.7,6.6-17.6,6.6h-.93a18.44,18.44,0,0,1-3.15-.16,2,2,0,1,0-.52,4,20.73,20.73,0,0,0,3.05.2h1.55c7.44,0,13.75-1.67,17.6-4.32v4.54c0,2.76-6.7,6.6-17.6,6.6h-.93a18.08,18.08,0,0,1-3.15-.17,2,2,0,0,0-.52,4,20.61,20.61,0,0,0,3.05.2h1.55c7.44,0,13.75-1.67,17.6-4.32v4.54c0,2.76-6.7,6.6-17.6,6.6h-.93a18.44,18.44,0,0,1-3.15-.16,2,2,0,1,0-.52,4,20.73,20.73,0,0,0,3.05.2h1.55c7.44,0,13.75-1.67,17.6-4.32v4.54c0,2.76-6.7,6.6-17.6,6.6h-.93a18.17,18.17,0,0,1-3.15-.17,2,2,0,0,0-.52,4,20.61,20.61,0,0,0,3.05.2h1.55c12.31,0,21.6-4.56,21.6-10.6V53.47a2,2,0,0,0,0-.42C128,52.9,128,52.74,128,52.59ZM106.4,46c10.9,0,17.6,3.85,17.6,6.6s-6.7,6.6-17.6,6.6-17.6-3.85-17.6-6.6S95.5,46,106.4,46Zm0,23.9c-10.9,0-17.6-3.85-17.6-6.6V58.87c3.85,2.65,10.16,4.32,17.6,4.32s13.75-1.67,17.6-4.32v4.41C124,66,117.3,69.88,106.4,69.88Z"/>
  <path
    d="M75.53,74.44c-12.31,0-21.6,4.56-21.6,10.6,0,.16,0,.31,0,.47a2,2,0,0,0,0,.42V117.4c0,6,9.29,10.6,21.6,10.6s21.6-4.56,21.6-10.6V85.93a2,2,0,0,0,0-.42c0-.16,0-.31,0-.47C97.13,79,87.84,74.44,75.53,74.44Zm17.6,32.12c0,2.76-6.7,6.6-17.6,6.6s-17.6-3.85-17.6-6.6V102c3.85,2.65,10.16,4.32,17.6,4.32s13.75-1.67,17.6-4.32Zm0-10.83c0,2.76-6.7,6.6-17.6,6.6s-17.6-3.85-17.6-6.6V91.33c3.85,2.65,10.16,4.32,17.6,4.32S89.28,94,93.13,91.33Zm-17.6-17.3c10.9,0,17.6,3.85,17.6,6.6s-6.7,6.6-17.6,6.6-17.6-3.85-17.6-6.6S64.62,78.44,75.53,78.44Zm0,45.56c-10.9,0-17.6-3.85-17.6-6.6v-4.54c3.85,2.65,10.16,4.32,17.6,4.32s13.75-1.67,17.6-4.32v4.54C93.13,120.15,86.43,124,75.53,124Z"/>
</svg>
