<svg fill="#3c2302" xmlns="http://www.w3.org/2000/svg" version="1.1" x="0px" y="0px" viewBox="0 0 128 160" style="enable-background:new 0 0 128 128;" xml:space="preserve"><rect style="" width="128" height="128" fill="none"/><path d="M14,65h82c4.963,0,9-4.038,9-9V43h17c0.553,0,1-0.448,1-1V6c0-0.552-0.447-1-1-1H86c-0.553,0-1,0.448-1,1v15.586  l-6.293-6.293l-1.414,1.414L83.586,23H66.949C66.424,12.989,58.139,5,48,5H28C17.523,5,9,13.523,9,24s8.523,19,19,19h20  c10.139,0,18.424-7.989,18.949-18h16.637l-6.293,6.293l1.414,1.414L85,26.414V42c0,0.552,0.447,1,1,1h17v13c0,3.86-3.141,7-7,7H14  c-4.963,0-9,4.038-9,9v20c0,4.962,4.037,9,9,9h3.586l-6.293,6.293l1.414,1.414l5.547-5.547l-7.186,18.478  c-0.12,0.308-0.08,0.654,0.106,0.927S11.67,123,12,123h36c0.412,0,0.782-0.253,0.932-0.638L54.906,107h22.68l-6.293,6.293  l1.414,1.414L79,108.414V114c0,4.963,4.037,9,9,9h26c4.963,0,9-4.037,9-9V94c0-4.962-4.037-9-9-9H88c-4.963,0-9,4.038-9,9v9.586  l-6.293-6.293l-1.414,1.414L77.586,105H55.684l7.248-18.638c0.12-0.308,0.08-0.654-0.106-0.927S62.33,85,62,85H26  c-0.412,0-0.782,0.253-0.932,0.638L20.024,98.61l-7.317-7.317l-1.414,1.414L17.586,99H14c-3.859,0-7-3.14-7-7V72  C7,68.14,10.141,65,14,65z M48,41H28c-9.374,0-17-7.626-17-17S18.626,7,28,7h20c9.374,0,17,7.626,17,17S57.374,41,48,41z M87,7h34  v34H87V7z M81,94c0-3.86,3.141-7,7-7h26c3.859,0,7,3.14,7,7v20c0,3.859-3.141,7-7,7H88c-3.859,0-7-3.141-7-7V94z M26.684,87h33.854  l-13.222,34H13.462L26.684,87z"/><rect x="24" y="15" width="28" height="2"/><rect x="24" y="23" width="28" height="2"/><rect x="24" y="31" width="28" height="2"/><rect x="32" y="95" width="18" height="2"/><rect x="28" y="103" width="18" height="2"/><rect x="24" y="111" width="18" height="2"/><rect x="92" y="15" width="24" height="2"/><rect x="92" y="23" width="24" height="2"/><rect x="92" y="31" width="24" height="2"/><rect x="86" y="95" width="30" height="2"/><rect x="86" y="103" width="30" height="2"/><rect x="86" y="111" width="30" height="2"/></svg>
