<svg fill="#3c2302" xmlns="http://www.w3.org/2000/svg" version="1.1" x="0px" y="0px" viewBox="0 0 100 125" enable-background="new 0 0 100 100" xml:space="preserve"><path d="M71.06,63.777c-0.997,0-1.987,0.16-2.94,0.475c-0.077,0.024-0.151,0.051-0.226,0.078c-1.596-1.144-3.531-1.771-5.488-1.771  c-0.994,0-1.983,0.158-2.939,0.473c-4.226,1.394-6.873,5.53-6.398,9.918c-3.162,1.82-4.617,5.582-3.465,9.075  c1.042,3.162,3.98,5.286,7.31,5.286c0.665,0,1.332-0.088,1.979-0.261c0.074-0.008,0.146-0.023,0.216-0.047l15.276-5.033  c0.07-0.024,0.138-0.054,0.201-0.091c4.571-1.847,6.941-6.953,5.395-11.646C78.708,66.372,75.123,63.777,71.06,63.777z   M74.369,81.448c-0.044,0.027-0.09,0.05-0.14,0.067l-15.271,5.031c-0.052,0.018-0.103,0.027-0.153,0.03  c-0.631,0.171-1.267,0.253-1.893,0.253c-3.032,0-5.854-1.919-6.855-4.954c-1.124-3.414,0.439-7.056,3.527-8.662  c-0.604-4.198,1.865-8.353,6.033-9.727c0.925-0.306,1.865-0.45,2.788-0.45c1.973,0,3.874,0.659,5.411,1.833  c0.148-0.059,0.301-0.112,0.451-0.162c0.928-0.305,1.868-0.45,2.792-0.45c3.744,0,7.229,2.377,8.466,6.126  C81.007,74.884,78.71,79.717,74.369,81.448z"/><path d="M89.99,79.002l-1.145-3.5l-7.012-21.457l-15.015,4.886c-0.182,0.059-0.361,0.088-0.535,0.088  c-0.622,0-1.199-0.372-1.727-1.118l-1.173-1.72L35.644,65.26c-0.416,0.144-0.635,0.425-0.75,0.649  c-0.088,0.173-0.14,0.354-0.162,0.518l9.046,27.68c0.171,0.522,0.656,0.852,1.176,0.852c0.127,0,0.255-0.021,0.383-0.062  l43.862-14.335C89.847,80.349,90.202,79.65,89.99,79.002z M89.05,80.104L45.188,94.441c-0.076,0.024-0.155,0.037-0.235,0.037  c-0.329,0-0.619-0.21-0.721-0.521l-9.008-27.565c0.021-0.092,0.054-0.183,0.097-0.264c0.102-0.202,0.263-0.341,0.472-0.412  l27.398-8.969l0.975,1.431c0.621,0.876,1.333,1.32,2.118,1.32c0.225,0,0.455-0.038,0.683-0.112l14.56-4.737l6.863,21.002l1.144,3.5  C89.663,79.548,89.445,79.975,89.05,80.104z"/><path d="M70.287,66.978c-0.008,0-0.017,0-0.023,0c-0.031,0-0.062,0-0.093,0c-0.014,0-0.027,0-0.041,0l0.08,0.479h0.056  c2.673,0.24,4.965,2.027,5.84,4.559c1.18,3.397-0.498,7.142-3.813,8.524c-0.026,0.01-0.062,0.03-0.086,0.045l-12.477,4.317  c-0.021,0.003-0.046,0.008-0.066,0.015c-0.49,0.14-0.994,0.211-1.501,0.211c-2.314,0-4.378-1.467-5.136-3.653  c-0.667-1.925-0.203-4.04,1.21-5.523c0.405-0.354,0.768-0.604,1.156-0.802c0.513-0.234,0.932-0.375,1.313-0.443  c0.419-0.064,0.731-0.096,1.012-0.096c0.102,0,0.201,0.004,0.319,0.015c0.349,0.018,0.707,0.083,1.137,0.204  c0.368,0.127,0.688,0.26,0.934,0.384l0.38,0.22l0.178,0.127l0.141,0.101c0.114,0.076,0.202,0.154,0.273,0.218  c0.045,0.04,0.085,0.075,0.115,0.099c0.084,0.07,0.131,0.111,0.134,0.115c0.093,0.083,0.207,0.124,0.322,0.124  c0.121,0,0.242-0.046,0.336-0.136c0.182-0.178,0.192-0.465,0.027-0.657l-0.153-0.172c-0.022-0.021-0.045-0.049-0.069-0.079  c-0.083-0.097-0.196-0.228-0.339-0.342c-0.064-0.057-0.133-0.118-0.207-0.183l-0.102-0.089c-0.014-0.012-0.027-0.022-0.041-0.032  l-0.313-0.226l-0.08-0.057c-0.105-0.071-0.221-0.139-0.342-0.207l-0.161-0.093c-0.127-0.071-0.266-0.129-0.409-0.189  c-0.059-0.024-0.12-0.049-0.217-0.091c-0.339-0.119-0.854-0.286-1.416-0.348c-0.231-0.035-0.479-0.054-0.737-0.054  c-0.296,0-0.609,0.023-0.937,0.07c-0.245,0.035-0.492,0.091-0.741,0.161c-0.069-2.947,1.748-5.602,4.58-6.583  c0.723-0.251,1.474-0.377,2.23-0.377c1.171,0,2.344,0.314,3.369,0.895c-0.056,0.038-0.108,0.075-0.163,0.114  c-0.647,0.496-1.181,1.022-1.585,1.566c-0.461,0.619-0.803,1.235-1.012,1.811c-0.276,0.68-0.403,1.35-0.479,1.836  c-0.006,0.091-0.016,0.18-0.024,0.266c-0.019,0.186-0.037,0.365-0.035,0.557c0.003,0.086,0.005,0.17,0.005,0.253  c0.003,0.163,0.006,0.319,0.022,0.482l0.081,0.65l0.059,0.265l0.048,0.221c0.045,0.251,0.118,0.449,0.173,0.595  c0.019,0.053,0.037,0.099,0.058,0.166l0.085,0.242c0.069,0.198,0.253,0.32,0.451,0.32c0.045,0,0.089-0.006,0.134-0.021  c0.245-0.07,0.393-0.321,0.334-0.568l-0.055-0.225c-0.011-0.063-0.028-0.137-0.05-0.219c-0.033-0.13-0.069-0.279-0.091-0.463  l-0.064-0.455l-0.01-0.234l-0.015-0.341c0.002-0.409,0.041-0.858,0.115-1.317c0.087-0.414,0.216-0.955,0.475-1.507  c0.224-0.54,0.581-1.052,0.896-1.474c0.337-0.438,0.771-0.853,1.323-1.264c0.476-0.336,1.046-0.627,1.68-0.859  c0.669-0.218,1.28-0.338,1.87-0.369l-0.024-0.479c-0.676,0.035-1.329,0.176-1.993,0.392c-0.641,0.236-1.259,0.535-1.81,0.925  c-0.539,0.402-1.033,0.852-1.426,1.362c-0.385,0.515-0.732,1.035-0.959,1.584c-0.251,0.536-0.395,1.083-0.501,1.591  c-0.083,0.515-0.124,0.989-0.126,1.414c0.011,0.215,0.018,0.413,0.025,0.599c0.026,0.182,0.048,0.35,0.069,0.5  c0.033,0.305,0.113,0.539,0.145,0.702c0.038,0.16,0.058,0.248,0.058,0.248s-0.028-0.084-0.084-0.24  c-0.045-0.16-0.155-0.379-0.211-0.688c-0.033-0.153-0.069-0.321-0.109-0.505c-0.022-0.188-0.047-0.389-0.075-0.605  c-0.021-0.218-0.014-0.452-0.022-0.694c-0.001-0.248,0.04-0.503,0.059-0.771c0.085-0.534,0.209-1.11,0.444-1.688  c0.212-0.584,0.545-1.159,0.951-1.707c0.409-0.547,0.925-1.035,1.495-1.471c0.244-0.18,0.504-0.34,0.771-0.485  c-1.23-0.888-2.727-1.385-4.271-1.385c-0.792,0-1.598,0.131-2.388,0.405c-3.282,1.137-5.225,4.379-4.859,7.691  c0.411-0.163,0.83-0.281,1.248-0.343c0.292-0.042,0.583-0.064,0.866-0.064c0.229,0,0.451,0.014,0.666,0.048  c0.485,0.054,0.93,0.184,1.327,0.325c0.192,0.086,0.385,0.154,0.552,0.247c0.165,0.098,0.327,0.182,0.467,0.278  c0.138,0.099,0.268,0.191,0.388,0.276c0.11,0.098,0.212,0.186,0.304,0.268c0.189,0.152,0.298,0.311,0.39,0.403  c0.086,0.095,0.131,0.148,0.131,0.148s-0.051-0.047-0.149-0.13c-0.102-0.08-0.232-0.217-0.434-0.349  c-0.095-0.069-0.204-0.146-0.319-0.23c-0.125-0.071-0.259-0.147-0.4-0.23c-0.295-0.15-0.638-0.29-1.019-0.421  c-0.386-0.111-0.813-0.208-1.27-0.23c-0.113-0.01-0.226-0.015-0.342-0.015c-0.353,0-0.717,0.043-1.085,0.102  c-0.489,0.085-0.97,0.266-1.439,0.48c-0.471,0.238-0.871,0.522-1.296,0.897c-0.001,0.002-0.002,0.002-0.003,0.004  c-1.482,1.551-2.072,3.851-1.321,6.018c0.848,2.444,3.138,3.976,5.589,3.976c0.541,0,1.09-0.075,1.632-0.231  c0.042-0.006,0.084-0.012,0.126-0.027l12.443-4.312c0.041-0.014,0.077-0.033,0.112-0.055c3.533-1.474,5.354-5.46,4.084-9.124  C75.587,69.049,73.069,67.22,70.287,66.978z"/><path d="M77.711,23.806c0.085,0.064,0.188,0.096,0.289,0.096c0.118,0,0.234-0.043,0.327-0.129c0.661-0.618,1.131-1.342,1.4-2.151  c0.442-1.328,0.339-2.749-0.289-4c-0.627-1.251-1.703-2.183-3.03-2.624c-0.538-0.179-1.095-0.269-1.655-0.269  c-2.26,0-4.26,1.443-4.973,3.59c-0.441,1.329-0.338,2.75,0.29,4c0.627,1.251,1.703,2.183,3.033,2.625  c0.526,0.175,1.074,0.264,1.628,0.264c0.522,0,1.047-0.08,1.555-0.235c0.186-0.058,0.317-0.22,0.336-0.413  c0.019-0.193-0.079-0.377-0.25-0.468c-0.689-0.371-1.391-0.557-2.087-0.557c-0.27,0-0.549,0.033-0.864,0.104  c-0.387-0.16-0.756-0.388-1.092-0.675c0.643-0.258,1.299-0.389,1.956-0.389C75.474,22.573,76.625,22.987,77.711,23.806z   M73.387,24.139c0.294-0.076,0.594-0.127,0.898-0.127c0.643,0,1.267,0.181,1.86,0.5c-0.454,0.14-0.932,0.214-1.414,0.214  c-0.489,0-0.987-0.076-1.478-0.24c-2.495-0.829-3.847-3.521-3.018-6.019c0.663-1.997,2.521-3.261,4.517-3.261  c0.498,0,1.006,0.079,1.504,0.245c2.493,0.828,3.846,3.523,3.016,6.018c-0.259,0.778-0.715,1.429-1.272,1.953  c-1.123-0.845-2.377-1.329-3.715-1.329c-0.979,0-1.911,0.26-2.782,0.726C72.019,23.405,72.656,23.869,73.387,24.139z"/><path d="M76.471,49.598c-0.062,0-0.123,0.011-0.182,0.035c-0.675,0.278-1.35,0.417-2.004,0.417c-0.476,0-0.957-0.07-1.43-0.207  c-0.005-0.042-0.007-0.082-0.007-0.12c0-0.292,0.071-0.574,0.206-0.833c0.417,0.133,0.83,0.2,1.23,0.2  c0.649,0,1.313-0.169,1.975-0.502c0.126-0.064,0.218-0.182,0.25-0.32c0.032-0.139,0.001-0.284-0.084-0.397  c-0.546-0.724-1.372-1.139-2.266-1.139c-1.57,0-2.847,1.277-2.847,2.846s1.276,2.847,2.847,2.847c1.331,0,2.501-0.945,2.779-2.248  c0.037-0.174-0.024-0.354-0.161-0.469C76.691,49.636,76.581,49.598,76.471,49.598z M74.16,51.944c-1.308,0-2.368-1.059-2.368-2.365  c0-1.308,1.061-2.367,2.368-2.367c0.771,0,1.45,0.375,1.883,0.948c-0.564,0.285-1.152,0.452-1.758,0.452  c-0.489,0-0.963-0.113-1.425-0.302c-0.304,0.393-0.491,0.878-0.491,1.415c0,0.169,0.027,0.332,0.065,0.49  c0.594,0.204,1.213,0.316,1.851,0.316c0.76,0,1.487-0.167,2.186-0.452C76.241,51.145,75.295,51.944,74.16,51.944z"/><path d="M60.326,8.217c-3.896,2.031-6.804,5.444-8.186,9.612c-1.417,4.262-1.088,8.821,0.927,12.838  c2.014,4.015,5.47,7.006,9.732,8.422c1.733,0.575,3.523,0.867,5.321,0.867c2.706,0,5.315-0.645,7.755-1.916  c2.072-1.08,3.872-2.565,5.351-4.415c0.083-0.104,0.118-0.236,0.099-0.368c-0.1-0.699-0.229-1.366-0.381-1.983  c-0.048-0.184-0.198-0.324-0.385-0.357c-0.028-0.004-0.055-0.006-0.083-0.006c-0.157,0-0.309,0.078-0.399,0.213  c-1.338,2.013-3.177,3.666-5.313,4.781c-2.091,1.089-4.326,1.642-6.642,1.642c-1.542,0-3.077-0.25-4.563-0.745  c-3.653-1.212-6.613-3.774-8.34-7.215c-1.724-3.439-2.007-7.346-0.795-11c1.188-3.572,3.68-6.498,7.015-8.236  c2.09-1.089,4.325-1.642,6.643-1.642c1.54,0,3.074,0.25,4.559,0.745c7.538,2.503,11.636,10.675,9.134,18.215  c-0.113,0.34-0.253,0.702-0.439,1.139c-0.049,0.112-0.053,0.237-0.012,0.351c0.233,0.644,0.435,1.316,0.597,2  c0.046,0.193,0.205,0.337,0.402,0.365c0.021,0.003,0.044,0.004,0.063,0.004c0.174,0,0.336-0.094,0.42-0.248  c0.51-0.922,0.932-1.881,1.255-2.852c2.924-8.801-1.857-18.338-10.659-21.261c-1.735-0.575-3.525-0.867-5.323-0.867  C65.371,6.301,62.764,6.946,60.326,8.217z M83.605,28.278c-0.323,0.97-0.733,1.894-1.22,2.771c-0.171-0.717-0.374-1.4-0.61-2.052  c0.165-0.385,0.32-0.774,0.454-1.176c2.587-7.792-1.646-16.234-9.438-18.822C71.247,8.485,69.66,8.23,68.082,8.23  c-2.36,0-4.704,0.57-6.865,1.697c-3.447,1.796-6.02,4.819-7.247,8.509c-1.253,3.775-0.961,7.811,0.821,11.366  c1.783,3.554,4.842,6.203,8.617,7.455c1.547,0.514,3.134,0.77,4.714,0.77c2.359,0,4.699-0.569,6.862-1.696  c2.25-1.173,4.12-2.876,5.492-4.94c0.156,0.621,0.278,1.269,0.375,1.936c-1.402,1.754-3.153,3.223-5.197,4.289  c-2.373,1.236-4.942,1.862-7.533,1.862c-1.732,0-3.474-0.279-5.171-0.843c-4.14-1.376-7.498-4.282-9.454-8.183  c-1.957-3.9-2.277-8.331-0.9-12.471c1.343-4.05,4.169-7.366,7.952-9.338c2.371-1.236,4.94-1.862,7.53-1.862  c1.733,0,3.475,0.28,5.173,0.844C81.801,10.463,86.444,19.728,83.605,28.278z"/><path d="M63.881,54.717l1.693,2.479c0.345,0.49,0.569,0.587,0.718,0.587c0.06,0,0.105-0.015,0.144-0.026l15.014-4.885l-1.365-4.176  l-0.386-1.185c2.014-2.583,3.291-6.598,3.291-11.198c0-0.972-0.058-1.916-0.166-2.828c0.985-1.405,1.793-2.969,2.361-4.681  c3.135-9.437-1.977-19.626-11.411-22.759c-1.883-0.625-3.795-0.922-5.677-0.922c0,0,0,0-0.001,0l0.001,0.48  c1.873,0,3.732,0.302,5.526,0.898c4.441,1.475,8.043,4.591,10.141,8.775c2.098,4.184,2.44,8.935,0.965,13.377  c-0.536,1.616-1.311,3.149-2.3,4.556c-0.066,0.097-0.097,0.215-0.083,0.333c0.108,0.912,0.164,1.845,0.164,2.771  c0,4.33-1.163,8.304-3.19,10.903c-0.099,0.126-0.128,0.292-0.077,0.444l0.387,1.186l1.216,3.719l-14.543,4.731  c-0.047-0.031-0.156-0.122-0.333-0.37l-1.688-2.478c-0.093-0.135-0.242-0.209-0.399-0.209c-0.047,0-0.098,0.008-0.147,0.022  L35.115,63.63c-0.239,0.078-0.469,0.19-0.685,0.331l-0.102-0.311c-0.063-0.192-0.047-0.398,0.044-0.578  c0.092-0.18,0.248-0.313,0.44-0.375l27.519-8.995c0.202-0.065,0.337-0.258,0.33-0.472l-0.083-2.539  c-0.019-0.937,0.304-1.041,0.459-1.093l14.494-4.738c0.075-0.023,0.154-0.037,0.233-0.037c0.318,0,0.604,0.205,0.711,0.508  c0.062,0.177,0.221,0.302,0.407,0.319c0.016,0.002,0.029,0.002,0.045,0.002c0.171,0,0.329-0.09,0.417-0.238  c1.401-2.42,2.206-5.737,2.206-9.104c0-0.175-0.008-0.347-0.014-0.519l-0.007-0.2c-0.006-0.192-0.128-0.363-0.308-0.433  c-0.056-0.021-0.114-0.031-0.173-0.031c-0.127,0-0.253,0.051-0.345,0.146c-3.299,3.417-7.898,5.378-12.622,5.378  c-1.865,0-3.717-0.301-5.504-0.895c-2.271-0.753-4.325-1.935-6.103-3.513c-0.08-0.071-0.182-0.113-0.288-0.12  c-0.057-0.004-0.111-0.005-0.167-0.005c-0.357,0-0.676,0.071-0.947,0.212l-0.072,0.038c-0.763,0.4-1.215,1.212-1.154,2.069  c0.004,0.066,0.022,0.13,0.053,0.188l0.474,0.905c0.147,0.285,0.177,0.612,0.081,0.918c-0.098,0.306-0.308,0.557-0.597,0.708  l-0.066,0.035c-0.173,0.09-0.359,0.137-0.554,0.137c-0.376,0-0.735-0.18-0.936-0.44l-0.352-0.568  c-0.375-0.717-1.11-1.162-1.918-1.162c-0.346,0-0.691,0.085-0.999,0.246l-4.337,2.26l-2.407-0.711  c-0.108-0.031-0.22-0.047-0.333-0.047c-0.519,0-0.984,0.348-1.128,0.837c-0.118,0.371-0.337,0.79-0.451,0.86  c-0.122,0.07-0.3,0.104-0.543,0.104c-0.314,0-0.696-0.057-1.1-0.117c-0.479-0.072-1.023-0.153-1.566-0.153  c-0.647,0-1.196,0.115-1.678,0.352c-1.758,0.862-2.092,1.898-2.313,2.584c-0.135,0.419-0.199,0.573-0.388,0.672  c-0.1,0.051-0.249,0.079-0.431,0.079c-0.603,0-1.311-0.289-1.318-0.292c-0.015-0.006-0.031-0.012-0.047-0.017  c-0.11-0.033-0.223-0.049-0.337-0.049c-0.504,0-0.96,0.331-1.12,0.809c-0.649,1.413-1.528,3.056-1.801,3.259  c-0.005,0.002-0.053,0.029-0.182,0.029c-0.516,0-1.358-0.369-1.639-0.512c-0.026-0.012-0.053-0.024-0.081-0.032  c-0.083-0.023-0.169-0.037-0.253-0.037c-0.579,0-0.943,0.542-1.092,1.049c-0.006,0.022-0.011,0.044-0.014,0.069  c-0.082,0.587-0.344,1.323-0.586,1.439c-0.003,0.002-0.092,0.036-0.391,0.036c-1.068,0-3.104-0.414-3.113-0.414c0,0,0,0,0,0  c-0.109-0.033-0.223-0.05-0.336-0.05c-0.519,0-0.985,0.347-1.135,0.857c-0.16,0.596-0.432,1.239-0.537,1.328  c-0.282,0-0.932-0.266-1.304-0.453c-0.026-0.012-0.053-0.023-0.08-0.031c-0.109-0.032-0.221-0.048-0.333-0.048  c-0.208,0-0.412,0.056-0.591,0.159l-5.455-1.462c-0.079-0.022-0.103-0.029-0.156-0.131c-0.037-0.073-0.034-0.123-0.038-0.123  c0,0-0.001,0.002-0.002,0.004c0.008-0.023,0.016-0.045,0.021-0.068l1.189-4.822c0.091-0.4,0.232-0.838,0.299-0.932  c0.075-0.085,0.431-0.314,0.76-0.488L44.87,28.429c0.215-0.112,0.313-0.369,0.226-0.596c-0.003-0.012-0.445-1.175-0.573-1.737  c-0.013-0.063-0.045-0.351-0.069-0.597c0.03-0.424,0.269-0.79,0.639-0.982l0.077-0.04c0.172-0.089,0.358-0.135,0.551-0.135  c0.229,0,0.454,0.065,0.649,0.188c0.021,0.014,0.042,0.024,0.063,0.035c0.015,0.016,0.031,0.03,0.048,0.044  c0.127,0.103,0.232,0.231,0.311,0.38l0.148,0.283c0.03,0.058,0.073,0.11,0.124,0.151c0.383,0.311,0.868,0.481,1.361,0.481  c0.346,0,0.69-0.085,1.001-0.248l0.066-0.036c0.394-0.205,0.754-0.486,1.017-0.791c0.083-0.097,0.125-0.223,0.115-0.351  c-0.179-2.329,0.105-4.642,0.846-6.875c2.385-7.18,9.065-12.004,16.625-12.004v-0.48c-7.544,0-14.571,4.781-17.08,12.333  c-0.78,2.349-1.048,4.742-0.87,7.063c-0.236,0.273-0.552,0.51-0.876,0.679l-0.07,0.038c-0.248,0.129-0.513,0.19-0.775,0.19  c-0.383,0-0.76-0.132-1.06-0.374l-0.148-0.284c-0.112-0.213-0.26-0.391-0.434-0.532l-0.082-0.149l-0.075,0.039  c-0.27-0.171-0.585-0.263-0.905-0.263c-0.262,0-0.526,0.062-0.773,0.19l-0.073,0.037c-0.553,0.287-0.876,0.838-0.902,1.419  c0,0,0.055,0.578,0.082,0.693c0.138,0.603,0.593,1.801,0.593,1.801L12.469,44.777c0,0-0.737,0.391-0.913,0.614  c-0.193,0.247-0.393,1.124-0.393,1.124l-1.187,4.816c0,0-0.095,0.228,0.059,0.522c0.122,0.233,0.262,0.315,0.447,0.37l5.662,1.518  c0.008,0.002,0.016,0.007,0.022,0.009c0.13-0.129,0.308-0.206,0.496-0.206c0.065,0,0.131,0.01,0.196,0.029  c0,0,0.995,0.504,1.52,0.504c0.082,0,0.152-0.013,0.206-0.042c0.415-0.221,0.794-1.641,0.794-1.641  c0.09-0.306,0.37-0.503,0.671-0.503c0.066,0,0.132,0.009,0.199,0.028c0,0,2.113,0.436,3.25,0.436c0.264,0,0.475-0.024,0.595-0.082  c0.647-0.312,0.857-1.807,0.857-1.807c0.096-0.332,0.32-0.704,0.631-0.704c0.038,0,0.076,0.005,0.117,0.018  c0,0,1.109,0.562,1.855,0.562c0.161,0,0.306-0.026,0.418-0.091c0.553-0.314,2.013-3.502,2.013-3.502  c0.09-0.305,0.369-0.503,0.671-0.503c0.066,0,0.133,0.01,0.2,0.029c0,0,0.791,0.328,1.501,0.328c0.238,0,0.466-0.037,0.654-0.134  c0.99-0.516,0.138-2,2.689-3.251c0.464-0.228,0.964-0.302,1.466-0.302c0.955,0,1.92,0.27,2.667,0.27  c0.301,0,0.567-0.044,0.781-0.167c0.382-0.218,0.67-1.132,0.67-1.132c0.09-0.306,0.368-0.503,0.671-0.503  c0.066,0,0.132,0.009,0.198,0.028l2.592,0.766l4.508-2.349c0.249-0.13,0.515-0.191,0.777-0.191c0.606,0,1.192,0.33,1.494,0.905  l0.368,0.598c0.323,0.427,0.825,0.667,1.344,0.667c0.262,0,0.528-0.062,0.775-0.19l0.07-0.038c0.824-0.43,1.146-1.445,0.716-2.27  l-0.475-0.906c-0.046-0.647,0.29-1.29,0.9-1.61l0.071-0.037c0.21-0.109,0.461-0.159,0.725-0.159c0.045,0,0.092,0.001,0.136,0.005  c1.771,1.57,3.881,2.816,6.27,3.608c1.877,0.624,3.783,0.919,5.656,0.919c4.908,0,9.596-2.03,12.967-5.524  c0.008,0.235,0.021,0.467,0.021,0.704c0,3.444-0.832,6.604-2.143,8.862c-0.176-0.508-0.653-0.83-1.163-0.83  c-0.127,0-0.255,0.02-0.384,0.061l-14.493,4.736c-0.649,0.211-0.804,0.839-0.791,1.559l0.083,2.546L34.664,62.24  c-0.649,0.212-1.003,0.91-0.791,1.559l0.323,0.989c0.295-0.321,0.657-0.565,1.07-0.703L63.881,54.717z"/><polygon points="68.096,5.122 68.096,5.122 68.096,5.122 "/><path d="M68.172,41.522c-0.003,0-0.006,0-0.01,0c-0.68,0-1.346-0.039-2.004-0.094c0.485,2.106,1.263,3.955,2.254,5.43l1.92-0.64  C69.418,45,68.668,43.384,68.172,41.522z M66.784,41.956c0.359,0.022,0.697,0.037,1.023,0.043c0.432,1.503,1.034,2.858,1.762,3.969  l-0.957,0.319C67.839,45.056,67.215,43.575,66.784,41.956z"/></svg>
