<?xml version="1.0" encoding="utf-8"?>
<!-- Generator: Adobe Illustrator 16.0.3, SVG Export Plug-In . SVG Version: 6.00 Build 0)  -->
<!DOCTYPE svg PUBLIC "-//W3C//DTD SVG 1.1//EN" "http://www.w3.org/Graphics/SVG/1.1/DTD/svg11.dtd">
<svg version="1.1" id="Capa_1" xmlns="http://www.w3.org/2000/svg" xmlns:xlink="http://www.w3.org/1999/xlink" x="0px" y="0px"
	 width="72px" height="68px" viewBox="91.56 36.865 72 68" enable-background="new 91.56 36.865 72 68" xml:space="preserve">
<g>
	<path d="M158.714,69.013c0-1.877-1.522-3.404-3.395-3.404h-2.196c-1.245,0-2.333,0.678-2.923,1.683l-2.833-6.22
		c-1.176-2.582-3.524-4.501-6.283-5.136c-4.55-1.045-22.499-1.045-27.049,0c-2.758,0.634-5.107,2.554-6.282,5.135l-2.833,6.22
		c-0.591-1.005-1.678-1.682-2.923-1.682H99.8c-1.872,0-3.395,1.527-3.395,3.404c0,1.72,1.284,3.173,2.987,3.379l2.6,0.314
		l-2.622,2.63c-1.527,1.531-2.257,3.725-1.954,5.869l1.032,7.296c0.269,1.9,1.233,3.563,2.61,4.743v3.188
		c0,2.121,1.721,3.847,3.836,3.847h5.911c2.115,0,3.836-1.726,3.836-3.847v-1.337h25.836v1.337c0,2.121,1.721,3.847,3.836,3.847
		h5.909c2.115,0,3.836-1.726,3.836-3.847v-3.187c1.377-1.181,2.343-2.844,2.611-4.743l1.032-7.297
		c0.303-2.145-0.428-4.338-1.954-5.869l-2.622-2.629l2.6-0.315C157.43,72.186,158.714,70.733,158.714,69.013z M114.684,58.776
		c4.091-0.94,21.66-0.94,25.752,0c0.605,0.139,1.182,0.37,1.712,0.677c-6.396-0.766-22.784-0.766-29.176,0
		C113.502,59.146,114.079,58.915,114.684,58.776z M109.953,63.256c0.685-0.338,1.422-0.586,2.201-0.736
		c5.039-0.976,25.772-0.976,30.814,0c0.777,0.149,1.515,0.397,2.198,0.735l3.435,7.539h-42.082L109.953,63.256z M99.312,69.013
		c0-0.27,0.219-0.489,0.488-0.489h2.197c0.27,0,0.488,0.219,0.488,0.489v0.818l-2.744-0.332
		C99.497,69.469,99.312,69.26,99.312,69.013z M149.099,92.18h-43.078c-2.145,0-4.015-1.468-4.572-3.5h52.224
		C153.114,90.713,151.244,92.18,149.099,92.18z M145.35,85.766l-1.03-3.309h10.271l-0.468,3.309H145.35z M141.276,82.458l1.03,3.309
		h-1.066l-1.031-3.309H141.276z M137.165,82.458l1.031,3.309h-21.271l1.031-3.309H137.165z M113.88,85.766h-1.066l1.031-3.309h1.066
		L113.88,85.766z M109.77,85.766h-8.772l-0.468-3.309H110.8L109.77,85.766z M111.737,96.432c0,0.514-0.417,0.933-0.93,0.933h-5.911
		c-0.514,0-0.931-0.419-0.931-0.933v-1.623c0.657,0.187,1.347,0.286,2.056,0.286h5.716V96.432z M151.154,96.432
		c0,0.514-0.417,0.933-0.93,0.933h-5.909c-0.514,0-0.931-0.419-0.931-0.933v-1.337h5.715c0.708,0,1.398-0.1,2.055-0.286V96.432
		L151.154,96.432z M154.803,79.543h-54.486c0.142-0.803,0.523-1.559,1.108-2.146l3.679-3.689h44.912l3.679,3.689
		C154.28,77.984,154.662,78.74,154.803,79.543z M155.379,69.499l-2.744,0.332v-0.818c0-0.27,0.219-0.489,0.488-0.489h2.196
		c0.27,0,0.488,0.219,0.488,0.489C155.808,69.26,155.624,69.469,155.379,69.499z"/>
	<path d="M162.492,46.411l-34.547-9.494c-0.251-0.069-0.517-0.069-0.768,0l-34.547,9.494c-0.631,0.173-1.069,0.749-1.069,1.405
		v55.592c0,0.805,0.65,1.457,1.453,1.457h69.094c0.803,0,1.453-0.652,1.453-1.457V47.816
		C163.56,47.16,163.123,46.584,162.492,46.411z M127.56,39.833l33.094,9.095v2.721l-32.709-8.99c-0.251-0.069-0.517-0.069-0.768,0
		l-32.71,8.99v-2.721L127.56,39.833z M94.466,101.951V54.67l33.094-9.095l33.094,9.095v47.281H94.466z"/>
</g>
</svg>
