<?xml version="1.0" encoding="utf-8"?>
<!-- Generator: Adobe Illustrator 16.0.3, SVG Export Plug-In . SVG Version: 6.00 Build 0)  -->
<!DOCTYPE svg PUBLIC "-//W3C//DTD SVG 1.1//EN" "http://www.w3.org/Graphics/SVG/1.1/DTD/svg11.dtd">
<svg version="1.1" id="Layer_1" xmlns="http://www.w3.org/2000/svg" xmlns:xlink="http://www.w3.org/1999/xlink" x="0px" y="0px"
	 width="72px" height="72px" viewBox="91.56 34.865 72 72" fill="#ff8a00" enable-background="new 91.56 34.865 72 72" xml:space="preserve">
<g>
	<g>
		<g>
			<path d="M159.982,96.413h0.094v-6.968c0-0.149-0.014-3.714-1.255-7.425l-3.785-8.833h-3.089h-3.088l-3.82,8.923
				c-1.207,3.621-1.221,7.186-1.221,7.335v2.322h-3.483c-1.921,0-3.484-1.563-3.484-3.483v-4.837
				c5.544-3.219,9.29-9.206,9.29-16.066v-0.165c1.997-0.52,3.484-2.321,3.484-4.48c0-2.087-0.786-3.405-1.227-3.981
				c0.04-0.215,0.065-0.435,0.065-0.664v-2.323c0-11.525-9.378-20.903-20.903-20.903c-11.526,0-20.903,9.377-20.903,20.903v2.323
				c0,0.229,0.026,0.449,0.065,0.664c-0.44,0.576-1.227,1.894-1.227,3.981c0,2.159,1.486,3.961,3.484,4.48v0.165
				c0,6.86,3.747,12.847,9.291,16.066v4.837c0,1.921-1.563,3.483-3.484,3.483h-5.806v-1.636c2.283-1.384,3.484-3.614,3.484-6.493
				c0-2.826-1.907-6.117-5.551-6.939l-1.417-0.319v6.098h-2.322v-6.101l-1.419,0.322c-3.643,0.829-5.549,4.118-5.549,6.939
				c0,2.879,1.201,5.107,3.484,6.493v2.921c-4.789,2.206-8.129,7.041-8.129,12.651v1.161h2.323v-1.161
				c0-6.011,4.592-10.97,10.452-11.554v12.715h2.322V94.091h3.484v12.774h2.323V94.091h2.322c0.474,0,0.927-0.073,1.368-0.18
				c1.009,5.381,5.736,9.47,11.406,9.47c5.671,0,10.396-4.089,11.406-9.47c0.441,0.106,0.895,0.18,1.368,0.18h2.322v12.774h2.322
				V94.091h3.484v12.774h2.322V94.15c5.86,0.585,10.452,5.543,10.452,11.553v1.161h2.322v-1.161
				C163.56,102.133,162.199,98.883,159.982,96.413z M107.301,88.405l-0.645,0.32v3.042h-1.162c-1.204,0-2.368,0.17-3.484,0.459
				v-3.501l-0.644-0.32c-1.91-0.949-2.839-2.507-2.839-4.766c0-1.492,0.793-3.179,2.322-4.105v5.267h6.968v-5.27
				c1.529,0.925,2.323,2.613,2.323,4.108C110.141,85.898,109.211,87.456,107.301,88.405z M146.141,61.74
				c0.322-0.211,0.62-0.434,0.883-0.672c0.153,0.421,0.278,0.974,0.278,1.669c0,0.855-0.471,1.596-1.161,2V61.74z M126.399,37.247
				v8.069h2.322v-8.069c9.501,0.592,17.075,8.338,17.389,17.911c-4.134-2.203-12.809-2.874-18.55-2.874
				c-5.742,0-14.416,0.67-18.549,2.872C109.325,45.585,116.898,37.838,126.399,37.247z M108.979,64.735
				c-0.691-0.402-1.161-1.143-1.161-1.998c0-0.696,0.125-1.249,0.277-1.67c0.264,0.239,0.561,0.462,0.884,0.672V64.735z
				 M108.98,58.094c0.228-1.185,6.983-3.487,18.58-3.487c11.604,0,18.361,2.305,18.58,3.484c0.001,2.283-6.949,4.645-18.58,4.645
				C115.936,62.736,108.986,60.376,108.98,58.094z M111.302,67.381v-4.488c5.12,1.951,13.055,2.166,16.258,2.166
				s11.138-0.215,16.259-2.166v4.488c0,8.964-7.294,16.258-16.259,16.258C118.595,83.639,111.302,76.345,111.302,67.381z
				 M127.56,101.058c-4.758,0-8.688-3.598-9.223-8.215c1.362-1.063,2.255-2.701,2.255-4.56v-3.69
				c2.154,0.876,4.504,1.368,6.968,1.368s4.813-0.492,6.968-1.368v3.69c0,1.858,0.893,3.497,2.255,4.56
				C136.248,97.461,132.318,101.058,127.56,101.058z M149.369,91.768h-3.228v-2.323c0-0.032,0.012-3.332,1.066-6.51l3.183-7.426
				h0.396v10.666c-1.349,0.48-2.322,1.758-2.322,3.27C148.463,90.341,148.813,91.15,149.369,91.768z M151.947,90.607
				c-0.64,0-1.161-0.521-1.161-1.162c0-0.641,0.521-1.161,1.161-1.161c0.641,0,1.162,0.521,1.162,1.161
				C153.109,90.087,152.587,90.607,151.947,90.607z M157.754,94.407c-1.201-0.866-2.537-1.557-3.98-2.008
				c0.99-0.615,1.657-1.704,1.657-2.954c0-1.512-0.975-2.789-2.322-3.27V75.51h0.396l3.147,7.335
				c1.084,3.252,1.103,6.568,1.103,6.602V94.407L157.754,94.407z"/>
			<polygon points="128.721,68.542 139.173,68.542 139.173,66.219 126.399,66.219 126.399,77.832 128.721,77.832 			"/>
			<rect x="112.463" y="49.962" width="2.322" height="2.323"/>
			<rect x="117.108" y="48.801" width="2.323" height="2.323"/>
		</g>
	</g>
</g>
</svg>
