<?xml version="1.0" encoding="utf-8"?>
<!-- Generator: Adobe Illustrator 16.0.3, SVG Export Plug-In . SVG Version: 6.00 Build 0)  -->
<!DOCTYPE svg PUBLIC "-//W3C//DTD SVG 1.1//EN" "http://www.w3.org/Graphics/SVG/1.1/DTD/svg11.dtd">
<svg version="1.1" id="Layer_1" xmlns="http://www.w3.org/2000/svg" xmlns:xlink="http://www.w3.org/1999/xlink" x="0px" y="0px"
	 width="72px" height="65px" viewBox="91.56 38.365 72 65" fill="#ff8a00" enable-background="new 91.56 38.365 72 65" xml:space="preserve">
<g>
	<g>
		<path d="M158.31,64.151c1.774-0.826,2.518-2.133,2.742-3.226c1.427-0.275,2.508-1.522,2.508-3.015
			c0-1.694-1.392-3.072-3.103-3.072h-0.943c-1.712,0-3.104,1.378-3.104,3.072c0,1.42,0.979,2.615,2.304,2.965
			c-0.016,0.038-0.033,0.075-0.052,0.112c-0.273,0.534-0.793,0.953-1.547,1.25c-0.389-0.577-0.704-1.003-0.905-1.263
			c-0.081-1.35-0.491-6.113-2.384-10.945c-2.986-7.631-8.221-11.665-15.137-11.665h-15.975c-0.622,0-1.125,0.499-1.125,1.115
			c0,0.615,0.504,1.114,1.125,1.114h15.975c5.978,0,10.357,3.43,13.02,10.193c1.49,3.785,2.011,7.624,2.187,9.483h-52.672
			c0.176-1.86,0.697-5.698,2.187-9.483c2.662-6.763,7.042-10.193,13.02-10.193h1.783c0.622,0,1.125-0.499,1.125-1.114
			c0-0.616-0.504-1.115-1.125-1.115h-1.783c-6.916,0-12.15,4.034-15.137,11.665c-1.892,4.833-2.302,9.596-2.384,10.945
			c-0.201,0.26-0.517,0.687-0.905,1.263c-0.754-0.297-1.274-0.716-1.547-1.25c-0.019-0.038-0.037-0.075-0.052-0.112
			c1.324-0.35,2.304-1.545,2.304-2.965c0-1.694-1.392-3.072-3.103-3.072h-0.943c-1.711,0-3.103,1.378-3.103,3.073
			c0,1.492,1.081,2.739,2.508,3.014c0.225,1.093,0.968,2.4,2.743,3.226c-0.462,0.797-0.956,1.721-1.446,2.76
			c-0.003,0.007-0.006,0.014-0.01,0.021c-0.094,0.198-0.188,0.4-0.28,0.607c-1.755,3.904-3.69,10.079-2.958,17.344v12.724
			c0,3.175,2.608,5.758,5.814,5.758c3.207,0,5.814-2.583,5.814-5.758v-4.771h14.319v1.689c0,0.615,0.504,1.114,1.125,1.114h16.74
			c0.622,0,1.125-0.499,1.125-1.114v-1.689h14.319v4.771c0,3.175,2.608,5.758,5.814,5.758s5.814-2.583,5.814-5.758V84.884
			c0.731-7.266-1.203-13.44-2.958-17.344C159.461,66.24,158.863,65.106,158.31,64.151z M158.662,57.911
			c0-0.466,0.382-0.844,0.853-0.844h0.943c0.47,0,0.853,0.379,0.853,0.844s-0.383,0.843-0.853,0.843h-0.943
			C159.043,58.754,158.662,58.376,158.662,57.911z M95.606,58.754h-0.943c-0.47,0-0.852-0.378-0.852-0.843
			c0-0.466,0.382-0.844,0.852-0.844h0.943c0.47,0,0.853,0.379,0.853,0.844S96.076,58.754,95.606,58.754z M100.57,62.498h53.98
			c0.521,0.699,1.623,2.278,2.765,4.549c-0.635,0.43-1.298,0.817-1.983,1.161c-0.851-0.557-1.869-0.882-2.964-0.882
			c-2.033,0-3.807,1.12-4.726,2.769c-0.101,0.001-0.2,0.004-0.301,0.004h-39.563c-0.1,0-0.2-0.002-0.3-0.004
			c-0.919-1.649-2.693-2.769-4.726-2.769c-1.094,0-2.113,0.325-2.964,0.882c-0.687-0.344-1.353-0.733-1.989-1.164
			C98.94,64.784,100.047,63.199,100.57,62.498z M155.511,72.668c0,1.716-1.41,3.112-3.144,3.112s-3.144-1.396-3.144-3.112
			c0-1.716,1.41-3.113,3.144-3.113S155.511,70.951,155.511,72.668z M105.896,72.668c0,1.716-1.41,3.112-3.144,3.112
			s-3.144-1.396-3.144-3.112c0-1.716,1.41-3.113,3.144-3.113S105.896,70.951,105.896,72.668z M94.253,80.085
			c0.024,0.041,0.031,0.066,0.031,0.066l-0.035,0.015C94.251,80.138,94.252,80.111,94.253,80.085z M101.495,97.607
			c0,1.946-1.598,3.528-3.563,3.528s-3.564-1.582-3.564-3.528v-7.645c0.008,0.01,0.018,0.019,0.026,0.028
			c1.296,1.401,3.067,2.371,4.955,2.705c0.712,0.127,1.426,0.141,2.146,0.141V97.607z M134.805,93.412h-14.49v-3.38h14.49V93.412
			L134.805,93.412z M157.189,101.135c-1.965,0-3.563-1.582-3.563-3.528v-4.771c1.074,0,2.129-0.066,3.163-0.383
			c0.919-0.281,1.78-0.703,2.564-1.255c0.498-0.353,0.96-0.76,1.373-1.208c0.009-0.009,0.019-0.019,0.026-0.027v7.644h0.001
			C160.752,99.553,159.154,101.135,157.189,101.135z M160.759,84.72c-0.346,3.356-3.167,5.887-6.563,5.887H152.5h-15.445v-1.689
			c0-0.615-0.503-1.114-1.125-1.114h-16.74c-0.622,0-1.125,0.499-1.125,1.114v1.689h-15.444h-1.696c-3.396,0-6.218-2.53-6.563-5.886
			c-0.065-0.641-0.109-1.271-0.132-1.893c0.68,0.375,1.581,0.769,2.774,1.143c0.679,0.92,1.776,1.519,3.012,1.519
			c0.641,0,1.244-0.161,1.771-0.444c3.757,0.598,8.467,0.902,14.016,0.902h23.515c5.548,0,10.259-0.305,14.016-0.902
			c0.527,0.283,1.13,0.444,1.771,0.444c1.236,0,2.332-0.599,3.012-1.519c1.194-0.374,2.094-0.768,2.774-1.143
			C160.867,83.451,160.825,84.081,160.759,84.72z M98.536,81.797c0-0.809,0.664-1.465,1.479-1.465c0.815,0,1.479,0.657,1.479,1.465
			s-0.664,1.465-1.479,1.465C99.2,83.261,98.536,82.604,98.536,81.797z M153.625,81.797c0-0.809,0.663-1.465,1.479-1.465
			c0.815,0,1.479,0.657,1.479,1.465s-0.664,1.465-1.479,1.465C154.289,83.261,153.625,82.604,153.625,81.797z M160.874,80.167
			l-0.037-0.016c0,0,0.007-0.027,0.033-0.071C160.871,80.108,160.873,80.137,160.874,80.167z M158.807,81.353
			c-0.222-1.828-1.797-3.251-3.702-3.251c-2.057,0-3.73,1.657-3.73,3.694c0,0.438,0.078,0.858,0.221,1.249
			c-3.396,0.447-7.514,0.673-12.277,0.673h-23.516c-4.764,0-8.881-0.226-12.277-0.673c0.142-0.391,0.22-0.812,0.22-1.249
			c0-2.037-1.673-3.694-3.73-3.694c-1.906,0-3.481,1.423-3.703,3.251c-1.525-0.635-1.984-1.174-2.059-1.272
			c0.242-4.438,1.425-8.234,2.594-10.987c0.426,0.276,0.863,0.537,1.309,0.78c-0.506,0.813-0.798,1.77-0.798,2.793
			c0,2.945,2.419,5.341,5.394,5.341c2.974,0,5.394-2.396,5.394-5.341c0-0.114-0.005-0.228-0.012-0.34h38.851
			c-0.007,0.112-0.012,0.226-0.012,0.34c0,2.945,2.419,5.341,5.394,5.341s5.394-2.396,5.394-5.341c0-1.023-0.293-1.98-0.798-2.793
			c0.443-0.242,0.878-0.501,1.302-0.776c1.255,2.949,2.373,6.696,2.604,10.979C160.803,80.167,160.35,80.712,158.807,81.353z"/>
	</g>
</g>
<g>
	<g>
		<path d="M143.173,77.017h-12.205c-0.473-1.416-1.821-2.44-3.408-2.44c-1.586,0-2.936,1.024-3.409,2.44h-12.205
			c-0.622,0-1.125,0.499-1.125,1.114s0.504,1.114,1.125,1.114h12.205c0.473,1.416,1.822,2.44,3.408,2.44
			c1.587,0,2.936-1.024,3.408-2.44h12.205c0.622,0,1.126-0.499,1.126-1.114S143.795,77.017,143.173,77.017z M127.561,79.458
			c-0.739,0-1.34-0.595-1.34-1.326s0.601-1.327,1.34-1.327s1.339,0.596,1.339,1.327S128.298,79.458,127.561,79.458z"/>
	</g>
</g>
<g>
	<g>
		<path d="M151.094,56.708c-0.371-1.828-0.863-3.533-1.464-5.068c-1.055-2.694-2.412-4.802-4.035-6.268
			c-1.898-1.716-4.158-2.549-6.904-2.549h-2.772c-0.621,0-1.125,0.499-1.125,1.114c0,0.615,0.504,1.114,1.125,1.114h2.772
			c2.16,0,3.922,0.644,5.389,1.968c1.363,1.231,2.525,3.057,3.453,5.427c0.406,1.039,0.76,2.167,1.056,3.367h-31.083
			c-0.621,0-1.125,0.499-1.125,1.115c0,0.615,0.504,1.114,1.125,1.114h32.486c0.337,0,0.656-0.149,0.87-0.408
			C151.075,57.375,151.161,57.035,151.094,56.708z"/>
	</g>
</g>
<g>
	<g>
		<path d="M131.417,42.823H116.43c-2.716,0-4.954,0.814-6.84,2.491c-1.615,1.434-2.97,3.502-4.028,6.146
			c-0.634,1.584-1.151,3.35-1.536,5.249c-0.066,0.328,0.02,0.667,0.233,0.925c0.214,0.259,0.533,0.408,0.871,0.408h7.875
			c0.622,0,1.125-0.499,1.125-1.114c0-0.616-0.504-1.115-1.125-1.115h-6.472c0.312-1.263,0.688-2.446,1.123-3.532
			c0.929-2.32,2.086-4.106,3.439-5.308c1.455-1.293,3.201-1.921,5.337-1.921h14.987c0.621,0,1.126-0.499,1.126-1.114
			C132.542,43.321,132.039,42.823,131.417,42.823z"/>
	</g>
</g>
</svg>
