<?xml version="1.0" encoding="utf-8"?>
<!-- Generator: Adobe Illustrator 16.0.3, SVG Export Plug-In . SVG Version: 6.00 Build 0)  -->
<!DOCTYPE svg PUBLIC "-//W3C//DTD SVG 1.1//EN" "http://www.w3.org/Graphics/SVG/1.1/DTD/svg11.dtd">
<svg version="1.1" id="Layer_1" xmlns="http://www.w3.org/2000/svg" xmlns:xlink="http://www.w3.org/1999/xlink" x="0px" y="0px"
	 width="32px" height="32px" viewBox="111.56 54.865 32 32" enable-background="new 111.56 54.865 32 32" xml:space="preserve">
<g id="XMLID_13_">
	<path id="XMLID_17_" fill="#FFFFFF" d="M134.027,54.865h-12.934c-5.256,0-9.533,4.276-9.533,9.533v12.934
		c0,5.257,4.277,9.533,9.533,9.533h12.934c5.257,0,9.533-4.276,9.533-9.533V64.398C143.56,59.141,139.284,54.865,134.027,54.865z
		 M140.341,77.332c0,3.487-2.827,6.314-6.314,6.314h-12.934c-3.487,0-6.314-2.827-6.314-6.314V64.398
		c0-3.487,2.827-6.314,6.314-6.314h12.934c3.487,0,6.314,2.827,6.314,6.314V77.332L140.341,77.332z"/>
	<path id="XMLID_81_" fill="#FFFFFF" d="M127.56,62.589c-4.563,0-8.276,3.713-8.276,8.276s3.712,8.276,8.276,8.276
		s8.276-3.713,8.276-8.276S132.124,62.589,127.56,62.589z M127.56,75.923c-2.793,0-5.057-2.265-5.057-5.058s2.264-5.057,5.057-5.057
		s5.058,2.264,5.058,5.057S130.353,75.923,127.56,75.923z"/>
	<circle id="XMLID_83_" fill="#FFFFFF" cx="135.852" cy="62.651" r="1.983"/>
</g>
</svg>
