<svg width="28" height="28" xmlns="http://www.w3.org/2000/svg">
 <style type="text/css">.st0{fill:#FFFFFF;}</style>

 <g>
  <title>background</title>
  <rect fill="none" height="30" width="30" y="-1" x="-1"/>
 </g>
 <g>
  <title>Layer 1</title>
  <g stroke="null" id="svg_1">
   <path stroke="null" id="svg_2" d="m28.317082,8.317082c-0.1,-1.5 -0.3,-2.5 -0.7,-3.4c-0.4,-1 -0.9,-1.8 -1.6,-2.5c-0.7,-0.7 -1.6,-1.3 -2.5,-1.6c-0.9,-0.3 -1.9,-0.6 -3.4,-0.7c-1.5,-0.1 -2,-0.1 -5.8,-0.1c-3.8,0 -4.3,0 -5.8,0.1c-1.5,0.1 -2.5,0.3 -3.4,0.7c-1,0.4 -1.8,0.9 -2.5,1.6c-0.7,0.7 -1.3,1.6 -1.6,2.5c-0.3,0.9 -0.6,1.9 -0.7,3.4c-0.1,1.5 -0.1,2 -0.1,5.8c0,3.8 0,4.3 0.1,5.8c0.1,1.5 0.3,2.5 0.7,3.4c0.4,1 0.9,1.8 1.6,2.5c0.7,0.7 1.6,1.3 2.5,1.6c0.9,0.3 1.9,0.6 3.4,0.7c1.5,0.1 2,0.1 5.8,0.1c3.8,0 4.3,0 5.8,-0.1c1.5,-0.1 2.5,-0.3 3.4,-0.7c1.9,-0.7 3.4,-2.2 4.1,-4.1c0.3,-0.9 0.6,-1.9 0.7,-3.4c0.1,-1.5 0.1,-2 0.1,-5.8c-0.1,-3.8 -0.1,-4.3 -0.1,-5.8zm-2.6,11.6c-0.1,1.4 -0.3,2.1 -0.5,2.6c-0.5,1.2 -1.5,2.2 -2.7,2.7c-0.5,0.2 -1.3,0.4 -2.6,0.5c-1.5,0.1 -1.9,0.1 -5.7,0.1c-3.8,0 -4.2,0 -5.7,-0.1c-1.4,-0.1 -2.1,-0.3 -2.6,-0.5c-0.6,-0.2 -1.2,-0.6 -1.6,-1.1c-0.5,-0.5 -0.8,-1 -1.1,-1.6c-0.2,-0.5 -0.4,-1.3 -0.5,-2.6c-0.1,-1.5 -0.1,-1.9 -0.1,-5.7s0,-4.2 0.1,-5.7c0.1,-1.4 0.3,-2.1 0.5,-2.6c0.2,-0.6 0.6,-1.2 1.1,-1.6c0.5,-0.5 1,-0.8 1.6,-1.1c0.5,-0.2 1.3,-0.4 2.6,-0.5c1.5,-0.1 1.9,-0.1 5.7,-0.1c3.8,0 4.2,0 5.7,0.1c1.4,0.1 2.1,0.3 2.6,0.5c0.6,0.2 1.2,0.6 1.6,1.1c0.5,0.5 0.8,1 1.1,1.6c0.2,0.5 0.4,1.3 0.5,2.6c0.1,1.5 0.1,1.9 0.1,5.7s0,4.2 -0.1,5.7z" class="st0"/>
   <path stroke="null" id="svg_3" d="m14.217082,6.917082c-4,0 -7.3,3.3 -7.3,7.3c0,4 3.3,7.3 7.3,7.3c4,0 7.3,-3.3 7.3,-7.3c0,-4.1 -3.3,-7.3 -7.3,-7.3zm0,12c-2.6,0 -4.7,-2.1 -4.7,-4.7c0,-2.6 2.1,-4.7 4.7,-4.7c2.6,0 4.7,2.1 4.7,4.7c0,2.6 -2.1,4.7 -4.7,4.7z" class="st0"/>
   <path stroke="null" id="svg_4" d="m23.417082,6.617082c0,0.9 -0.8,1.7 -1.7,1.7c-0.9,0 -1.7,-0.8 -1.7,-1.7c0,-0.9 0.8,-1.7 1.7,-1.7c1,0 1.7,0.8 1.7,1.7z" class="st0"/>
  </g>
 </g>
</svg>