<svg width="170" height="65" xmlns="http://www.w3.org/2000/svg">
 <style type="text/css">.st0{fill:#FFFFFF;}</style>

 <g>
  <title>background</title>
  <rect fill="none" height="67" width="172" y="-1" x="-1"/>
 </g>
 <g>
  <title>Layer 1</title>
  <g id="svg_1">
   <g id="svg_2">
    <g id="svg_3">
     <path id="svg_4" d="m89.8,14.913044l2.2,-6.4l1,-0.1l-0.9,2.7l0.2,0c0.2,0 0.4,-0.1 0.6,-0.3c0.2,-0.1 0.4,-0.4 0.6,-0.7c0,-0.1 0.1,-0.2 0.2,-0.4c0.1,-0.2 0.2,-0.4 0.3,-0.6c0.1,-0.2 0.2,-0.4 0.3,-0.6c0.1,-0.2 0.2,-0.3 0.2,-0.4l1,-0.1c-0.2,0.3 -0.4,0.7 -0.5,1c-0.2,0.3 -0.4,0.6 -0.5,1c-0.2,0.3 -0.4,0.6 -0.6,0.8c-0.2,0.2 -0.4,0.4 -0.6,0.5l0,0c0.2,0.1 0.4,0.2 0.4,0.4c0.1,0.2 0.1,0.4 0.1,0.7c0,0.4 -0.1,0.7 -0.1,1c0,0.3 -0.1,0.7 -0.1,1l-1,0.1c0,-0.3 0.1,-0.6 0.1,-0.9c0,-0.3 0.1,-0.6 0.1,-0.9c0,-0.3 0,-0.6 -0.1,-0.7c-0.1,-0.1 -0.3,-0.2 -0.5,-0.1l-0.3,0l-0.9,2.8l-1.2,0.2z" class="st0"/>
     <path id="svg_5" d="m94,14.513044l2.2,-6.4l1.5,-0.2c0.6,-0.1 1,0 1.2,0.3c0.2,0.3 0.2,0.8 -0.1,1.4c-0.1,0.3 -0.2,0.6 -0.4,0.8c-0.1,0.3 -0.3,0.5 -0.5,0.7c-0.2,0.2 -0.4,0.4 -0.7,0.5c-0.3,0.1 -0.6,0.2 -0.9,0.2l-0.4,0l-0.8,2.5l-1.1,0.2zm2.2,-3.6l0.4,0c0.3,0 0.6,-0.2 0.8,-0.3c0.2,-0.2 0.3,-0.5 0.5,-0.8c0.1,-0.3 0.1,-0.6 0.1,-0.7c-0.1,-0.2 -0.2,-0.2 -0.6,-0.2l-0.4,0l-0.8,2z" class="st0"/>
     <path id="svg_6" d="m97.9,14.013044l2.2,-6.4l3,-0.3l-0.3,0.9l-1.9,0.2l-0.6,1.8l1.7,-0.2l-0.3,0.9l-1.7,0.2l-0.6,1.8l1.9,-0.2l-0.3,0.9l-3.1,0.4z" class="st0"/>
     <path id="svg_7" d="m101.1,13.613044c0.6,-1.1 1.2,-2.2 1.8,-3.3s1.2,-2.2 1.7,-3.3l1.2,-0.1l-0.8,6.3l-1.1,0.1l0.2,-1.3l-1.3,0.1c-0.1,0.2 -0.2,0.4 -0.3,0.7c-0.1,0.2 -0.2,0.5 -0.3,0.7l-1.1,0.1zm2.2,-2.4l0.9,-0.1l0.5,-2.6l0,0c-0.2,0.4 -0.4,0.9 -0.7,1.3c-0.2,0.5 -0.5,0.9 -0.7,1.4z" class="st0"/>
     <path id="svg_8" d="m106.6,7.713044l0.3,-0.9l3.2,-0.4l-0.3,0.9l-1.1,0.1l-1.8,5.5l-1.1,0.1l1.8,-5.5l-1,0.2z" class="st0"/>
     <path id="svg_9" d="m108.3,12.813044l2.2,-6.4l1,-0.1l-1.4,4.1l0,0l2.8,-4.2l1,-0.1l-2.2,6.4l-1,0.1l1.4,-4l0,0l-2.8,4.2l-1,0z" class="st0"/>
     <path id="svg_10" d="m112.7,12.313044l2.2,-6.4l1.5,-0.2c0.6,-0.1 1,0 1.2,0.3c0.2,0.3 0.2,0.7 0,1.2c-0.1,0.3 -0.2,0.6 -0.4,0.8c-0.2,0.2 -0.4,0.4 -0.7,0.6l0,0.1c0.3,0.1 0.4,0.2 0.5,0.5c0,0.2 0,0.5 -0.1,0.9c-0.2,0.7 -0.5,1.2 -1,1.5c-0.4,0.4 -0.9,0.6 -1.6,0.6l-1.6,0.1zm1.4,-1.1l0.4,0c0.2,0 0.3,-0.1 0.4,-0.1c0.1,-0.1 0.2,-0.2 0.3,-0.3c0.1,-0.1 0.2,-0.2 0.2,-0.4s0.1,-0.3 0.2,-0.4c0.1,-0.3 0.1,-0.5 0,-0.7c-0.1,-0.1 -0.2,-0.2 -0.5,-0.2l-0.4,0l-0.6,2.1zm0.9,-2.9l0.3,0c0.3,0 0.5,-0.1 0.7,-0.3c0.2,-0.2 0.3,-0.4 0.4,-0.6c0.1,-0.3 0.1,-0.5 0,-0.6c-0.1,-0.1 -0.3,-0.2 -0.5,-0.1l-0.3,0l-0.6,1.6z" class="st0"/>
     <path id="svg_11" d="m116.8,11.813044l2.2,-6.4l1,-0.1l-0.9,2.7l1.2,-0.1l0.9,-2.7l1,-0.1l-2.2,6.4l-1,0.1l0.9,-2.8l-1.2,0.1l-0.9,2.8l-1,0.1z" class="st0"/>
     <path id="svg_12" d="m121.4,9.813044l1.1,-3.2c0.1,-0.3 0.2,-0.5 0.3,-0.7c0.1,-0.2 0.3,-0.4 0.5,-0.6s0.4,-0.3 0.6,-0.4c0.2,-0.1 0.5,-0.2 0.8,-0.2c0.3,0 0.6,0 0.7,0c0.2,0.1 0.3,0.1 0.4,0.3c0.1,0.1 0.1,0.3 0.1,0.5c0,0.2 -0.1,0.4 -0.2,0.7l-1.1,3.1c-0.2,0.6 -0.5,1 -0.8,1.3c-0.4,0.3 -0.8,0.5 -1.4,0.6c-0.6,0.1 -0.9,0 -1.1,-0.3c-0.1,-0.2 -0.1,-0.6 0.1,-1.1zm1.1,-0.1c-0.1,0.2 -0.1,0.3 0,0.4c0,0.1 0.2,0.2 0.4,0.1c0.2,0 0.4,-0.1 0.5,-0.3s0.2,-0.3 0.3,-0.5l1.1,-3.3c0.1,-0.2 0.1,-0.3 0,-0.5c0,-0.1 -0.2,-0.2 -0.4,-0.2c-0.1,0 -0.2,0.1 -0.3,0.1c-0.1,0.1 -0.2,0.1 -0.2,0.2c-0.1,0.1 -0.1,0.2 -0.2,0.3c0,0.1 -0.1,0.2 -0.1,0.3l-1.1,3.4z" class="st0"/>
     <path id="svg_13" d="m125,10.913044l2.2,-6.4l3,-0.3l-0.3,0.9l-1.9,0.2l-0.6,1.8l1.7,-0.2l-0.3,0.9l-1.7,0.2l-0.6,1.8l1.9,-0.2l-0.3,0.9l-3.1,0.4z" class="st0"/>
     <path id="svg_14" d="m130.1,10.313044c0.6,-1.1 1.2,-2.2 1.8,-3.3c0.6,-1.1 1.2,-2.2 1.8,-3.3l1.2,-0.1l-0.8,6.3l-1.1,0.1l0.2,-1.3l-1.3,0.1c-0.1,0.2 -0.2,0.4 -0.3,0.7c-0.1,0.2 -0.2,0.5 -0.3,0.7l-1.2,0.1zm2.2,-2.5l0.9,-0.1l0.5,-2.6l0,0c-0.2,0.4 -0.4,0.9 -0.7,1.3c-0.2,0.5 -0.5,1 -0.7,1.4z" class="st0"/>
     <path id="svg_15" d="m134.5,9.813044l2.2,-6.4l2.9,-0.3l-0.3,0.9l-1.9,0.2l-1.8,5.5l-1.1,0.1z" class="st0"/>
     <path id="svg_16" d="m138,9.313044l2.2,-6.4l3,-0.3l-0.3,0.9l-1.9,0.2l-0.6,1.8l1.7,-0.2l-0.3,0.9l-1.7,0.2l-0.6,1.8l1.9,-0.2l-0.3,0.9l-3.1,0.4z" class="st0"/>
     <path id="svg_17" d="m141.6,8.913044l2.2,-6.4l1,-0.1l-0.9,2.7l1.2,-0.1l0.9,-2.7l1,-0.1l-2.2,6.4l-1,0.1l0.9,-2.8l-1.2,0.1l-0.9,2.8l-1,0.1z" class="st0"/>
     <path id="svg_18" d="m147.2,3.013044l0.3,-0.9l3.2,-0.4l-0.3,0.9l-1.1,0.1l-1.8,5.5l-1.1,0.1l1.8,-5.5l-1,0.2z" class="st0"/>
     <path id="svg_19" d="m149.3,6.613044l1.1,-3.2c0.1,-0.2 0.2,-0.5 0.3,-0.7c0.1,-0.2 0.3,-0.4 0.5,-0.6c0.2,-0.2 0.4,-0.3 0.6,-0.4c0.2,-0.1 0.5,-0.2 0.8,-0.2c0.3,0 0.5,0 0.7,0c0.2,0 0.3,0.1 0.4,0.3c0.1,0.1 0.1,0.3 0.1,0.4c0,0.2 0,0.4 -0.1,0.6l-1.1,0.4c0.1,-0.2 0.1,-0.4 0.1,-0.6c0,-0.1 -0.2,-0.2 -0.4,-0.2c-0.1,0 -0.2,0 -0.3,0.1c-0.1,0.1 -0.2,0.1 -0.2,0.2c-0.1,0.1 -0.1,0.2 -0.2,0.3c0,0.1 -0.1,0.2 -0.1,0.3l-1.1,3.3c0,0.1 0,0.1 0,0.2s0,0.1 0,0.2c0,0.1 0.1,0.1 0.1,0.1c0.1,0 0.1,0 0.3,0c0.4,0 0.7,-0.3 0.9,-0.9c0.2,0 0.3,0 0.5,0c0.2,0 0.3,0 0.5,0c-0.2,0.5 -0.4,0.9 -0.8,1.2c-0.4,0.3 -0.8,0.5 -1.3,0.6c-0.6,0.1 -0.9,0 -1.1,-0.3s-0.4,-0.6 -0.2,-1.1z" class="st0"/>
     <path id="svg_20" d="m154,2.213044l0.3,-0.9l3.2,-0.4l-0.3,0.9l-1.1,0.1l-1.8,5.5l-1.1,0.1l1.8,-5.5l-1,0.2z" class="st0"/>
     <path id="svg_21" d="m155.8,7.313044l2.2,-6.4l1.5,-0.2c0.6,-0.1 1,0 1.2,0.3c0.2,0.3 0.2,0.7 0,1.2c-0.1,0.3 -0.2,0.6 -0.4,0.8c-0.2,0.2 -0.4,0.4 -0.7,0.6l0,0.1c0.3,0.1 0.4,0.2 0.5,0.5c0,0.2 0,0.5 -0.1,0.9c-0.2,0.7 -0.5,1.2 -1,1.5c-0.4,0.4 -0.9,0.6 -1.6,0.6l-1.6,0.1zm1.4,-1.1l0.4,0c0.2,0 0.3,-0.1 0.4,-0.1c0.1,-0.1 0.2,-0.2 0.3,-0.3c0.1,-0.1 0.2,-0.2 0.2,-0.4c0.1,-0.1 0.1,-0.3 0.2,-0.4c0.1,-0.3 0.1,-0.5 0,-0.7c-0.1,-0.1 -0.2,-0.2 -0.5,-0.2l-0.4,0l-0.6,2.1zm1,-2.9l0.3,0c0.3,0 0.5,-0.1 0.7,-0.3c0.2,-0.2 0.3,-0.4 0.4,-0.6c0.1,-0.3 0.1,-0.5 0,-0.6c-0.1,-0.1 -0.3,-0.2 -0.5,-0.1l-0.3,0l-0.6,1.6z" class="st0"/>
     <path id="svg_22" d="m160.4,5.313044l1.1,-3.2c0.1,-0.3 0.2,-0.5 0.3,-0.7c0.1,-0.2 0.3,-0.4 0.5,-0.6c0.2,-0.2 0.4,-0.3 0.6,-0.4c0.2,-0.1 0.5,-0.2 0.8,-0.2c0.3,0 0.6,0 0.7,0c0.2,0.1 0.3,0.1 0.4,0.3c0.1,0.1 0.1,0.3 0.1,0.5c0,0.2 -0.1,0.4 -0.2,0.7l-1.1,3.1c-0.2,0.6 -0.5,1 -0.8,1.3c-0.4,0.3 -0.8,0.5 -1.4,0.6c-0.6,0.1 -0.9,0 -1.1,-0.3c-0.1,-0.2 -0.1,-0.6 0.1,-1.1zm1,-0.1c-0.1,0.2 -0.1,0.3 0,0.4c0,0.1 0.2,0.2 0.4,0.1c0.2,0 0.4,-0.1 0.5,-0.3c0.1,-0.1 0.2,-0.3 0.3,-0.5l1.1,-3.3c0.1,-0.2 0.1,-0.3 0,-0.5c0,-0.1 -0.2,-0.2 -0.4,-0.2c-0.1,0 -0.2,0.1 -0.3,0.1c-0.1,0.1 -0.2,0.1 -0.2,0.2c-0.1,0.1 -0.1,0.2 -0.2,0.3c0,0.1 -0.1,0.2 -0.1,0.3l-1.1,3.4z" class="st0"/>
    </g>
   </g>
   <g id="svg_23">
    <path id="svg_24" d="m23.1,26.113044c0,0 -0.3,0.8 -0.4,1.2c-1.3,4 -4.2,12.6 -9.8,23.9c1.6,0.9 3.8,1 3.8,1s5.4,-13.8 8.8,-25.7c-1.2,-0.6 -2.4,-0.4 -2.4,-0.4z" class="st0"/>
    <path id="svg_25" d="m30.8,31.013044c7,-4.5 4.9,-11.6 -4,-10.5c-6.6,0.8 -19.2,4.7 -26.8,13.5c0.2,0.9 1.7,2.8 2.9,3.7c3.4,-0.9 11.4,-4.3 16.4,-7.6c0,0 -0.2,-0.6 -0.6,-1.4c-3.8,2.1 -9.2,4 -14.4,5.6c4.5,-4.8 11.4,-9.1 18.1,-11.3c10.2,-3.2 15.2,2.4 3.6,7.9c0,0 0.3,1.8 0.6,2.5c10.3,-1.3 4.1,12.8 -21.9,29.4c0,0 -0.1,0.8 0.6,1.5c35.4,-22.5 30.8,-32.3 25.5,-33.3z" class="st0"/>
    <path id="svg_26" d="m62.3,28.213044c-0.8,1.3 -2.6,4.9 -3.7,8.5c-1.6,2 -6.9,8.1 -0.1,-6.8c-0.7,-0.4 -1.9,-0.7 -1.9,-0.7c-0.9,1.5 -2.7,5.6 -3.8,8.6c-1.6,2 -6.9,8 -0.1,-6.9c-0.7,-0.4 -1.9,-0.7 -1.9,-0.7c-0.9,1.5 -2.7,5.6 -3.8,8.6c-2.7,2.7 -4.7,3.9 -4.3,2.7c0.6,-1.7 2,-4.7 2,-4.7c-0.3,-0.2 -0.6,-0.3 -0.8,-0.3c1.5,-3.5 0,-7.6 -4.3,-3.5c-2,1.9 -5.5,6.4 -6.1,10.9c-0.7,5.1 4,2.7 6.5,-1.6c-2.2,6.8 3,2.9 6,-0.3c-0.8,3.7 2.2,3.8 5.8,-0.9c-0.7,3.7 2.4,3.6 6.1,-1.4c-0.2,1.1 -0.3,2.1 -0.3,3c0.8,0.3 2.4,0.6 4,0.2c-0.5,-3.3 0,-8 2.7,-13.8c-0.8,-0.6 -2,-0.9 -2,-0.9zm-25.2,14.4c-1.3,0.3 0.2,-4.6 3.5,-8.3c2.8,-3.2 2.9,0 1.8,2c0,0 0,0 0,0c0,0.1 -0.1,0.2 -0.1,0.2c0,0 0,0 0,0c-1.3,2.6 -3.9,5.8 -5.2,6.1z" class="st0"/>
    <path id="svg_27" d="m168.6,19.613044c-0.6,0.8 -7.3,9.1 -2,-6.9c-0.7,-0.4 -1.8,-0.6 -1.8,-0.6s-2.6,3.5 -5,7.5c2,-6.4 3,-9.7 3,-9.7l-1.6,-0.6c0,0.1 -1.1,2.9 -3.1,8.7c-5,6.7 -9.5,9 -8.4,4.4c1.3,-0.3 4.4,-0.7 5.8,-4.7c2.2,-6.1 -5.3,-4.8 -7.9,3.9c0,0 0,0 0,0c-0.6,0.8 -8.3,10.9 -0.6,-5.8c-0.7,-0.4 -1.9,-0.7 -1.9,-0.7c-0.4,0.7 -1,1.9 -1.7,3.3c-0.8,0.6 -1.9,1.5 -3.5,2.3c1.3,-4.2 2.1,-6.8 2.1,-6.8l-1.6,-0.6c0,0.1 -1.6,4.1 -3.4,8.6c-0.8,0.2 -1.6,0.5 -2.5,0.6l-0.9,1.6c0,0 0,0 0,0c-1.3,1.7 -6.8,9.2 0.3,-6.4c-0.7,-0.4 -1.9,-0.7 -1.9,-0.7c-1,1.5 -2.8,5.8 -3.9,8.8c-1.9,2.3 -6.2,6.9 0.2,-7.2c-0.7,-0.4 -1.9,-0.7 -1.9,-0.7c-1,1.6 -2.9,6.2 -4,9.2c-2.4,2.2 -4.1,3.1 -3.7,2c0.6,-1.7 2,-4.7 2,-4.7c-0.3,-0.1 -0.5,-0.2 -0.7,-0.3c1.2,-3.1 0.1,-7.7 -4.2,-3.6c-1.5,1.5 -4,4.5 -5.3,7.9c-1.4,1.3 -2.7,2.3 -4.8,4.3c-0.4,-0.2 -0.9,-0.4 -1.4,-0.5c0,0 3.6,-2.4 4.7,-5.6c1.3,-3.7 -2.1,-9.4 -9.3,3.3c-0.8,1.4 -6.8,9.7 0.6,-6.5c-0.7,-0.4 -1.9,-0.7 -1.9,-0.7c-1,1.5 -2.8,5.8 -3.9,8.8c-1.9,2.3 -6.2,6.9 0.2,-7.2c-0.7,-0.4 -1.9,-0.7 -1.9,-0.7c-1.3,2.1 -4.2,9.3 -4.7,11.3c-1,3.9 1.9,4.2 5.4,-0.3c-0.7,3.7 2.3,3.2 6.1,-2.3c0.7,-1.1 0.9,-1.5 1.4,-2.4c6,-10.3 8.8,-3.8 0.5,1.5c-0.1,0.4 -0.3,1.7 -0.4,2.4c0.6,0 1.9,0 3,0.4c-0.9,0.9 -1.8,1.9 -3,3.1c-9.2,9.8 -4.4,17.5 -0.1,14.5c4,-2.8 9,-13.8 5.7,-18c1,-0.9 2,-1.8 2.8,-2.6c0,0.1 0,0.2 0,0.3c-0.7,5.1 4,2.7 6.5,-1.6c-2,6.3 2.3,3.4 5.3,0.4c-0.4,3.1 2.3,3 5.6,-1.1c-0.6,3.7 2.6,3.3 6.5,-2.2c1,-1.5 1.5,-2.3 1.7,-2.8c0.3,0 0.5,-0.1 0.8,-0.1c-2,5.2 -4,10.4 -4,10.4s0.8,0.7 1.6,1.2c0.6,0.4 1.6,0.8 1.6,0.8c1.3,-5 2.6,-9.5 3.7,-13.1c1,-0.3 1.9,-0.8 2.9,-1.3c-0.8,2 -1.5,3.8 -1.7,4.7c-1.1,4.3 2.4,4.2 6.4,-1.6c0.1,-0.1 0.2,-0.2 0.2,-0.3c-1,7.5 5.3,3.1 9.8,-2.7c-3.6,10.2 -7.7,22.1 -7.7,22.1s0.6,0.7 1.5,1.2c0.6,0.4 1.7,0.7 1.7,0.7c1.4,-5.8 3.9,-14.2 6.1,-21.5c0.9,-1.5 3,-4.9 4.7,-7.5c-0.9,3 -1.2,5.3 -1.2,6.7c-0.2,4.4 3.6,3.6 7.6,-2.2c0,-1.2 -0.2,-1.7 -0.5,-2.1zm-63.1,20.4c-4,10.7 -9.4,11.8 -7,4.6c1.1,-3.3 4.1,-6.7 7.1,-9.6c0.7,0.8 0.9,2.4 -0.1,5zm7.9,-9.9c-1.3,0.3 0.2,-4.6 3.5,-8.3c2.7,-3 2.6,0.1 1.9,2c0,0 0,0 0,0c-1.3,2.6 -4.1,6 -5.4,6.3zm40.5,-14.3c0.9,0.2 -0.1,3.8 -3.5,4.5c1.5,-3.4 2.8,-4.6 3.5,-4.5z" class="st0"/>
    <path id="svg_28" d="m75.4,12.713044c-6.6,1.1 -17.9,6.6 -21.3,9.9c0.5,1.6 1.6,3.1 2.5,4c5.2,-1.1 12.4,-3.1 19.7,-7.1c0,0 -0.2,-0.5 -0.6,-1.2c-4.3,1.9 -11.1,3.8 -16.7,4.9c4.3,-3.4 11.4,-7.6 16.3,-8.7c15.9,-3.8 9.2,22.2 5.8,24.7c-1.1,0.8 -3.5,-0.9 -4.9,-1.9c2,-5.2 4.3,-11.8 6.2,-18.4c-1.1,-0.6 -2.3,-0.4 -2.3,-0.4s-0.3,0.8 -0.4,1.2c-1,3.1 -2.5,7.8 -6,15.6c-0.8,-0.7 -2.1,-1.5 -3.1,-1.8c-2,-0.7 -3.9,0.9 -3.9,5.2c0,2.6 2,5.6 4.1,5.6c1.9,0 3.6,-1.3 4.5,-4.5c2.1,1.7 3.6,3.2 5.8,3.2c5.6,0 13.8,-33.6 -5.7,-30.3zm-5.5,28.1c-1,-0.1 -1.9,-2.6 -1.2,-4.6c0.5,-1.4 2,-1 3.9,1c-0.4,1.2 -1.8,3.7 -2.7,3.6z" class="st0"/>
    <path id="svg_29" d="m46.5,47.613044l1.6,3c5.9,-3.9 13,-5.2 13,-5.2l-0.2,-1.4c-8.4,0.7 -14.4,3.6 -14.4,3.6z" class="st0"/>
    <path id="svg_30" d="m133.7,12.313044l-1.7,-0.9c0,0 -2,2.4 -2.7,5.2l1.4,0.3c-0.1,0 0.7,-2 3,-4.6z" class="st0"/>
   </g>
  </g>
 </g>
</svg>