<svg width="170" height="65" xmlns="http://www.w3.org/2000/svg">
 <style type="text/css">.st0{fill:#FFFFFF;}</style>

 <g>
  <title>background</title>
  <rect fill="none" id="canvas_background" height="67" width="172" y="-1" x="-1"/>
 </g>
 <g>
  <title>Layer 1</title>
  <g id="svg_1">
   <g id="svg_2">
    <path id="svg_3" d="m127.7,15.499998l-2.3,-1.4c0,0 -1.6,2.6 -2.7,5.5l1.8,0.7c0.1,0 1.5,-2.8 3.2,-4.8" class="st0"/>
    <path id="svg_4" d="m87.5,19.199998c0,0 -0.3,0.8 -0.5,1.3c-1.3,4.2 -4.4,13.1 -10.2,24.8c1.7,0.9 3.9,1.1 3.9,1.1s5.6,-14.3 9.1,-26.7c-1.1,-0.7 -2.3,-0.5 -2.3,-0.5" class="st0"/>
    <path id="svg_5" d="m69.1,35.599998c-1,2.3 -1.9,4.7 -2.1,5.8c-1.3,5.9 3.3,4.5 7.2,-1.9c-0.2,-0.3 -0.5,-0.5 -0.9,-0.9c-0.6,1.1 -6.9,8 0.4,-7.8c-0.7,-0.5 -1.9,-0.7 -1.9,-0.7c-0.2,0.3 -0.4,0.7 -0.6,1.1c0,0 0,0 0,0c-3.5,5.5 -5.7,3.4 -2.7,-3.1l-1.2,-0.3c-2.5,3.9 -3.2,6.7 -3.1,8.3c-2.3,4.5 -8.4,12.3 -1.2,-3.5c-0.7,-0.5 -2,-0.8 -2,-0.8c-1,1.5 -2.7,5.7 -3.9,8.8c-1.5,1.9 -7.5,8.9 -0.2,-7c-0.7,-0.5 -2,-0.8 -2,-0.8c-0.4,0.7 -1.1,2 -1.7,3.5c-0.8,0.7 -2.2,1.7 -4,2.2c1,-7.6 -6.9,-5 -10,3c-3.5,9.2 5.6,11.3 9.3,0c0.1,-0.2 0.1,-0.3 0.2,-0.5c1.3,-0.5 2.5,-1.3 3.5,-2.2c-1,2.4 -1.8,4.7 -2.1,5.7c-1.1,4.2 2.1,4.4 6,-0.8c-0.8,4 2.9,5.4 9,-6.3c0.8,0.7 2.5,0.1 4,-1.8m-22.4,6.1c-2.5,6.9 -6.8,5.7 -4.7,0.1c2.1,-5.5 6.3,-7.7 5.5,-2.9c-0.6,0.1 -1.2,0.1 -1.8,0l-0.9,2.7c0.6,0.1 1.3,0.1 1.9,0.1c0,-0.1 0,0 0,0" class="st0"/>
    <path id="svg_6" d="m168.5,23.299998c-0.6,1.1 -6.9,8 0.4,-7.8c-0.7,-0.5 -1.9,-0.7 -1.9,-0.7c-0.2,0.3 -0.4,0.7 -0.6,1.1c0,0 0,0 0,0c-3.5,5.5 -5.7,3.4 -2.7,-3.1l-1.2,-0.3c-2.5,4 -3.3,6.8 -3.1,8.4c-5,8.1 -9.1,9.1 -7.7,4.4c1.3,-0.3 4.9,-1.3 6.2,-4.8c2.5,-6.9 -7,-4.4 -9.1,5.9c-0.1,0.3 -0.1,0.5 -0.1,0.8c-2.2,2.1 -6.8,5.6 -0.7,-5.8c1.2,-2.3 0.3,-4 -1.4,-3c-1,0.7 -3.3,2.5 -5.4,5c0.4,-1.1 0.9,-2.3 1.5,-3.6c-0.7,-0.5 -2,-0.8 -2,-0.8c-1.4,2.1 -5.2,12.1 -5.8,14.2c0.9,0.4 2,0.6 3.1,0.7c0.6,-1.9 1,-3.6 1.5,-5.3c1.6,-2.8 3.8,-5.2 5.5,-6.7c0.1,-0.1 0.2,0 0.2,0.2c-1.9,2.6 -2.8,5.2 -3.3,7.6c-1,4.9 3,4 6.8,-0.2c0.6,5.1 7.3,1.5 11.8,-7.1c1,0.5 2.6,-0.2 4.1,-2.1c-1,2.3 -1.9,4.7 -2.1,5.8c-1.3,5.9 3.3,4.5 7.2,-1.9c-0.5,-0.3 -0.7,-0.6 -1.2,-0.9m-12.2,-5.1c0.9,0.2 -0.2,4 -3.8,4.8c1.4,-3.3 3.1,-4.9 3.8,-4.8" class="st0"/>
    <path id="svg_7" d="m39.6,26.499998c-1.6,6 -3.2,10.6 -4.7,14.8c-3.5,5 -9.7,9.3 -7.2,2.5c1.3,-3.6 4.5,-9.7 5.5,-12.4c2,-5.6 -0.6,-10.9 -7.6,-10.2c-6.5,0.6 -19.1,6.6 -25.6,13.8c0.2,1 1.7,2.9 3,3.9c3.5,-1 14.3,-5.6 19.5,-9c0,0 -0.2,-0.6 -0.6,-1.4c-3.9,2.1 -12.1,5.3 -17.4,7c4.6,-5 12.3,-9.7 16.6,-11.3c6.6,-2.5 14.2,-0.8 8.9,8c-4,6.7 -6.5,12 -7,15.4c-0.8,6 3.4,6.3 9.9,-0.8c-5.3,13.3 -9.6,15.5 -13.2,15.1c-4.3,-0.5 -7.1,-8.3 1,-20.3l-1.4,-1c-8.7,11.2 -7.5,22.9 -0.8,24.3c10.6,2.3 16.7,-13.6 23.7,-37.6c-0.4,-0.4 -1.4,-0.7 -2.6,-0.8" class="st0"/>
    <path id="svg_8" d="m112.9,23.299998c-7.4,14 -13.5,15.3 -12,10c1.3,-0.3 5.1,-0.6 6.2,-4.9c2.5,-9.5 -9.8,0.1 -9.8,7.9c0,8.9 10.6,-0.4 16.1,-11c0.8,4.3 -0.3,9.5 -2.4,9.7c-0.6,0.1 -1.5,-0.6 -1.9,-1.1c-0.6,0.3 -1.7,1.6 -1.7,1.6c0.3,1.1 1.9,2.8 3.7,2.6c7,-0.7 5,-12.7 4.1,-15.3c-1.2,0.3 -2.3,0.5 -2.3,0.5m-7.4,3.2c0.9,0.2 -0.2,4 -3.8,4.8c1.6,-3.7 3.1,-4.9 3.8,-4.8" class="st0"/>
    <path id="svg_9" d="m87.2,9.999998c-4.2,0.8 -13.8,5.4 -20.6,12.5c0.2,1 1.7,2.9 3,3.9c3.5,-1 10.8,-4.5 16,-7.9c0,0 -0.2,-0.6 -0.6,-1.4c-3.9,2.1 -8.6,4.2 -14,5.9c3.1,-3.9 8.6,-8.5 15.6,-10.6c9.2,-2.8 11.9,5.2 9.7,13.3c-3.1,11.4 -10.8,23.6 -32.1,31.6l0.8,1.8c19.5,-8.4 29.5,-16.7 34.2,-33.5c1.8,-6.2 0.9,-18.1 -12,-15.6" class="st0"/>
    <path id="svg_10" d="m135.7,24.899998c-0.3,-0.2 -0.6,-0.3 -0.9,-0.4c1.9,-8 -5.8,-4.6 -8.9,4.5c-0.1,0.2 -0.1,0.4 -0.2,0.6c0,0 0,0 0,0c-2.1,1.8 -9.2,9.3 -1.9,-6.7c-0.7,-0.4 -2.2,-0.8 -2.2,-0.8c-1.4,2.2 -4.2,9.9 -4.8,12c-1.1,4.4 4.1,3.9 8.2,-2c-0.9,5.3 2.6,4 5.7,0.7c-0.6,1.5 -1.2,2.8 -1.6,3.9c-1.8,-0.5 -4.4,-0.9 -6.2,1.5c-3.5,4.9 2.6,12.2 7.7,0.8c1,0.4 2.5,1.3 3.2,1.8c0.7,-1 1,-1.6 1,-1.6c-0.8,-0.6 -2.3,-1.4 -3.5,-1.9c1.3,-2.9 2.9,-7.4 4.4,-12.4m-11.6,15.2c0.8,-2.5 3.3,-2.2 4.3,-1.7c-3,5.8 -4.9,3.7 -4.3,1.7m4.6,-11.7c3.2,-8.2 5.2,-6.3 4.7,-4.1c0,0 0,0 0,0c-0.4,1.7 -0.9,3.3 -1.4,4.7c-3,4.5 -4.6,2.6 -3.3,-0.6" class="st0"/>
   </g>
   <g id="svg_11">
    <g id="svg_12">
     <path id="svg_13" d="m105,12.799998l1.2,-3.7c0.1,-0.3 0.2,-0.5 0.4,-0.8c0.1,-0.3 0.3,-0.5 0.5,-0.7c0.2,-0.2 0.5,-0.4 0.7,-0.5c0.3,-0.1 0.6,-0.2 0.9,-0.3c0.3,0 0.6,0 0.8,0c0.2,0.1 0.4,0.2 0.5,0.3c0.1,0.1 0.2,0.3 0.2,0.5c0,0.2 0,0.4 -0.1,0.7l-1.3,0.4c0.1,-0.3 0.1,-0.5 0.1,-0.6c-0.1,-0.2 -0.2,-0.2 -0.4,-0.2c-0.1,0 -0.3,0.1 -0.4,0.1c-0.1,0.1 -0.2,0.1 -0.3,0.2c-0.1,0.1 -0.1,0.2 -0.2,0.3c-0.1,0.1 -0.1,0.2 -0.1,0.3l-1.3,3.8c0,0.1 0,0.1 -0.1,0.2s0,0.2 0,0.2c0,0.1 0.1,0.1 0.1,0.2s0.2,0 0.3,0c0.5,-0.1 0.8,-0.4 1,-1c0.2,0 0.4,0 0.6,0c0.2,0 0.4,0 0.6,0c-0.2,0.6 -0.5,1 -0.9,1.4c-0.4,0.4 -0.9,0.6 -1.6,0.7c-0.6,0.1 -1.1,0 -1.3,-0.3c-0.1,-0.1 -0.1,-0.6 0.1,-1.2z" class="st0"/>
     <path id="svg_14" d="m109,14.099998l2.5,-7.5l1.8,-0.2c0.6,-0.1 1.1,0 1.3,0.3c0.2,0.3 0.2,0.8 0,1.6c-0.2,0.5 -0.4,0.9 -0.6,1.2s-0.6,0.6 -1,0.9l0,3.2l-1.2,0.1l0,-3l-0.6,0.1l-1,3.1l-1.2,0.2zm2.7,-4.4l0.5,-0.1c0.3,0 0.6,-0.2 0.8,-0.3c0.2,-0.2 0.4,-0.5 0.5,-0.9c0.1,-0.3 0.1,-0.6 0,-0.8c-0.1,-0.2 -0.3,-0.2 -0.6,-0.2l-0.5,0.1l-0.7,2.2z" class="st0"/>
     <path id="svg_15" d="m113.9,13.499998l2.5,-7.5l3.5,-0.4l-0.4,1.1l-2.3,0.3l-0.7,2l2,-0.2l-0.4,1.1l-2,0.2l-0.7,2.1l2.3,-0.3l-0.4,1.1l-3.4,0.5z" class="st0"/>
     <path id="svg_16" d="m117.7,13.099998c0.7,-1.3 1.4,-2.6 2,-3.8c0.7,-1.3 1.4,-2.5 2,-3.8l1.3,-0.2l-0.9,7.3l-1.2,0.1l0.2,-1.5l-1.5,0.2c-0.1,0.3 -0.3,0.5 -0.4,0.8c-0.1,0.3 -0.3,0.5 -0.4,0.8l-1.1,0.1zm2.6,-2.9l1.1,-0.1l0.5,-3l-0.1,0c-0.2,0.5 -0.5,1 -0.8,1.6c-0.2,0.4 -0.5,1 -0.7,1.5z" class="st0"/>
     <path id="svg_17" d="m124.2,6.199998l0.4,-1.1l3.8,-0.4l-0.4,1.1l-1.3,0.1l-2.1,6.4l-1.2,0.1l2.1,-6.4l-1.3,0.2z" class="st0"/>
     <path id="svg_18" d="m126.4,11.999998l2.5,-7.5l1.2,-0.1l-2.5,7.5l-1.2,0.1z" class="st0"/>
     <path id="svg_19" d="m130.9,4.299998l1.2,-0.1l-0.5,3l-0.4,2.3l0.1,0l1.2,-2.4l1.6,-3.1l1.2,-0.1l-3.9,7.6l-1.5,0.2l1,-7.4z" class="st0"/>
     <path id="svg_20" d="m133.6,11.199998l2.5,-7.5l3.5,-0.4l-0.4,1.1l-2.3,0.3l-0.7,2l2,-0.2l-0.4,1.1l-2,0.2l-0.7,2.1l2.3,-0.3l-0.4,1.1l-3.4,0.5z" class="st0"/>
     <path id="svg_21" d="m139.7,10.499998c0.7,-1.3 1.4,-2.6 2,-3.8c0.7,-1.3 1.4,-2.5 2,-3.8l1.3,-0.2l-0.9,7.3l-1.2,0.1l0.2,-1.5l-1.5,0.2c-0.1,0.3 -0.3,0.5 -0.4,0.8c-0.1,0.3 -0.3,0.5 -0.4,0.8l-1.1,0.1zm2.6,-2.8l1.1,-0.1l0.5,-3l-0.1,0c-0.2,0.5 -0.5,1 -0.8,1.6c-0.2,0.4 -0.4,0.9 -0.7,1.5z" class="st0"/>
     <path id="svg_22" d="m145.5,8.099998l1.2,-3.7c0.1,-0.3 0.2,-0.5 0.4,-0.8s0.3,-0.5 0.5,-0.7s0.5,-0.4 0.7,-0.5s0.6,-0.2 0.9,-0.3c0.6,-0.1 1.1,0 1.2,0.3c0.2,0.3 0.2,0.7 0,1.2l0,0.1l-1.3,0.4c0.1,-0.3 0.1,-0.5 0.1,-0.6c-0.1,-0.2 -0.2,-0.2 -0.4,-0.2c-0.1,0 -0.3,0.1 -0.4,0.1c-0.1,0.1 -0.2,0.1 -0.3,0.2c-0.1,0.1 -0.1,0.2 -0.2,0.3s-0.1,0.2 -0.1,0.3l-1.3,3.8c0,0.1 0,0.2 0,0.2c0,0.1 0,0.2 0,0.3c0,0.1 0.2,0.1 0.4,0.1c0.2,0 0.4,-0.1 0.6,-0.2c0.2,-0.1 0.3,-0.3 0.3,-0.4l0.7,-1.4l-0.7,0.1l0.4,-1.1l1.9,-0.2l-0.8,2.4c-0.2,0.6 -0.5,1.1 -1,1.4c-0.5,0.3 -1,0.5 -1.5,0.6c-0.6,0.1 -1.1,0 -1.3,-0.3c-0.2,-0.3 -0.2,-0.8 0,-1.4z" class="st0"/>
     <path id="svg_23" d="m149.7,9.299998l2.5,-7.5l3.5,-0.4l-0.4,1.1l-2.3,0.3l-0.7,2l2,-0.2l-0.4,1.1l-2,0.2l-0.7,2.1l2.3,-0.3l-0.4,1.1l-3.4,0.5z" class="st0"/>
     <path id="svg_24" d="m154,8.799998l2.5,-7.5l1.1,-0.1l0.2,2.1c0,0.2 0,0.3 0,0.5s0,0.3 0.1,0.5l0,1c0,0 0,0 0,0c0,0 0,0 0,0l1.5,-4.3l1.2,-0.1l-2.5,7.5l-1.1,0.1l-0.2,-2.1c0,-0.3 -0.1,-0.7 -0.1,-1c0,-0.3 -0.1,-0.7 -0.1,-1l-0.1,0l-1.5,4.4l-1,0z" class="st0"/>
     <path id="svg_25" d="m159.8,6.499998l1.2,-3.7c0.1,-0.3 0.2,-0.5 0.4,-0.8c0.1,-0.3 0.3,-0.5 0.5,-0.7c0.2,-0.2 0.5,-0.4 0.7,-0.5c0.3,-0.1 0.6,-0.2 0.9,-0.3c0.3,0 0.6,0 0.8,0c0.2,0.1 0.4,0.2 0.5,0.3c0.1,0.1 0.2,0.3 0.2,0.5c0,0.2 0,0.4 -0.1,0.7l-1.3,0.4c0.1,-0.3 0.1,-0.5 0.1,-0.6c-0.1,-0.2 -0.2,-0.2 -0.4,-0.2c-0.1,0 -0.3,0.1 -0.4,0.1c-0.1,0.1 -0.2,0.1 -0.3,0.2c-0.1,0.1 -0.1,0.2 -0.2,0.3c-0.1,0.1 -0.1,0.2 -0.1,0.3l-1.3,3.8c0,0.1 0,0.1 -0.1,0.2s0,0.2 0,0.2c0,0.1 0.1,0.1 0.1,0.2c0.1,0 0.2,0.1 0.3,0c0.5,-0.1 0.8,-0.4 1,-1c0.2,0 0.4,0 0.6,0c0.2,0 0.4,0 0.6,0c-0.2,0.6 -0.5,1 -0.9,1.4c-0.4,0.4 -0.9,0.6 -1.6,0.7c-0.6,0.1 -1.1,0 -1.3,-0.3c-0.1,-0.2 -0.1,-0.6 0.1,-1.2z" class="st0"/>
     <path id="svg_26" d="m165.8,0.299998l1.2,-0.1l-0.1,1.6l-0.1,1.3l0,0l0.8,-1.4l1,-1.6l1.3,-0.1l-3,4.6l-1,3.1l-1.2,0.1l1,-3.1l0.1,-4.4z" class="st0"/>
    </g>
   </g>
  </g>
 </g>
</svg>