<svg width="51" height="30" xmlns="http://www.w3.org/2000/svg">
 <style type="text/css">.st0{fill:#FFFFFF;}</style>

 <g>
  <title>background</title>
  <rect fill="none" id="canvas_background" height="32" width="53" y="-1" x="-1"/>
 </g>
 <g>
  <title>Layer 1</title>
  <path id="svg_1" d="m1.029421,4.823537c0,0 -1.9,-3.1 1.6,-3.1c3.5,0 5.9,0 5.9,0s1.8,-0.8 3.2,2.6c1.4,3.3 4.4,8 5.1,8.8c0.8,0.8 2.6,2.6 2.7,-1.4c0.2,-3.9 0.1,-6.7 -0.6,-7.8c0,0 -0.5,-0.7 -2,-1c-0.3,-0.5 -0.6,-0.9 0.8,-1.5c1.4,-0.7 2.6,-0.9 3.8,-0.9l5.4,0c0,0 2.7,-0.3 2.7,3.2c0,3.5 0,8.5 0,8.5s0.3,3.5 2.3,0.9c2,-2.6 3.7,-5.8 5.3,-9c0.5,-1.2 0.8,-2.5 2.8,-2.5c2,0 7.8,0 7.8,0s3.9,-0.4 1.7,3.2c-2.2,3.7 -5.1,7.7 -6.4,9.3c-0.4,0.6 -2.6,2 0.4,4.8c3.2,3.2 4.4,4.3 5.3,5.5c0,0 3.2,4.3 -1.1,4.3c-4.3,0 -7,0 -7,0s-2.6,0.1 -4.4,-2c-1.8,-2.1 -4.6,-5.4 -5.5,-4.2c-0.8,1 -1,1.6 -1.1,4c-0.3,1 0.3,2.2 -3.2,2.2c-3.6,0 -8.5,-0.3 -12.7,-4.4c-5.8,-5.4 -9.2,-11.4 -12.8,-19.5z" class="st0"/>
 </g>
</svg>