<svg width="50" height="52" xmlns="http://www.w3.org/2000/svg">
 <style type="text/css">.st0{fill:#FFFFFF;}</style>

 <g>
  <title>background</title>
  <rect fill="none" id="canvas_background" height="54" width="52" y="-1" x="-1"/>
 </g>
 <g>
  <title>Layer 1</title>
  <path id="svg_1" d="m42.813484,4.884925c-4.4,-3.8 -10.3,-5.4 -16.8,-4.5c-13.2,1.8 -24.4,13.8 -24.8,26.7c-0.1,4.1 0.8,8 2.8,11.3l-3.8,12.6l12.9,-5c3.4,1.4 7.4,1.8 11.4,1.3l0,0c13.2,-1.8 24.4,-13.8 24.9,-26.7c0,-6.3 -2.2,-11.9 -6.6,-15.7zm-18.3,38.4l0,0c-3.6,0.5 -7.1,0 -10.1,-1.3l-0.7,-0.3l-7.6,3l2.3,-7.5l-0.4,-0.7c-1.9,-2.8 -2.8,-6.3 -2.7,-10c0.4,-10.7 9.7,-20.7 20.7,-22.2c5.3,-0.7 10.3,0.6 13.9,3.8c3.6,3.2 5.5,7.8 5.4,13c-0.5,10.7 -9.8,20.7 -20.8,22.2zm11.5,-16.1c-0.6,-0.2 -3.5,-1.2 -4,-1.3c-0.5,-0.1 -0.9,-0.2 -1.4,0.5c-0.4,0.6 -1.6,2.1 -2,2.6c-0.4,0.4 -0.7,0.5 -1.3,0.3c-0.6,-0.2 -2.5,-0.6 -4.7,-2.2c-1.7,-1.3 -2.9,-3.1 -3.2,-3.6c-0.3,-0.5 0,-0.9 0.3,-1.2c0.7,-0.9 1.4,-1.8 1.6,-2.2c0.2,-0.4 0.1,-0.7 0,-1c-0.1,-0.3 -1.2,-3 -1.7,-4.1c-0.4,-1.1 -0.9,-0.9 -1.3,-0.8c-0.3,0 -0.7,0.1 -1.1,0.1c-0.4,0.1 -1.1,0.3 -1.6,1c-0.6,0.7 -2.2,2.3 -2.3,5.2c-0.1,2.9 1.9,5.4 2.2,5.7c0.3,0.3 4,5.7 9.9,7.4c1.4,0.4 2.5,0.6 3.4,0.8c1.4,0.2 2.7,0 3.8,-0.3c1.2,-0.3 3.6,-1.9 4.2,-3.3c0.5,-1.4 0.6,-2.6 0.4,-2.8c-0.2,-0.5 -0.6,-0.6 -1.2,-0.8z" class="st0"/>
 </g>
</svg>